<svg width="40" height="40" viewBox="0 0 40 40" fill="none" xmlns="http://www.w3.org/2000/svg">
<circle cx="19.8425" cy="20.0617" r="19.2214" stroke="black"/>
<circle cx="19.8421" cy="20.0618" r="4.07818" stroke="black"/>
<path d="M6.10742 33.9317C6.10742 33.9317 7.19519 30.383 9.10084 29.7057C12.2378 28.5908 11.0558 36.2917 14.3834 36.3969C17.7978 36.5049 16.6058 29.5417 20.018 29.7057C23.3013 29.8635 21.8391 36.2904 25.1245 36.3969C28.495 36.5062 27.4586 28.4368 30.583 29.7057C32.4207 30.4521 33.4004 33.9317 33.4004 33.9317" stroke="black"/>
<line x1="19.6186" y1="5.23723" x2="17.6957" y2="6.19868" stroke="black" stroke-linecap="round"/>
<line x1="20.2536" y1="10.7029" x2="19.6918" y2="12.7781" stroke="black" stroke-linecap="round"/>
<line x1="7.29306" y1="9.46306" x2="5.37014" y2="10.4245" stroke="black" stroke-linecap="round"/>
<line x1="31.593" y1="18.6196" x2="29.6701" y2="19.581" stroke="black" stroke-linecap="round"/>
<line x1="34.9773" y1="21.7496" x2="36.4336" y2="23.3312" stroke="black" stroke-linecap="round"/>
<line x1="33.6704" y1="12.3543" x2="35.4519" y2="13.5578" stroke="black" stroke-linecap="round"/>
<line x1="14.3369" y1="27.0715" x2="12.414" y2="28.0329" stroke="black" stroke-linecap="round"/>
<line x1="4.74843" y1="23.4555" x2="5.57248" y2="25.4412" stroke="black" stroke-linecap="round"/>
<line x1="8.88341" y1="16.802" x2="6.74631" y2="16.5679" stroke="black" stroke-linecap="round"/>
<line x1="12.3773" y1="8.39869" x2="13.0753" y2="10.4321" stroke="black" stroke-linecap="round"/>
<line x1="29.1275" y1="25.6628" x2="27.2046" y2="26.6242" stroke="black" stroke-linecap="round"/>
<line x1="28.178" y1="10.1824" x2="27.1856" y2="12.0895" stroke="black" stroke-linecap="round"/>
</svg>
