<svg width="84" height="113" viewBox="0 0 84 113" fill="none" xmlns="http://www.w3.org/2000/svg">
<path d="M6.51674 7.67998C6.72618 1.44696 14.7419 -0.942303 18.3297 4.15885L26.0827 15.1819C28.7031 18.9076 34.0124 19.4565 37.3395 16.3457L47.1835 7.14171C51.739 2.8824 59.0965 6.86089 58.0264 13.0049L55.7141 26.2817C54.9325 30.769 58.2986 34.9113 62.851 35.0643L76.3199 35.5169C82.553 35.7263 84.9422 43.742 79.841 47.3298L68.8179 55.0828C65.0923 57.7033 64.5434 63.0125 67.6542 66.3396L76.8582 76.1836C81.1175 80.7392 77.139 88.0966 70.995 87.0265L57.7183 84.7142C53.2309 83.9327 49.0886 87.2988 48.9356 91.8511L48.483 105.32C48.2736 111.553 40.2579 113.942 36.67 108.841L28.9171 97.8181C26.2966 94.0924 20.9874 93.5435 17.6603 96.6544L7.81622 105.858C3.26071 110.118 -4.09669 106.139 -3.02662 99.9951L-0.714296 86.7184C0.0672396 82.231 -3.29886 78.0887 -7.8512 77.9358L-21.3201 77.4832C-27.5532 77.2737 -29.9424 69.258 -24.8413 65.6702L-13.8182 57.9172C-10.0925 55.2968 -9.54364 49.9875 -12.6545 46.6604L-21.8584 36.8163C-26.1177 32.2608 -22.1392 24.9034 -15.9952 25.9735L-2.71847 28.2858C1.76888 29.0674 5.91117 25.7013 6.06414 21.1489L6.51674 7.67998Z" stroke="black"/>
</svg>
