<svg width="309" height="226" viewBox="0 0 309 226" fill="none" xmlns="http://www.w3.org/2000/svg">
<path d="M25.7208 221.086L9.49684 216.724L13.1667 203.073L29.3907 207.434L28.9359 209.126L13.7317 205.039L14.3136 204.723L11.3166 215.872L10.9715 215.307L26.1757 219.394L25.7208 221.086Z" fill="black"/>
<path d="M32.0965 197.957C31.7506 199.222 31.1845 200.262 30.3982 201.075C29.5965 201.884 28.6587 202.433 27.5851 202.72C26.496 203.003 25.3495 202.979 24.1456 202.65C22.9418 202.321 21.9465 201.776 21.1596 201.013C20.377 200.235 19.8457 199.327 19.5656 198.288C19.2743 197.23 19.2827 196.138 19.5906 195.011C19.9028 193.869 20.4415 192.93 21.2067 192.194C21.9607 191.438 22.878 190.934 23.9587 190.682C25.0239 190.425 26.1662 190.464 27.3854 190.797C27.4626 190.818 27.5454 190.849 27.6338 190.89C27.7109 190.911 27.7958 190.934 27.8884 190.96L24.9966 201.539L23.7697 201.204L26.421 191.504L26.73 192.285C25.8502 192.045 25.0181 192.024 24.2336 192.225C23.4378 192.405 22.7584 192.767 22.1954 193.31C21.6323 193.852 21.2348 194.548 21.0028 195.397C20.775 196.231 20.7633 197.032 20.9678 197.801C21.1722 198.57 21.5711 199.235 22.1644 199.795C22.7577 200.355 23.5019 200.758 24.397 201.002L24.6517 201.072C25.5777 201.325 26.4506 201.348 27.2702 201.141C28.0786 200.914 28.7826 200.493 29.3822 199.877C29.9705 199.242 30.3933 198.453 30.6507 197.512C30.8532 196.771 30.9097 196.048 30.8203 195.344C30.7351 194.624 30.4857 193.958 30.072 193.348L31.3901 192.713C31.8907 193.43 32.1989 194.244 32.3149 195.155C32.4351 196.05 32.3623 196.984 32.0965 197.957Z" fill="black"/>
<path d="M31.7451 178.816C31.8548 179.611 31.9008 180.397 31.8829 181.173C31.8539 181.929 31.7402 182.661 31.5418 183.37C31.1406 184.803 30.5 185.845 29.6199 186.496C28.7244 187.142 27.5911 187.273 26.2198 186.889L22.2447 185.776L22.6976 184.159L26.5803 185.246C27.5048 185.505 28.2822 185.398 28.9127 184.927C29.5432 184.455 30.0008 183.711 30.2855 182.694C30.458 182.078 30.5622 181.409 30.5979 180.688C30.6182 179.963 30.5714 179.21 30.4574 178.431L31.7451 178.816ZM36.837 180.391L24.7036 176.994L25.163 175.353L37.2964 178.75L36.837 180.391Z" fill="black"/>
<path d="M40.2491 168.871C39.8846 170.131 39.3032 171.162 38.505 171.964C37.6914 172.762 36.7457 173.296 35.6679 173.567C34.5748 173.834 33.4288 173.794 32.2299 173.447C31.031 173.1 30.0439 172.54 29.2684 171.766C28.4973 170.977 27.9794 170.061 27.7147 169.018C27.439 167.956 27.4635 166.863 27.788 165.741C28.117 164.604 28.6695 163.673 29.4454 162.948C30.2105 162.203 31.1352 161.713 32.2194 161.477C33.2883 161.236 34.4299 161.292 35.6441 161.643C35.721 161.665 35.8033 161.697 35.8911 161.739C35.9679 161.762 36.0525 161.786 36.1447 161.813L33.0972 172.349L31.8753 171.995L34.6694 162.335L34.9668 163.121C34.0907 162.867 33.259 162.835 32.4715 163.024C31.6732 163.193 30.9885 163.544 30.4176 164.079C29.8466 164.613 29.4389 165.303 29.1944 166.148C28.9543 166.978 28.9308 167.779 29.1239 168.551C29.317 169.323 29.706 169.994 30.291 170.563C30.8759 171.132 31.6141 171.545 32.5056 171.803L32.7592 171.876C33.6814 172.143 34.5538 172.179 35.3764 171.984C36.1881 171.769 36.8982 171.358 37.5068 170.751C38.1044 170.124 38.5388 169.342 38.81 168.405C39.0234 167.667 39.0906 166.945 39.0116 166.24C38.937 165.518 38.6974 164.85 38.2928 164.233L39.6201 163.617C40.11 164.342 40.4063 165.161 40.5088 166.073C40.6157 166.97 40.5292 167.903 40.2491 168.871ZM26.076 163.023C26.0004 163.284 25.8415 163.488 25.5993 163.634C25.3571 163.781 25.0899 163.812 24.7979 163.727C24.5059 163.643 24.2965 163.474 24.1699 163.221C24.0432 162.968 24.0177 162.711 24.0933 162.449C24.1733 162.173 24.3322 161.969 24.57 161.838C24.8122 161.691 25.0793 161.66 25.3714 161.745C25.6634 161.829 25.8727 161.998 25.9994 162.251C26.1305 162.489 26.156 162.746 26.076 163.023ZM24.889 167.127C24.809 167.403 24.6479 167.615 24.4056 167.761C24.1679 167.892 23.9029 167.916 23.6109 167.831C23.3189 167.747 23.1073 167.586 22.9762 167.348C22.8496 167.095 22.8263 166.83 22.9063 166.553C22.9819 166.292 23.1408 166.088 23.383 165.941C23.6252 165.795 23.8924 165.764 24.1844 165.848C24.4764 165.933 24.6858 166.102 24.8124 166.355C24.9391 166.608 24.9646 166.865 24.889 167.127Z" fill="black"/>
<path d="M42.7366 159.867L30.6856 156.188L31.1901 154.535L42.1084 151.896L41.8982 152.585L34.3433 144.206L34.8057 142.691L46.8568 146.369L46.4013 147.862L36.2096 144.75L36.4384 144.494L43.4397 152.302L43.2155 153.037L32.9412 155.622L32.9774 155.256L43.1921 158.375L42.7366 159.867Z" fill="black"/>
<path d="M51.1062 133.373L40.1532 129.652L40.7239 129.389L39.0485 134.32L37.6396 133.842L41.2606 123.184L42.6695 123.663L40.9941 128.594L40.7013 128.038L51.6544 131.76L51.1062 133.373Z" fill="black"/>
<path d="M55.8821 120.221C55.4565 121.36 54.8181 122.291 53.9669 123.015C53.1063 123.719 52.1283 124.164 51.033 124.353C49.9228 124.536 48.7831 124.409 47.6141 123.972C46.43 123.53 45.4864 122.878 44.7831 122.018C44.0799 121.157 43.6415 120.182 43.4679 119.092C43.2943 118.003 43.4232 116.881 43.8544 115.727C44.2912 114.558 44.9325 113.619 45.7781 112.91C46.6293 112.186 47.5997 111.737 48.6894 111.564C49.7847 111.375 50.9244 111.502 52.1084 111.944C53.2774 112.381 54.2211 113.033 54.9393 113.899C55.6482 114.745 56.0941 115.723 56.277 116.833C56.445 117.938 56.3134 119.067 55.8821 120.221ZM54.4658 119.692C54.785 118.837 54.8805 118.011 54.7522 117.211C54.6089 116.406 54.2626 115.687 53.7132 115.055C53.1543 114.402 52.4178 113.905 51.5035 113.563C50.5743 113.216 49.6922 113.108 48.8571 113.24C48.0277 113.358 47.3024 113.676 46.6813 114.195C46.0452 114.709 45.5703 115.386 45.2567 116.225C44.943 117.064 44.8579 117.886 45.0011 118.692C45.1294 119.491 45.4655 120.214 46.0093 120.862C46.5531 121.509 47.2897 122.006 48.2189 122.354C49.1332 122.695 50.0153 122.803 50.8654 122.676C51.7004 122.544 52.436 122.221 53.0721 121.707C53.6932 121.188 54.1578 120.516 54.4658 119.692Z" fill="black"/>
<path d="M58.5186 112.623L57.2234 111.93C57.2827 111.834 57.3461 111.748 57.4137 111.673C57.473 111.576 57.5185 111.491 57.5504 111.418C57.7542 110.948 57.7406 110.498 57.5094 110.066C57.2845 109.619 56.9104 109.195 56.3871 108.794C55.8637 108.392 55.2478 108.003 54.5395 107.626C53.8164 107.242 53.0902 106.866 52.3608 106.497L48.3299 104.512L52.009 96.0356L63.5671 101.053L62.8886 102.616L52.2332 97.9905L52.8675 97.7949L50.1344 104.091L49.8126 103.507L53.0825 105.135C54.0614 105.613 54.9803 106.108 55.8393 106.62C56.7047 107.118 57.4314 107.634 58.0192 108.168C58.6135 108.687 59.0228 109.231 59.247 109.8C59.4566 110.362 59.4276 110.951 59.16 111.567C59.0836 111.743 58.9893 111.92 58.8771 112.099C58.7713 112.262 58.6518 112.437 58.5186 112.623Z" fill="black"/>
<path d="M61.2332 87.427C61.9851 86.0327 62.8555 85.1347 63.8444 84.7331C64.8407 84.3172 65.9123 84.4111 67.0592 85.0147C68.2485 85.6407 68.9531 86.5178 69.1729 87.646C69.4002 88.7601 69.1155 90.0567 68.3189 91.5359L65.928 96.0272L54.778 90.1588L55.5716 88.6509L59.4582 90.6965L61.2332 87.427ZM67.1273 91.0173C67.6855 89.9912 67.8901 89.1044 67.741 88.3569C67.5853 87.5879 67.0897 86.9835 66.2543 86.5439C65.419 86.1042 64.6723 86.0457 64.0143 86.3684C63.3421 86.6836 62.7232 87.3614 62.1576 88.4017L60.5838 91.2889L65.5535 93.9045L67.1273 91.0173Z" fill="black"/>
<path d="M77.12 76.9518L69.0587 77.8615L69.1335 76.2168L78.2262 75.2664L77.12 76.9518ZM72.0497 84.6764L61.5161 77.7625L62.4511 76.3379L72.9848 83.2519L72.0497 84.6764ZM68.0001 80.6116L66.7761 79.8083L69.0018 76.4175L70.2257 77.2208L68.0001 80.6116ZM70.0151 76.6232L68.9452 77.8158L66.481 70.1983L67.495 68.6534L70.0151 76.6232Z" fill="black"/>
<path d="M83.003 69.8435C82.1982 70.7551 81.269 71.3967 80.2152 71.7684C79.1601 72.1174 78.0873 72.1842 76.997 71.9687C75.8947 71.7426 74.8758 71.2165 73.9402 70.3906C72.9926 69.554 72.3443 68.6082 71.9952 67.553C71.6462 66.4979 71.5854 65.4305 71.8129 64.3508C72.0404 63.271 72.5619 62.2694 73.3772 61.3458C74.2032 60.4102 75.1377 59.7626 76.1809 59.4029C77.2346 59.0313 78.3014 58.9592 79.3811 59.1867C80.4714 59.4023 81.4903 59.9283 82.4379 60.7648C83.3735 61.5908 84.0218 62.5366 84.3829 63.6024C84.7425 64.6455 84.8093 65.7183 84.5832 66.8205C84.3451 67.9122 83.8183 68.9199 83.003 69.8435ZM81.8695 68.8428C82.4731 68.1591 82.8579 67.421 83.0239 66.6285C83.178 65.8255 83.1115 65.0304 82.8245 64.2435C82.536 63.4339 82.026 62.7062 81.2943 62.0603C80.5506 61.4037 79.7652 60.9879 78.9382 60.8126C78.1217 60.6254 77.3306 60.6633 76.5648 60.9264C75.787 61.1788 75.1016 61.6409 74.5086 62.3126C73.9156 62.9843 73.5421 63.7217 73.3881 64.5248C73.222 65.3173 73.2772 66.113 73.5537 66.9119C73.8301 67.7109 74.3402 68.4386 75.0838 69.0952C75.8155 69.7411 76.6009 70.157 77.4399 70.3428C78.267 70.518 79.0694 70.4794 79.8472 70.227C80.613 69.9639 81.2871 69.5025 81.8695 68.8428Z" fill="black"/>
<path d="M95.6567 57.8822L88.8087 48.559L89.4268 48.6708L85.2294 51.7538L84.3485 50.5546L93.4203 43.8912L94.3012 45.0905L90.1038 48.1735L90.182 47.5503L97.0301 56.8735L95.6567 57.8822Z" fill="black"/>
<path d="M107.087 50.635C106.022 51.2219 104.931 51.5127 103.813 51.5074C102.702 51.4803 101.67 51.1815 100.716 50.611C99.7545 50.0265 98.9725 49.1878 98.3702 48.0948C97.7601 46.9878 97.4686 45.8787 97.4956 44.7677C97.5227 43.6566 97.8254 42.6312 98.4036 41.6914C98.9818 40.7516 99.8104 39.9843 100.889 39.3897C101.982 38.7873 103.081 38.4927 104.184 38.5057C105.301 38.5111 106.33 38.8029 107.27 39.3811C108.223 39.9516 109.005 40.7903 109.615 41.8973C110.218 42.9903 110.509 44.0994 110.49 45.2244C110.477 46.3278 110.178 47.3602 109.594 48.3217C109.001 49.2693 108.166 50.0404 107.087 50.635ZM106.357 49.3108C107.156 48.8706 107.767 48.3054 108.19 47.6153C108.606 46.9112 108.812 46.1403 108.807 45.3026C108.808 44.4432 108.573 43.5861 108.102 42.7314C107.623 41.8626 107.024 41.2063 106.304 40.7625C105.599 40.3109 104.841 40.0799 104.032 40.0694C103.214 40.0449 102.413 40.2488 101.629 40.6813C100.844 41.1138 100.244 41.6821 99.8278 42.3862C99.4043 43.0763 99.1881 43.8441 99.179 44.6895C99.1699 45.5348 99.4047 46.3919 99.8835 47.2607C100.355 48.1155 100.954 48.7718 101.681 49.2296C102.401 49.6734 103.169 49.9076 103.987 49.9321C104.796 49.9427 105.586 49.7355 106.357 49.3108Z" fill="black"/>
<path d="M116.67 49.5478L115.804 45.0669L116.404 45.9282C116.068 46.0798 115.735 46.099 115.403 45.9857C115.085 45.8659 114.847 45.631 114.689 45.2811C114.531 44.9312 114.512 44.5975 114.631 44.2799C114.766 43.9558 114.993 43.7212 115.314 43.5762C115.65 43.4246 115.972 43.4194 116.282 43.5604C116.606 43.6948 116.84 43.9224 116.985 44.2431C117.038 44.3598 117.083 44.4797 117.122 44.6029C117.16 44.7261 117.19 44.8705 117.212 45.0361C117.234 45.2017 117.255 45.403 117.274 45.6401L117.72 49.0732L116.67 49.5478Z" fill="black"/>
<path d="M131.527 34.0863C130.944 34.6371 130.331 35.1304 129.688 35.5662C129.056 35.9815 128.393 36.3141 127.701 36.5638C126.301 37.0688 125.081 37.1518 124.04 36.8129C122.994 36.4589 122.229 35.6122 121.746 34.2727L120.345 30.3896L121.926 29.8195L123.294 33.6123C123.62 34.5153 124.157 35.0867 124.907 35.3264C125.657 35.5662 126.529 35.5069 127.522 35.1486C128.124 34.9314 128.729 34.6281 129.337 34.2387C129.939 33.8342 130.525 33.3593 131.094 32.814L131.527 34.0863ZM133.2 39.147L128.924 27.2947L130.527 26.7165L134.803 38.5688L133.2 39.147Z" fill="black"/>
<path d="M142.599 36.0202L139.125 24.9865L139.674 25.2917L134.706 26.8561L134.259 25.4368L144.995 22.0556L145.442 23.4749L140.475 25.0393L140.75 24.4746L144.225 35.5084L142.599 36.0202Z" fill="black"/>
<path d="M156.467 31.98C155.291 32.2887 154.162 32.3038 153.08 32.0254C152.009 31.7275 151.081 31.1853 150.296 30.3989C149.506 29.597 148.953 28.5925 148.636 27.3854C148.316 26.1628 148.304 25.0162 148.602 23.9455C148.9 22.8747 149.444 21.9544 150.235 21.1846C151.025 20.4147 152.016 19.8734 153.208 19.5606C154.415 19.2438 155.552 19.2267 156.618 19.5091C157.701 19.7876 158.627 20.322 159.396 21.1125C160.182 21.8989 160.735 22.9033 161.056 24.1259C161.373 25.3331 161.384 26.4797 161.09 27.5659C160.808 28.6326 160.265 29.5606 159.464 30.35C158.658 31.1239 157.659 31.6673 156.467 31.98ZM156.083 30.5176C156.966 30.286 157.696 29.8875 158.276 29.3219C158.851 28.7408 159.239 28.0435 159.439 27.2301C159.65 26.3971 159.632 25.5086 159.384 24.5646C159.133 23.6051 158.712 22.8222 158.123 22.2159C157.549 21.6056 156.871 21.1963 156.089 20.9881C155.302 20.7644 154.475 20.7663 153.609 20.9938C152.742 21.2212 152.021 21.6255 151.446 22.2066C150.866 22.7722 150.469 23.4638 150.253 24.2813C150.038 25.0987 150.056 25.9872 150.308 26.9468C150.556 27.8908 150.976 28.6737 151.569 29.2954C152.159 29.9017 152.846 30.3167 153.633 30.5404C154.415 30.7486 155.232 30.7409 156.083 30.5176Z" fill="black"/>
<path d="M177.344 27.9158C176.044 28.0929 174.866 27.9789 173.81 27.5738C172.751 27.1529 171.88 26.5046 171.195 25.629C170.509 24.7375 170.081 23.6735 169.913 22.4369C169.744 21.2003 169.857 20.0708 170.25 19.0483C170.66 18.0237 171.288 17.1792 172.134 16.5149C172.993 15.8326 174.002 15.4126 175.159 15.2549C176.332 15.0951 177.408 15.2231 178.385 15.639C179.375 16.0369 180.198 16.6837 180.853 17.5795C181.506 18.4595 181.918 19.5257 182.088 20.7781C182.099 20.8574 182.103 20.9456 182.1 21.0429C182.111 21.1222 182.123 21.2094 182.136 21.3045L171.268 22.7851L171.096 21.5248L181.06 20.1673L180.463 20.7574C180.339 19.8537 180.032 19.0801 179.541 18.4365C179.063 17.775 178.464 17.2914 177.745 16.9858C177.025 16.6801 176.229 16.5867 175.357 16.7055C174.501 16.8221 173.759 17.1251 173.131 17.6143C172.503 18.1035 172.048 18.7307 171.765 19.496C171.481 20.2612 171.402 21.1036 171.528 22.0231L171.563 22.2847C171.693 23.2359 172.013 24.0481 172.525 24.7212C173.05 25.3763 173.714 25.8591 174.515 26.1698C175.33 26.4625 176.221 26.5429 177.188 26.4112C177.949 26.3075 178.636 26.0766 179.249 25.7186C179.878 25.3583 180.393 24.8684 180.793 24.2487L181.893 25.213C181.429 25.9545 180.801 26.5568 180.008 27.0201C179.231 27.4812 178.343 27.7797 177.344 27.9158Z" fill="black"/>
<path d="M194.652 25.1978L193.828 14.9348L187.776 15.4204L187.857 18.231C187.893 19.0788 187.903 19.9126 187.889 20.7324C187.89 21.5509 187.831 22.3101 187.71 23.01C187.605 23.6926 187.418 24.2614 187.149 24.7163C186.879 25.1553 186.508 25.4259 186.034 25.5281L184.311 25.3534C184.807 25.3297 185.199 25.1216 185.489 24.7292C185.777 24.3208 185.983 23.7826 186.106 23.1147C186.229 22.4467 186.297 21.6948 186.31 20.8591C186.322 20.0074 186.316 19.1411 186.294 18.2601L186.125 14.0601L195.408 13.3153L196.35 25.0615L194.652 25.1978ZM184.147 29.9171L183.785 25.3956L198.258 24.2342L198.621 28.7557L197.018 28.8843L196.774 25.8461L185.506 26.7502L185.75 29.7885L184.147 29.9171Z" fill="black"/>
<path d="M201.468 25.5461L201.012 12.9544L202.715 12.8928L203.077 22.8942L211.134 12.5883L212.645 12.5337L213.1 25.1254L211.397 25.187L211.035 15.1616L203.003 25.4906L201.468 25.5461Z" fill="black"/>
<path d="M218.071 25.0019L218.081 12.4019L219.809 12.4033L225.513 22.0798L224.793 22.0793L230.609 12.4119L232.193 12.4131L232.183 25.0131L230.623 25.0119L230.631 14.3559L230.943 14.5001L225.512 23.4718L224.744 23.4712L219.279 14.3949L219.639 14.3232L219.631 25.0032L218.071 25.0019Z" fill="black"/>
<path d="M249.686 25.6266C248.439 25.5786 247.33 25.2637 246.36 24.6819C245.406 24.0848 244.668 23.2958 244.145 22.3149C243.623 21.3181 243.386 20.1962 243.434 18.9491C243.483 17.686 243.806 16.5856 244.402 15.6479C244.999 14.7101 245.795 13.9883 246.791 13.4822C247.803 12.9768 248.933 12.7481 250.18 12.7961C251.251 12.8374 252.211 13.0824 253.058 13.5314C253.905 13.9803 254.561 14.63 255.024 15.4805L253.72 16.2949C253.313 15.6388 252.796 15.1465 252.168 14.8181C251.54 14.4897 250.85 14.311 250.099 14.2821C249.204 14.2476 248.388 14.4244 247.653 14.8123C246.918 15.1843 246.328 15.7301 245.884 16.4495C245.44 17.169 245.199 18.0243 245.161 19.0156C245.123 20.0069 245.298 20.8782 245.685 21.6297C246.072 22.3811 246.618 22.9786 247.321 23.422C248.025 23.8494 248.825 24.0803 249.72 24.1148C250.472 24.1437 251.173 24.0186 251.824 23.7395C252.475 23.4603 253.029 23.0173 253.485 22.4104L254.722 23.3227C254.195 24.119 253.492 24.7164 252.612 25.1148C251.733 25.4972 250.757 25.6678 249.686 25.6266Z" fill="black"/>
<path d="M266.246 26.3302L266.404 23.5506L266.358 23.0913L266.621 18.4428C266.682 17.3725 266.425 16.5326 265.851 15.9231C265.293 15.3144 264.422 14.9766 263.24 14.9095C262.426 14.8632 261.643 14.955 260.893 15.1849C260.143 15.4147 259.499 15.7388 258.963 16.157L258.268 14.8436C258.938 14.3367 259.728 13.9649 260.639 13.7282C261.551 13.4754 262.502 13.3772 263.492 13.4334C265.122 13.5259 266.353 14.0044 267.185 14.869C268.034 15.7185 268.412 16.9659 268.319 18.6112L267.875 26.4227L266.246 26.3302ZM261.902 26.2038C260.96 26.1503 260.145 25.9518 259.46 25.6084C258.791 25.2499 258.288 24.7887 257.952 24.2247C257.616 23.6448 257.469 22.9954 257.51 22.2765C257.547 21.6216 257.732 21.0391 258.065 20.5292C258.416 20.0042 258.951 19.6019 259.672 19.3224C260.41 19.0277 261.378 18.9144 262.576 18.9824L266.913 19.2286L266.841 20.4985L262.552 20.2551C261.338 20.1862 260.479 20.3537 259.976 20.7578C259.488 21.1629 259.226 21.6848 259.19 22.3238C259.149 23.0427 259.396 23.6336 259.93 24.0966C260.465 24.5597 261.235 24.8198 262.242 24.8769C263.2 24.9313 264.035 24.7624 264.746 24.37C265.475 23.9627 266.022 23.3527 266.389 22.5402L266.706 23.7361C266.339 24.5486 265.742 25.1798 264.915 25.6296C264.105 26.0804 263.1 26.2718 261.902 26.2038Z" fill="black"/>
<path d="M272.293 26.6945L273.241 14.1303L274.964 14.2604L279.932 24.3349L279.214 24.2807L285.734 15.0734L287.313 15.1926L286.365 27.7569L284.809 27.6395L285.611 17.0137L285.912 17.1808L279.827 25.723L279.061 25.6652L274.288 16.207L274.652 16.1623L273.848 26.812L272.293 26.6945Z" fill="black"/>
<path d="M291.317 28.1855L292.49 15.6402L294.187 15.799L293.255 25.7635L302.574 16.5837L304.08 16.7245L302.906 29.2697L301.209 29.111L302.144 19.1226L292.846 28.3285L291.317 28.1855Z" fill="black"/>
</svg>
