<svg width="331" height="144" viewBox="0 0 331 144" fill="none" xmlns="http://www.w3.org/2000/svg">
<path d="M19.9709 115.821L21.6868 115.467L25.0807 131.92L23.3649 132.274L19.9709 115.821ZM13.0696 134.398L11.3302 134.757L7.93628 118.303L9.67566 117.944L13.0696 134.398ZM21.9633 124.648L11.3155 126.845L11.0003 125.317L21.6482 123.12L21.9633 124.648Z" fill="black"/>
<path d="M38.7896 128.769L38.1503 126.06L37.9755 125.633L36.9063 121.101C36.6601 120.058 36.175 119.325 35.451 118.904C34.7425 118.48 33.8121 118.403 32.6598 118.675C31.8656 118.863 31.1415 119.173 30.4877 119.607C29.8338 120.041 29.3091 120.534 28.9137 121.088L27.8741 120.026C28.3721 119.35 29.024 118.769 29.83 118.283C30.6322 117.781 31.5161 117.416 32.4816 117.188C34.0699 116.814 35.3861 116.922 36.4299 117.514C37.4857 118.087 38.2028 119.176 38.5813 120.78L40.378 128.395L38.7896 128.769ZM34.5892 129.884C33.6704 130.101 32.8336 130.142 32.0786 130.008C31.3355 129.854 30.7224 129.555 30.2393 129.11C29.7525 128.649 29.4265 128.069 29.2611 127.368C29.1105 126.73 29.1225 126.118 29.2971 125.535C29.4836 124.932 29.8827 124.394 30.4944 123.921C31.118 123.428 32.0138 123.044 33.1817 122.769L37.4096 121.771L37.7017 123.009L33.5206 123.996C32.337 124.275 31.5613 124.68 31.1933 125.211C30.8409 125.738 30.7382 126.313 30.8852 126.936C31.0505 127.636 31.4553 128.133 32.0996 128.424C32.7438 128.716 33.5565 128.747 34.5375 128.515C35.4719 128.295 36.2242 127.895 36.7947 127.317C37.377 126.719 37.7283 125.979 37.8487 125.095L38.4925 126.152C38.3721 127.035 37.9795 127.81 37.3148 128.476C36.6657 129.139 35.7571 129.608 34.5892 129.884Z" fill="black"/>
<path d="M49.4619 126.185C48.2557 126.506 47.1034 126.531 46.005 126.259C44.9179 125.969 43.9805 125.431 43.1928 124.647C42.401 123.848 41.8449 122.845 41.5245 121.639C41.2 120.417 41.1851 119.271 41.4798 118.199C41.7746 117.127 42.3238 116.204 43.1274 115.427C43.9465 114.647 44.9591 114.096 46.1652 113.776C47.2013 113.501 48.1903 113.453 49.1321 113.633C50.0739 113.814 50.8914 114.242 51.5844 114.919L50.5768 116.08C49.995 115.573 49.3558 115.254 48.6592 115.125C47.9626 114.995 47.2509 115.027 46.5241 115.22C45.6581 115.45 44.9306 115.859 44.3415 116.446C43.7484 117.017 43.3453 117.712 43.1322 118.53C42.9191 119.348 42.9399 120.237 43.1946 121.195C43.4493 122.154 43.8721 122.936 44.4631 123.54C45.0542 124.145 45.751 124.556 46.5537 124.773C47.3522 124.974 48.1845 124.96 49.0505 124.73C49.7773 124.537 50.4109 124.212 50.9514 123.753C51.4919 123.295 51.8908 122.709 52.1481 121.995L53.5993 122.504C53.3294 123.42 52.8324 124.197 52.1083 124.837C51.3801 125.461 50.4979 125.91 49.4619 126.185Z" fill="black"/>
<path d="M60.8695 122.865L57.5252 111.791L58.0705 112.102L53.0849 113.608L52.6547 112.183L63.4301 108.929L63.8603 110.354L58.8747 111.859L59.1564 111.298L62.5007 122.372L60.8695 122.865Z" fill="black"/>
<path d="M75.6839 118.219C74.5372 118.624 73.4132 118.732 72.3118 118.544C71.2201 118.335 70.2506 117.871 69.4031 117.152C68.5503 116.418 67.9162 115.463 67.501 114.286C67.0805 113.094 66.9745 111.952 67.1832 110.86C67.3919 109.769 67.8584 108.807 68.5827 107.974C69.307 107.142 70.2501 106.521 71.4119 106.111C72.5888 105.695 73.7204 105.585 74.8067 105.778C75.9081 105.967 76.875 106.423 77.7074 107.147C78.5549 107.866 79.1889 108.822 79.6095 110.014C80.0247 111.191 80.1306 112.332 79.9273 113.439C79.7337 114.525 79.2698 115.495 78.5358 116.348C77.7964 117.185 76.8458 117.809 75.6839 118.219ZM75.1809 116.793C76.0409 116.49 76.7363 116.032 77.2672 115.421C77.7926 114.794 78.1215 114.068 78.2539 113.24C78.396 112.393 78.3047 111.509 77.9799 110.589C77.6499 109.653 77.1663 108.907 76.5291 108.352C75.907 107.791 75.1975 107.439 74.4005 107.296C73.5982 107.138 72.7746 107.208 71.9296 107.506C71.0847 107.804 70.3994 108.266 69.874 108.893C69.3431 109.504 69.004 110.226 68.8566 111.059C68.7092 111.891 68.8005 112.775 69.1306 113.711C69.4553 114.631 69.9389 115.377 70.5814 115.947C71.2186 116.503 71.9383 116.86 72.7406 117.018C73.5376 117.161 74.351 117.086 75.1809 116.793Z" fill="black"/>
<path d="M94.1961 110.796L92.3999 106.631L92.829 106.838L88.9062 108.53C87.4223 109.17 86.1222 109.347 85.006 109.062C83.8898 108.777 83.0656 108.017 82.5334 106.783C81.9631 105.46 81.9867 104.283 82.6042 103.25C83.2153 102.202 84.2701 101.355 85.7687 100.709L90.6391 98.6087L95.6286 110.179L94.1961 110.796ZM85.7335 114.446L86.9872 108.626L88.6181 107.922L87.4304 113.714L85.7335 114.446ZM92.2004 106.168L89.5963 100.13L90.0824 100.469L86.402 102.056C85.3295 102.519 84.5808 103.086 84.1558 103.757C83.7455 104.422 83.7399 105.217 84.1391 106.143C84.8804 107.861 86.3456 108.249 88.5347 107.305L92.3253 105.67L92.2004 106.168Z" fill="black"/>
<path d="M108.107 102.08L108.003 102.667L102.202 92.6582L103.677 91.8037L109.477 101.812L108.854 101.646L114.938 98.1203L114.772 98.7434L108.972 88.7349L110.446 87.8805L116.764 98.7819L101.689 107.519L95.3708 96.6176L96.8451 95.7631L102.646 105.772L102.043 105.594L108.107 102.08ZM118.439 101.001L116.826 98.2189L117.429 98.3968L115.207 99.6845L114.461 98.3971L117.7 96.5197L119.83 100.195L118.439 101.001Z" fill="black"/>
<path d="M128.206 89.9334L126.461 87.7636L126.12 87.4534L123.202 83.8246C122.531 82.9891 121.777 82.5374 120.943 82.4694C120.12 82.3914 119.248 82.7233 118.325 83.4652C117.689 83.9765 117.169 84.5687 116.766 85.2418C116.363 85.9149 116.102 86.5865 115.984 87.2564L114.588 86.7463C114.746 85.9213 115.084 85.1159 115.602 84.33C116.11 83.5317 116.75 82.8218 117.524 82.2002C118.796 81.1777 120.03 80.7087 121.227 80.7933C122.427 80.8554 123.543 81.5286 124.575 82.813L129.478 88.9109L128.206 89.9334ZM124.895 92.7487C124.16 93.3402 123.422 93.738 122.683 93.9422C121.946 94.1238 121.264 94.118 120.636 93.9246C119.999 93.7187 119.454 93.3352 119.003 92.774C118.592 92.2628 118.34 91.7061 118.246 91.1042C118.154 90.4797 118.283 89.8222 118.631 89.1317C118.982 88.4187 119.624 87.6863 120.56 86.9344L123.945 84.2126L124.742 85.204L121.394 87.8957C120.446 88.6576 119.921 89.3573 119.817 89.9947C119.726 90.6221 119.881 91.1852 120.282 91.684C120.734 92.2452 121.313 92.5186 122.02 92.5045C122.727 92.4903 123.473 92.1674 124.259 91.5358C125.007 90.9343 125.514 90.2497 125.78 89.4819C126.048 88.6917 126.046 87.8721 125.774 87.0231L126.81 87.6991C127.082 88.548 127.061 89.4164 126.749 90.3042C126.448 91.182 125.831 91.9968 124.895 92.7487Z" fill="black"/>
<path d="M139.318 79.4666L136.117 76.2528L136.593 76.2877L133.566 79.3024C132.421 80.4429 131.277 81.0855 130.134 81.2303C128.991 81.3751 127.945 80.9714 126.997 80.0191C125.981 78.9989 125.57 77.895 125.764 76.7074C125.948 75.5085 126.618 74.3332 127.774 73.1815L131.532 69.4385L140.424 78.3657L139.318 79.4666ZM132.789 85.9704L131.816 80.0966L133.075 78.8433L134.098 84.6662L132.789 85.9704ZM135.762 75.8957L131.121 71.2366L131.698 71.3735L128.858 74.2019C128.031 75.0262 127.542 75.8285 127.394 76.6088C127.257 77.3779 127.544 78.1195 128.255 78.8337C129.576 80.16 131.081 79.982 132.77 78.2996L135.695 75.3865L135.762 75.8957Z" fill="black"/>
<path d="M159.082 60.2703L151.706 58.4852L152.204 56.9161L160.605 58.9132L159.082 60.2703ZM150.006 60.8351L149.032 59.742L152.007 57.0917L152.981 58.1847L150.006 60.8351ZM152.968 57.5211L151.59 58.4276L150.574 50.9746L151.954 49.7452L152.968 57.5211ZM147.936 70.2011L146.413 71.5582L145.395 62.9831L146.993 62.6843L147.936 70.2011ZM154.136 64.6769L152.864 65.8105L144.482 56.403L145.754 55.2694L154.136 64.6769ZM149.522 61.2662L146.566 63.9006L145.592 62.8075L148.548 60.1731L149.522 61.2662ZM145.926 63.7957L138.3 61.9113L139.68 60.6819L146.949 62.5627L145.926 63.7957Z" fill="black"/>
<path d="M161.461 58.6286L155.135 47.7316L156.609 46.8761L161.633 55.5315L163.894 42.6469L165.202 41.8879L171.528 52.7849L170.054 53.6404L165.017 44.9643L162.789 57.8575L161.461 58.6286Z" fill="black"/>
<path d="M175.462 50.9655L170.83 39.2477L176.008 37.2009C177.332 36.6774 178.474 36.5186 179.433 36.7246C180.406 36.9246 181.087 37.5157 181.475 38.4978C181.852 39.4501 181.778 40.3307 181.255 41.1397C180.726 41.9338 179.866 42.5661 178.676 43.0367L178.803 42.4445C180.202 41.8916 181.331 41.7461 182.192 42.0081C183.053 42.2701 183.677 42.8921 184.065 43.8742C184.465 44.886 184.405 45.8217 183.884 46.6812C183.373 47.5199 182.343 48.2452 180.796 48.8569L175.462 50.9655ZM176.508 49.1068L180.235 47.6335C181.232 47.2394 181.922 46.7861 182.304 46.2737C182.695 45.7404 182.75 45.1167 182.468 44.4025C182.185 43.6883 181.749 43.2586 181.158 43.1136C180.567 42.9686 179.774 43.0931 178.777 43.4872L174.893 45.0224L176.508 49.1068ZM174.425 43.8394L177.952 42.4455C178.86 42.0867 179.484 41.642 179.825 41.1116C180.18 40.5753 180.229 39.9797 179.97 39.325C179.711 38.6703 179.272 38.2764 178.651 38.1431C178.046 38.004 177.289 38.1138 176.382 38.4726L172.855 39.8666L174.425 43.8394Z" fill="black"/>
<path d="M195.503 43.9813L194.715 41.3113L194.517 40.8943L193.199 36.4288C192.895 35.4007 192.37 34.6964 191.624 34.3161C190.893 33.9313 189.96 33.9065 188.824 34.2417C188.042 34.4727 187.336 34.8229 186.707 35.2921C186.078 35.7614 185.582 36.2833 185.217 36.8579L184.121 35.8554C184.581 35.1525 185.199 34.5361 185.977 34.0062C186.75 33.4609 187.613 33.0479 188.564 32.767C190.129 32.305 191.45 32.3407 192.525 32.8742C193.61 33.3878 194.387 34.4348 194.853 36.0154L197.068 43.5193L195.503 43.9813ZM191.371 45.3263C190.465 45.5936 189.632 45.6811 188.871 45.5888C188.12 45.4767 187.492 45.2119 186.985 44.7943C186.473 44.3614 186.116 43.7997 185.912 43.1091C185.726 42.48 185.704 41.8692 185.846 41.2767C185.999 40.6644 186.368 40.1051 186.952 39.5989C187.548 39.0728 188.421 38.6398 189.572 38.3001L193.738 37.0702L194.098 38.2902L189.978 39.5065C188.812 39.8507 188.06 40.298 187.722 40.8482C187.399 41.3939 187.328 41.9737 187.509 42.5875C187.713 43.278 188.145 43.7512 188.804 44.007C189.464 44.2627 190.277 44.2479 191.243 43.9625C192.164 43.6908 192.893 43.2503 193.431 42.6412C193.979 42.0122 194.289 41.2534 194.36 40.3649L195.062 41.384C194.99 42.2726 194.641 43.068 194.014 43.7702C193.403 44.4679 192.522 44.9866 191.371 45.3263Z" fill="black"/>
<path d="M209.216 40.6176L208.215 36.1935L208.598 36.4758L204.432 37.4187C202.856 37.7754 201.545 37.711 200.5 37.2257C199.455 36.7403 198.784 35.8422 198.488 34.5314C198.17 33.1269 198.409 31.9736 199.206 31.0716C199.999 30.1539 201.191 29.515 202.783 29.1548L207.956 27.9841L210.737 40.2733L209.216 40.6176ZM200.227 42.6518L202.528 37.1605L204.26 36.7685L202.029 42.2439L200.227 42.6518ZM208.103 35.7019L206.652 29.2881L207.067 29.7108L203.158 30.5955C202.019 30.8533 201.179 31.273 200.638 31.8548C200.113 32.433 199.961 33.2137 200.184 34.1968C200.597 36.0226 201.966 36.6725 204.291 36.1463L208.318 35.2351L208.103 35.7019Z" fill="black"/>
<path d="M221.859 38.1121L219.694 25.6994L225.18 24.7429C226.582 24.4983 227.733 24.5738 228.63 24.9696C229.543 25.3626 230.09 26.0792 230.272 27.1195C230.447 28.1283 230.197 28.9759 229.521 29.6622C228.842 30.3328 227.872 30.778 226.611 30.9979L226.856 30.4437C228.337 30.1853 229.473 30.2715 230.263 30.7023C231.053 31.133 231.538 31.8685 231.72 32.9088C231.907 33.9806 231.658 34.8848 230.974 35.6211C230.304 36.339 229.149 36.8409 227.51 37.1267L221.859 38.1121ZM223.259 36.5036L227.208 35.8151C228.264 35.6309 229.031 35.3266 229.509 34.9022C230 34.4592 230.18 33.8594 230.048 33.1028C229.916 32.3463 229.576 31.8372 229.027 31.5756C228.477 31.3141 227.675 31.2754 226.619 31.4595L222.505 32.1769L223.259 36.5036ZM222.286 30.9238L226.022 30.2724C226.984 30.1047 227.685 29.7957 228.126 29.3452C228.583 28.8919 228.751 28.3186 228.63 27.625C228.509 26.9315 228.158 26.4567 227.578 26.2006C227.013 25.9418 226.25 25.8962 225.288 26.0639L221.553 26.7153L222.286 30.9238Z" fill="black"/>
<path d="M248.51 33.7873L246.644 21.3262L248.329 21.0739L250.195 33.535L248.51 33.7873ZM240.394 26.7514C241.963 26.5327 243.21 26.7019 244.135 27.2591C245.06 27.8164 245.618 28.7358 245.81 30.0175C246.009 31.3467 245.719 32.4337 244.939 33.2784C244.16 34.1232 242.946 34.6608 241.298 34.8914L236.357 35.6068L234.491 23.1457L236.177 22.8934L236.827 27.237L240.394 26.7514ZM240.987 33.6274C242.16 33.4679 243.004 33.107 243.519 32.5446C244.047 31.9641 244.241 31.207 244.101 30.2734C243.961 29.3398 243.566 28.7032 242.917 28.3636C242.265 28.0082 241.345 27.9115 240.156 28.0733L237.015 28.495L237.847 34.0491L240.987 33.6274Z" fill="black"/>
<path d="M254.986 32.8718L253.389 20.3734L264.626 18.9377L266.222 31.4361L264.532 31.6521L263.066 20.1774L263.552 20.5749L254.839 21.6882L255.21 21.1812L256.676 32.6559L254.986 32.8718Z" fill="black"/>
<path d="M277.545 30.2487C276.241 30.3931 275.066 30.2496 274.02 29.8181C272.973 29.3706 272.118 28.7007 271.456 27.8081C270.792 26.8997 270.391 25.8252 270.254 24.5848C270.116 23.3444 270.257 22.2181 270.676 21.2058C271.111 20.1917 271.76 19.3633 272.623 18.7205C273.499 18.06 274.518 17.6655 275.679 17.5369C276.856 17.4066 277.927 17.5616 278.894 18.0019C279.874 18.4246 280.68 19.0919 281.313 20.0039C281.943 20.8999 282.328 21.9761 282.467 23.2324C282.476 23.312 282.478 23.4003 282.472 23.4975C282.481 23.577 282.491 23.6645 282.501 23.7599L271.6 24.967L271.46 23.7027L281.455 22.596L280.842 23.1709C280.742 22.2644 280.454 21.4833 279.979 20.8276C279.518 20.1543 278.932 19.6558 278.22 19.3322C277.508 19.0086 276.715 18.8952 275.84 18.992C274.981 19.0871 274.232 19.3713 273.592 19.8446C272.952 20.3179 272.481 20.9335 272.179 21.6914C271.876 22.4493 271.776 23.2894 271.878 24.2117L271.907 24.4741C272.013 25.4283 272.313 26.2483 272.808 26.934C273.316 27.6021 273.967 28.1015 274.76 28.4322C275.568 28.7452 276.456 28.8481 277.427 28.7406C278.19 28.6561 278.883 28.4426 279.505 28.1C280.143 27.7557 280.669 27.2789 281.085 26.6694L282.161 27.6611C281.678 28.3906 281.034 28.977 280.23 29.4202C279.442 29.8616 278.547 30.1378 277.545 30.2487Z" fill="black"/>
<path d="M294.317 23.0502C293.615 23.4396 292.899 23.766 292.169 24.0296C291.453 24.2757 290.729 24.4341 289.997 24.505C288.516 24.6484 287.313 24.4272 286.388 23.8416C285.462 23.24 284.93 22.2305 284.793 20.8131L284.395 16.7043L286.067 16.5425L286.456 20.5558C286.548 21.5113 286.928 22.1979 287.596 22.6155C288.263 23.0332 289.122 23.1912 290.173 23.0895C290.81 23.0278 291.471 22.8835 292.157 22.6564C292.84 22.4134 293.525 22.098 294.211 21.7101L294.317 23.0502ZM294.687 28.3673L293.473 15.8258L295.169 15.6617L296.383 28.2031L294.687 28.3673Z" fill="black"/>
<path d="M310.531 26.9694L304.839 21.1891L306.179 20.2326L312.54 26.7993L310.531 26.9694ZM301.324 27.7492L300.261 15.1941L301.959 15.0503L303.022 27.6054L301.324 27.7492ZM302.022 22.054L301.898 20.5952L305.94 20.2529L306.064 21.7117L302.022 22.054ZM306.404 21.1771L304.805 21.0716L309.277 14.4306L311.118 14.2746L306.404 21.1771Z" fill="black"/>
<path d="M323.446 25.9863L323.242 23.2098L323.137 22.7604L322.795 18.1169C322.716 17.0478 322.352 16.2484 321.704 15.7186C321.071 15.1876 320.164 14.9656 318.984 15.0525C318.17 15.1124 317.406 15.3051 316.692 15.6304C315.978 15.9557 315.382 16.3605 314.904 16.8449L314.045 15.6327C314.643 15.0432 315.379 14.5719 316.251 14.2189C317.122 13.85 318.053 13.629 319.042 13.5562C320.669 13.4364 321.952 13.751 322.89 14.5002C323.842 15.2323 324.379 16.4201 324.5 18.0636L325.074 25.8665L323.446 25.9863ZM319.123 26.425C318.182 26.4943 317.349 26.4032 316.624 26.1517C315.915 25.8831 315.356 25.4911 314.949 24.9756C314.541 24.4441 314.311 23.8193 314.258 23.1013C314.21 22.447 314.318 21.8455 314.582 21.2966C314.861 20.7305 315.34 20.2621 316.019 19.8913C316.712 19.5033 317.657 19.2653 318.854 19.1772L323.186 18.8582L323.28 20.1268L318.995 20.4422C317.783 20.5315 316.953 20.8092 316.506 21.2753C316.075 21.7402 315.883 22.2918 315.93 22.93C315.983 23.6481 316.304 24.202 316.894 24.5917C317.485 24.9814 318.282 25.1392 319.288 25.0652C320.245 24.9947 321.051 24.7188 321.705 24.2375C322.375 23.739 322.838 23.0631 323.096 22.2099L323.566 23.3545C323.307 24.2077 322.798 24.9111 322.036 25.4645C321.291 26.0167 320.32 26.3369 319.123 26.425Z" fill="black"/>
</svg>
