<svg width="344" height="266" viewBox="0 0 344 266" fill="none" xmlns="http://www.w3.org/2000/svg">
<path d="M47.5973 251.536L32.6785 259.26L29.4673 253.058C28.6507 251.481 28.3375 250.076 28.5276 248.842C28.6962 247.602 29.4056 246.658 30.656 246.011C31.8921 245.371 33.0542 245.318 34.1424 245.854C35.2163 246.397 36.1174 247.372 36.8457 248.779L36.1253 248.692C35.2646 247.03 34.9366 245.596 35.1415 244.391C35.3463 243.186 36.081 242.256 37.3456 241.601C38.6243 240.939 39.8543 240.879 41.0356 241.42C42.1953 241.955 43.2422 243.124 44.1765 244.929L47.5973 251.536ZM45.5343 250.631L42.9191 245.58C42.2643 244.315 41.5333 243.478 40.726 243.067C39.9188 242.656 39.0249 242.705 38.0445 243.212C37.0784 243.712 36.5371 244.407 36.4209 245.296C36.3046 246.185 36.5738 247.262 37.2286 248.526L39.8439 253.577L45.5343 250.631ZM38.629 254.206L36.2676 249.646C35.6717 248.495 34.9882 247.731 34.2172 247.356C33.4247 246.973 32.5737 247.018 31.6644 247.488C30.755 247.959 30.2349 248.625 30.1039 249.486C29.9513 250.339 30.173 251.342 30.7689 252.493L33.1304 257.053L38.629 254.206Z" fill="black"/>
<path d="M37.2128 227.999L33.1366 235.013L31.8608 233.972L36.5194 226.106L37.2128 227.999ZM40.3909 236.675L28.5597 241.009L27.9736 239.409L39.8048 235.075L40.3909 236.675ZM34.7131 237.503L33.3384 238.006L31.9434 234.198L33.318 233.694L34.7131 237.503ZM32.7127 233.507L33.0322 235.077L25.4476 232.513L24.812 230.778L32.7127 233.507Z" fill="black"/>
<path d="M36.5651 226.397L35.1208 226.665C35.1069 226.553 35.1028 226.446 35.1086 226.345C35.0947 226.233 35.0773 226.138 35.0563 226.061C34.9222 225.567 34.63 225.223 34.1798 225.03C33.7254 224.822 33.1684 224.725 32.5089 224.738C31.8493 224.751 31.1251 224.832 30.3363 224.979C29.532 225.131 28.7298 225.291 27.9297 225.458L23.5418 226.425L21.1217 217.508L33.2819 214.208L33.7282 215.852L22.5177 218.895L22.891 218.346L24.6887 224.97L24.0723 224.715L27.6432 223.945C28.7058 223.706 29.7326 223.518 30.7235 223.382C31.7102 223.23 32.5999 223.18 33.3927 223.23C34.1813 223.264 34.8407 223.434 35.3707 223.737C35.8854 224.045 36.2307 224.524 36.4067 225.172C36.457 225.357 36.4939 225.555 36.5175 225.764C36.5369 225.957 36.5528 226.169 36.5651 226.397Z" fill="black"/>
<path d="M30.6612 201.86L27.9319 202.409L27.4991 202.569L22.9345 203.488C21.8836 203.699 21.1357 204.16 20.691 204.869C20.2431 205.563 20.1359 206.491 20.3694 207.651C20.5303 208.451 20.8167 209.185 21.2285 209.853C21.6404 210.521 22.1164 211.062 22.6565 211.475L21.561 212.479C20.9015 211.959 20.3422 211.288 19.8831 210.467C19.4083 209.648 19.0731 208.753 18.8775 207.78C18.5556 206.18 18.7078 204.868 19.3343 203.845C19.9418 202.809 21.0534 202.128 22.669 201.803L30.3393 200.26L30.6612 201.86ZM31.6357 206.095C31.8219 207.02 31.8354 207.858 31.6762 208.608C31.4982 209.346 31.1788 209.948 30.7181 210.417C30.2416 210.888 29.6505 211.194 28.9447 211.336C28.3015 211.466 27.6912 211.434 27.1136 211.24C26.5172 211.033 25.9927 210.616 25.5401 209.989C25.0687 209.35 24.7147 208.442 24.478 207.265L23.6212 203.007L24.8682 202.756L25.7155 206.967C25.9554 208.16 26.3344 208.948 26.8526 209.334C27.3676 209.703 27.9388 209.825 28.5662 209.699C29.2721 209.557 29.7816 209.169 30.0946 208.535C30.4077 207.9 30.4648 207.089 30.266 206.101C30.0766 205.16 29.7024 204.395 29.1432 203.805C28.5651 203.203 27.8367 202.828 26.9579 202.678L28.0351 202.07C28.9139 202.219 29.6753 202.637 30.3193 203.324C30.9602 203.995 31.399 204.918 31.6357 206.095Z" fill="black"/>
<path d="M27.6091 187.692L17.4146 189.134L18.2652 195.146L21.0657 194.896C21.9098 194.808 22.7414 194.747 23.5606 194.712C24.3775 194.661 25.1389 194.675 25.8448 194.753C26.5325 194.817 27.1116 194.969 27.5819 195.21C28.0364 195.453 28.329 195.807 28.4596 196.273L28.3893 198.004C28.3357 197.511 28.1043 197.132 27.6951 196.866C27.27 196.603 26.7204 196.431 26.0462 196.348C25.3721 196.266 24.6175 196.243 23.7825 196.281C22.9316 196.32 22.0672 196.378 21.1891 196.454L17.007 196.876L15.7026 187.655L27.3704 186.005L27.6091 187.692ZM32.9546 197.892L28.4633 198.527L26.4293 184.15L30.9206 183.515L31.1459 185.107L28.1279 185.534L29.7114 196.726L32.7293 196.3L32.9546 197.892Z" fill="black"/>
<path d="M26.5415 168.486L13.9837 169.515L13.8444 167.817L26.4023 166.787L26.5415 168.486ZM18.9797 176.113C18.8661 174.533 19.1182 173.3 19.7359 172.415C20.3536 171.53 21.3083 171.034 22.6 170.928C23.9395 170.818 25.0046 171.18 25.7955 172.014C26.5863 172.849 27.0417 174.095 27.1618 175.755L27.5459 180.732L14.988 181.762L14.8488 180.064L19.2261 179.705L18.9797 176.113ZM25.8799 175.981C25.7991 174.799 25.4953 173.933 24.9685 173.383C24.4245 172.817 23.682 172.573 22.7412 172.65C21.8004 172.727 21.1388 173.079 20.7567 173.704C20.3586 174.331 20.2006 175.242 20.2827 176.44L20.4938 179.601L26.091 179.142L25.8799 175.981Z" fill="black"/>
<path d="M26.1956 162.106L13.6009 162.47L13.44 156.904C13.3989 155.481 13.6384 154.354 14.1586 153.522C14.6783 152.675 15.466 152.236 16.5215 152.205C17.5451 152.176 18.3481 152.545 18.9305 153.312C19.4969 154.08 19.7986 155.104 19.8356 156.383L19.3221 156.062C19.2787 154.559 19.5267 153.447 20.0661 152.727C20.6055 152.007 21.403 151.632 22.4586 151.602C23.5461 151.57 24.4053 151.945 25.0362 152.728C25.6506 153.494 25.9818 154.709 26.0299 156.372L26.1956 162.106ZM24.8044 160.489L24.6885 156.483C24.6576 155.412 24.4663 154.609 24.1147 154.075C23.7467 153.525 23.1788 153.261 22.4111 153.284C21.6435 153.306 21.0909 153.57 20.7533 154.076C20.4158 154.582 20.2625 155.371 20.2935 156.442L20.4142 160.616L24.8044 160.489ZM19.1427 160.653L19.0331 156.863C19.0049 155.887 18.7995 155.149 18.4169 154.648C18.0338 154.13 17.4904 153.882 16.7867 153.902C16.083 153.923 15.5628 154.202 15.2262 154.74C14.8892 155.262 14.7347 156.011 14.7629 156.986L14.8725 160.777L19.1427 160.653Z" fill="black"/>
<path d="M25.9992 139.663L23.2155 139.622L22.7585 139.687L18.103 139.617C17.0311 139.601 16.2027 139.893 15.6176 140.492C15.0328 141.075 14.7315 141.959 14.7138 143.143C14.7016 143.959 14.8259 144.736 15.0868 145.476C15.3478 146.216 15.6984 146.846 16.1387 147.364L14.8553 148.113C14.3209 147.465 13.9165 146.691 13.642 145.791C13.3514 144.89 13.2136 143.944 13.2285 142.952C13.2529 141.321 13.6797 140.071 14.5088 139.203C15.3222 138.319 16.5527 137.89 18.2006 137.914L26.0237 138.032L25.9992 139.663ZM26.0541 144.009C26.0399 144.953 25.8756 145.774 25.5611 146.474C25.2308 147.157 24.7909 147.678 24.2415 148.038C23.676 148.398 23.0333 148.572 22.3134 148.561C21.6575 148.551 21.0678 148.39 20.5444 148.079C20.0053 147.75 19.581 147.232 19.2716 146.523C18.9464 145.798 18.7929 144.836 18.8108 143.636L18.876 139.293L20.1478 139.312L20.0834 143.607C20.0652 144.823 20.2685 145.674 20.6932 146.161C21.1182 146.631 21.6507 146.871 22.2906 146.881C23.0105 146.891 23.5907 146.62 24.031 146.067C24.4713 145.513 24.6991 144.732 24.7142 143.725C24.7286 142.765 24.525 141.938 24.1033 141.243C23.6659 140.533 23.0337 140.011 22.2066 139.679L23.3882 139.312C24.2153 139.645 24.8708 140.215 25.3548 141.022C25.839 141.813 26.0721 142.809 26.0541 144.009Z" fill="black"/>
<path d="M26.6065 128.662C26.5283 129.972 26.1882 131.106 25.586 132.064C24.9679 133.02 24.163 133.75 23.1714 134.252C22.1637 134.752 21.037 134.966 19.7912 134.891C18.5455 134.817 17.4591 134.488 16.5323 133.903C15.6064 133.303 14.8996 132.524 14.4119 131.565C13.9091 130.589 13.6925 129.518 13.7621 128.352C13.8327 127.171 14.1666 126.141 14.764 125.263C15.3464 124.368 16.1404 123.686 17.1461 123.217C18.1359 122.747 19.2617 122.55 20.5234 122.625C20.6033 122.63 20.6906 122.643 20.7855 122.665C20.8654 122.67 20.9532 122.675 21.049 122.681L20.3955 133.629L19.1258 133.553L19.725 123.515L20.188 124.216C19.2776 124.162 18.4592 124.313 17.7326 124.67C16.991 125.011 16.4005 125.505 15.9612 126.152C15.5219 126.799 15.276 127.561 15.2235 128.44C15.1721 129.302 15.3255 130.089 15.6838 130.799C16.0421 131.51 16.5691 132.078 17.265 132.505C17.9608 132.931 18.7719 133.171 19.6983 133.227L19.9618 133.243C20.9201 133.3 21.779 133.143 22.5384 132.771C23.2829 132.383 23.8852 131.826 24.3452 131.1C24.7903 130.357 25.0419 129.499 25.1 128.524C25.1458 127.758 25.0525 127.039 24.82 126.368C24.5886 125.681 24.2076 125.081 23.6772 124.568L24.8365 123.676C25.4739 124.275 25.943 125.008 26.2439 125.876C26.5457 126.727 26.6666 127.656 26.6065 128.662Z" fill="black"/>
<path d="M27.1007 119.412L14.5879 117.932L14.7909 116.216L25.0669 111.679L24.9823 112.394L16.0595 105.49L16.2456 103.917L28.7584 105.398L28.5751 106.947L17.9929 105.695L18.1725 105.402L26.4493 111.843L26.359 112.606L16.7071 116.974L16.6779 116.608L27.2839 117.863L27.1007 119.412Z" fill="black"/>
<path d="M31.7261 85.8924L21.6807 83.6347L20.3492 89.559L23.0573 90.3152C23.8777 90.5324 24.6771 90.7694 25.4557 91.0264C26.2378 91.2678 26.9452 91.5498 27.5779 91.8724C28.1984 92.1758 28.6861 92.5232 29.041 92.9145C29.3802 93.3024 29.5284 93.7374 29.4856 94.2198L28.8075 95.8139C28.9319 95.3335 28.8496 94.8968 28.5607 94.5039C28.2563 94.1075 27.8033 93.7515 27.2019 93.436C26.6004 93.1204 25.9026 92.8324 25.1084 92.5719C24.2986 92.3079 23.4696 92.056 22.6216 91.8162L18.5606 90.7313L20.6026 81.6459L32.0998 84.2299L31.7261 85.8924ZM33.1173 97.3237L28.6917 96.3291L31.8757 82.1625L36.3013 83.1571L35.9487 84.726L32.9748 84.0576L30.4961 95.0865L33.4699 95.7549L33.1173 97.3237Z" fill="black"/>
<path d="M38.7036 81.138C38.5245 81.7022 38.2612 82.2146 37.9137 82.6751C37.571 83.1203 37.1586 83.4678 36.6765 83.7177L35.7035 82.5781C36.0901 82.3651 36.4153 82.1073 36.6791 81.8049C36.9629 81.4921 37.175 81.1146 37.3154 80.6723C37.4847 80.1386 37.4774 79.6327 37.2933 79.1546C37.1294 78.6662 36.7294 78.128 36.0934 77.5401L34.5787 76.2035L34.3851 75.9406L24.8122 67.4647L25.3202 65.8633L36.8626 76.1475C37.5339 76.7298 38.033 77.2994 38.3599 77.8564C38.6916 78.398 38.874 78.9343 38.907 79.4651C38.9552 80.0008 38.8874 80.5584 38.7036 81.138ZM35.5105 76.5998L21.4009 78.2165L21.938 76.5236L34.5175 75.1265L35.5105 76.5998Z" fill="black"/>
<path d="M40.138 59.7102L40.3685 60.26L30.0755 54.9805L30.8531 53.4643L41.1462 58.7438L40.5323 58.9414L43.7416 52.6844L43.9392 53.2983L33.6462 48.0189L34.4239 46.5027L45.6351 52.2531L37.6831 67.7567L26.4719 62.0063L27.2495 60.4901L37.5426 65.7695L36.9397 65.9458L40.138 59.7102Z" fill="black"/>
<path d="M50.8825 53.4362C50.4528 53.8433 49.9744 54.1643 49.4474 54.399C48.9321 54.6228 48.403 54.7273 47.8601 54.7126L47.5603 53.2445C48.0016 53.2452 48.4109 53.177 48.7881 53.0401C49.1879 52.9037 49.5562 52.676 49.8931 52.3569C50.2996 51.9718 50.538 51.5255 50.6083 51.0181C50.7013 50.5113 50.6117 49.8468 50.3397 49.0246L49.6611 47.1218L49.6189 46.7981L45.344 34.7479L46.5636 33.5925L51.6867 48.1782C51.9924 49.0126 52.1535 49.7527 52.17 50.3982C52.1981 51.0328 52.0982 51.5903 51.8701 52.0708C51.6531 52.5629 51.3239 53.0181 50.8825 53.4362ZM50.2847 47.9196L37.1552 42.5056L38.4445 41.2842L50.1288 46.1498L50.2847 47.9196Z" fill="black"/>
<path d="M63.009 39.1328L57.2862 27.9075L58.8043 27.1335L63.3499 36.0497L66.3092 23.3074L67.6563 22.6207L73.3791 33.846L71.861 34.62L67.3046 25.6824L64.3775 38.4352L63.009 39.1328Z" fill="black"/>
<path d="M89.3616 26.7403L89.0932 27.2726L86.4227 16.0171L88.0806 15.6237L90.7512 26.8792L90.2022 26.5408L97.0443 24.9174L96.7059 25.4664L94.0353 14.2109L95.6933 13.8175L98.6021 26.0771L81.6487 30.0996L78.7399 17.8399L80.3979 17.4465L83.0685 28.7021L82.5429 28.3581L89.3616 26.7403ZM99.5662 28.685L98.8237 25.5559L99.3493 25.8998L96.8507 26.4927L96.5072 25.0449L100.15 24.1805L101.131 28.3138L99.5662 28.685Z" fill="black"/>
<path d="M108.158 25.5626C106.848 25.6455 105.681 25.4468 104.657 24.9665C103.632 24.4703 102.809 23.7608 102.19 22.8381C101.569 21.8994 101.219 20.8073 101.141 19.5618C101.062 18.3163 101.256 17.1979 101.722 16.2064C102.204 15.214 102.891 14.417 103.783 13.8155C104.69 13.197 105.726 12.8508 106.892 12.7771C108.073 12.7023 109.136 12.9076 110.081 13.3929C111.04 13.8612 111.814 14.5657 112.403 15.5064C112.991 16.4312 113.324 17.5243 113.404 18.7857C113.409 18.8656 113.407 18.9539 113.397 19.0507C113.402 19.1306 113.407 19.2184 113.413 19.3142L102.467 20.0069L102.387 18.7375L112.423 18.1023L111.784 18.6478C111.727 17.7376 111.476 16.9438 111.032 16.2665C110.604 15.5722 110.041 15.0467 109.345 14.6899C108.649 14.3332 107.862 14.1826 106.984 14.2381C106.122 14.2927 105.36 14.5413 104.699 14.984C104.037 15.4266 103.538 16.0194 103.2 16.7622C102.862 17.505 102.723 18.3395 102.781 19.2656L102.798 19.5291C102.858 20.4872 103.12 21.3204 103.581 22.0286C104.058 22.7199 104.685 23.2494 105.461 23.617C106.253 23.9677 107.136 24.1123 108.11 24.0506C108.876 24.0021 109.578 23.8214 110.216 23.5085C110.869 23.1946 111.418 22.7431 111.862 22.1539L112.89 23.195C112.373 23.9011 111.703 24.4565 110.879 24.8614C110.071 25.2652 109.164 25.499 108.158 25.5626Z" fill="black"/>
<path d="M117.2 25.0776L117.71 12.488L129.029 12.9466L128.519 25.5363L126.816 25.4673L127.285 13.9088L127.698 14.3819L118.921 14.0263L119.371 13.5881L118.903 25.1466L117.2 25.0776Z" fill="black"/>
<path d="M138.379 26.6334C137.171 26.4937 136.113 26.0976 135.206 25.445C134.317 24.7785 133.649 23.9362 133.203 22.9182C132.759 21.8843 132.609 20.7475 132.752 19.5078C132.897 18.2522 133.303 17.1797 133.97 16.2904C134.636 15.4011 135.478 14.7414 136.494 14.3112C137.51 13.8811 138.63 13.7368 139.854 13.8784C141.094 14.0218 142.159 14.4188 143.05 15.0695C143.957 15.722 144.626 16.5563 145.056 17.5725C145.502 18.5904 145.652 19.7272 145.507 20.9829C145.364 22.2226 144.958 23.2951 144.289 24.2003C143.639 25.0914 142.797 25.7591 141.763 26.2033C140.731 26.6315 139.603 26.7749 138.379 26.6334ZM138.553 25.1314C139.458 25.2362 140.284 25.1303 141.029 24.8138C141.777 24.4815 142.391 23.9727 142.873 23.2875C143.373 22.5883 143.678 21.7539 143.791 20.7844C143.905 19.7989 143.797 18.9167 143.469 18.1378C143.156 17.3608 142.673 16.7331 142.019 16.2549C141.368 15.7607 140.597 15.4622 139.707 15.3593C138.817 15.2564 137.998 15.3711 137.251 15.7034C136.506 16.0199 135.884 16.5198 135.386 17.2032C134.889 17.8865 134.583 18.7209 134.469 19.7063C134.357 20.6758 134.464 21.558 134.791 22.3528C135.12 23.1318 135.61 23.7683 136.261 24.2624C136.915 24.7406 137.678 25.0303 138.553 25.1314Z" fill="black"/>
<path d="M150.909 28.227L152.777 16.8107L153.129 17.3305L147.99 16.4897L148.23 15.0212L159.338 16.8385L159.098 18.307L153.958 17.4661L154.458 17.0859L152.591 28.5021L150.909 28.227Z" fill="black"/>
<path d="M169.218 31.6091L165.354 24.4762L166.906 23.9292L171.195 32.0031L169.218 31.6091ZM160.156 29.8031L162.619 17.4461L164.29 17.7792L161.827 30.1362L160.156 29.8031ZM162.407 24.5253L162.693 23.0895L166.671 23.8823L166.385 25.318L162.407 24.5253ZM166.86 24.8988L165.353 24.3538L171.492 19.2145L173.305 19.5757L166.86 24.8988Z" fill="black"/>
<path d="M172.968 37.3043C172.392 37.1665 171.862 36.9409 171.378 36.6275C170.909 36.3179 170.533 35.9316 170.249 35.4688L171.315 34.4161C171.556 34.7863 171.836 35.092 172.157 35.3333C172.489 35.5938 172.881 35.7781 173.332 35.8862C173.877 36.0165 174.381 35.9727 174.844 35.7546C175.32 35.5558 175.828 35.118 176.368 34.4412L177.592 32.834L177.84 32.622L185.603 22.4621L187.237 22.8532L177.813 35.1079C177.28 35.8195 176.748 36.3584 176.216 36.7247C175.7 37.0946 175.178 37.3152 174.651 37.3865C174.12 37.4733 173.559 37.4459 172.968 37.3043ZM177.264 33.792L174.633 19.8359L176.36 20.2494L178.662 32.6952L177.264 33.792Z" fill="black"/>
<path d="M193.984 37.7939L197.833 25.7961L203.134 27.4968C204.49 27.9318 205.474 28.5329 206.085 29.3001C206.711 30.0723 206.862 30.9611 206.54 31.9666C206.227 32.9417 205.612 33.5761 204.694 33.8699C203.782 34.1484 202.716 34.0922 201.497 33.7012L201.971 33.3239C203.403 33.7833 204.369 34.3872 204.868 35.1354C205.367 35.8837 205.456 36.7606 205.133 37.7661C204.801 38.8021 204.161 39.4874 203.214 39.822C202.286 40.1463 201.03 40.0542 199.446 39.546L193.984 37.7939ZM195.971 37.02L199.788 38.2442C200.809 38.5716 201.629 38.6585 202.25 38.5047C202.891 38.3406 203.328 37.8929 203.563 37.1616C203.797 36.4303 203.732 35.8213 203.368 35.3346C203.003 34.8479 202.31 34.4409 201.289 34.1134L197.313 32.8379L195.971 37.02ZM197.701 31.6267L201.312 32.7849C202.241 33.083 203.006 33.1351 203.606 32.9411C204.221 32.7519 204.636 32.3222 204.851 31.6518C205.066 30.9815 204.976 30.3981 204.581 29.9016C204.201 29.4101 203.546 29.0152 202.617 28.7171L199.006 27.5588L197.701 31.6267Z" fill="black"/>
<path d="M212.22 44.2407C211.09 43.7905 210.173 43.132 209.467 42.2653C208.783 41.3897 208.358 40.4023 208.194 39.3032C208.035 38.1892 208.186 37.0526 208.649 35.8933C209.117 34.7191 209.788 33.7898 210.664 33.1054C211.54 32.4209 212.524 32.0038 213.617 31.8539C214.71 31.704 215.829 31.8571 216.974 32.3133C218.133 32.7753 219.058 33.4368 219.748 34.2976C220.453 35.1643 220.881 36.1442 221.031 37.2374C221.196 38.3365 221.044 39.4732 220.576 40.6473C220.114 41.8066 219.442 42.7359 218.561 43.4352C217.7 44.1256 216.712 44.5502 215.598 44.709C214.49 44.853 213.364 44.6969 212.22 44.2407ZM212.779 42.8362C213.627 43.1739 214.451 43.2872 215.253 43.1763C216.061 43.0506 216.787 42.7199 217.431 42.1843C218.096 41.6398 218.609 40.9142 218.971 40.0075C219.338 39.086 219.465 38.2064 219.351 37.3687C219.252 36.5369 218.949 35.8049 218.443 35.1727C217.944 34.5256 217.277 34.0362 216.445 33.7044C215.613 33.3727 214.793 33.2697 213.985 33.3954C213.183 33.5064 212.452 33.8267 211.793 34.3563C211.134 34.886 210.621 35.6116 210.254 36.5331C209.892 37.4397 209.766 38.3193 209.874 39.1719C209.988 40.0096 210.295 40.752 210.794 41.3991C211.3 42.0313 211.962 42.5104 212.779 42.8362Z" fill="black"/>
<path d="M219.717 47.0445L220.474 45.7859C220.567 45.85 220.65 45.9176 220.722 45.9889C220.815 46.053 220.897 46.1028 220.969 46.1383C221.428 46.3655 221.879 46.3746 222.321 46.1654C222.779 45.9634 223.221 45.6111 223.648 45.1086C224.076 44.6062 224.496 44.0107 224.908 43.3222C225.328 42.6194 225.74 41.9131 226.145 41.2032L228.331 37.2774L236.611 41.3789L231.018 52.6696L229.491 51.9132L234.647 41.5042L234.811 42.1476L228.66 39.1008L229.26 38.8088L227.469 41.9925C226.943 42.9461 226.402 43.839 225.847 44.6711C225.306 45.5103 224.754 46.21 224.191 46.7703C223.642 47.3376 223.079 47.7189 222.5 47.9143C221.928 48.0953 221.341 48.0367 220.739 47.7384C220.567 47.6531 220.395 47.55 220.222 47.429C220.065 47.3151 219.896 47.187 219.717 47.0445Z" fill="black"/>
<path d="M243.778 58.0798L243.219 58.2865L248.934 48.229L250.416 49.0709L244.701 59.1284L244.53 58.5066L250.643 61.9809L250.022 62.152L255.737 52.0945L257.218 52.9364L250.993 63.8912L235.844 55.2826L242.07 44.3279L243.551 45.1697L237.836 55.2273L237.685 54.6174L243.778 58.0798Z" fill="black"/>
<path d="M261.778 69.1328C260.567 68.6266 259.609 67.9313 258.904 67.0467C258.205 66.1473 257.782 65.1468 257.636 64.0451C257.495 62.9286 257.666 61.7947 258.148 60.6433C258.629 59.4919 259.299 58.5752 260.156 57.8932C261.028 57.2174 261.997 56.8075 263.063 56.6636C264.15 56.5112 265.233 56.6602 266.31 57.1108C267.403 57.5676 268.265 58.2228 268.896 59.0765C269.549 59.9217 269.93 60.8963 270.041 62.0005C270.157 63.0898 269.972 64.2176 269.484 65.3838C269.454 65.4576 269.412 65.5357 269.36 65.6181C269.33 65.6919 269.296 65.7731 269.259 65.8616L259.14 61.6304L259.63 60.4568L268.908 64.3363L268.093 64.542C268.445 63.7006 268.572 62.878 268.475 62.0742C268.399 61.2618 268.127 60.5414 267.662 59.9131C267.196 59.2849 266.557 58.801 265.745 58.4615C264.948 58.1282 264.155 58.0133 263.366 58.1169C262.577 58.2206 261.867 58.5304 261.235 59.0466C260.603 59.5627 260.108 60.2488 259.749 61.105L259.648 61.3485C259.277 62.2342 259.142 63.0968 259.242 63.9363C259.363 64.7673 259.69 65.5197 260.223 66.1936C260.777 66.8589 261.505 67.3798 262.405 67.7563C263.114 68.0526 263.823 68.2018 264.533 68.204C265.258 68.2123 265.95 68.0507 266.609 67.7192L267.069 69.1081C266.293 69.512 265.446 69.7128 264.528 69.7104C263.624 69.7142 262.707 69.5217 261.778 69.1328Z" fill="black"/>
<path d="M278.285 74.0621C277.279 73.8667 276.416 73.5277 275.695 73.0452C274.99 72.5657 274.428 71.9349 274.009 71.1527C273.591 70.3704 273.337 69.4571 273.246 68.4127C273.159 67.3525 273.244 66.1628 273.5 64.8435C273.729 63.6656 274.039 62.6582 274.43 61.8214C274.824 60.9689 275.28 60.2589 275.798 59.6913C276.315 59.1237 276.876 58.6704 277.48 58.3314C278.103 57.9798 278.746 57.73 279.411 57.5821C280.094 57.4215 280.779 57.3347 281.466 57.3216L287.278 57.1068L287.258 58.7167L281.799 58.8778C281.454 58.8922 281.032 58.9242 280.534 58.974C280.051 59.0268 279.538 59.1472 278.996 59.3352C278.47 59.5263 277.954 59.8335 277.448 60.2567C276.942 60.6799 276.485 61.2675 276.078 62.0197C275.69 62.7592 275.381 63.7179 275.152 64.8958C275.104 65.1471 275.072 65.3528 275.057 65.5129C275.045 65.6574 275.03 65.8175 275.012 65.9933C275.013 66.1565 274.991 66.3966 274.946 66.7138L274.334 65.9593C274.693 65.0348 275.209 64.2711 275.88 63.6681C276.555 63.0495 277.33 62.6217 278.208 62.3848C279.104 62.1352 280.047 62.1066 281.036 62.299C282.183 62.5219 283.155 62.9717 283.952 63.6484C284.753 64.3093 285.319 65.1284 285.651 66.1056C285.998 67.0859 286.058 68.1572 285.833 69.3194C285.61 70.466 285.143 71.4428 284.431 72.2499C283.736 73.0601 282.859 73.6312 281.8 73.9632C280.744 74.2795 279.573 74.3125 278.285 74.0621ZM278.743 72.7088C279.623 72.8798 280.438 72.8346 281.19 72.5733C281.945 72.2962 282.578 71.8488 283.089 71.231C283.616 70.6163 283.964 69.877 284.132 69.0132C284.297 68.1651 284.247 67.373 283.982 66.6371C283.734 65.9041 283.308 65.2835 282.706 64.7753C282.107 64.2513 281.36 63.9023 280.465 63.7283C279.585 63.5573 278.771 63.5946 278.023 63.8402C277.277 64.0701 276.644 64.4768 276.123 65.0601C275.618 65.6464 275.281 66.3715 275.113 67.2354C274.945 68.0992 274.983 68.9133 275.225 69.6776C275.483 70.445 275.911 71.0985 276.507 71.6382C277.118 72.1809 277.864 72.5378 278.743 72.7088Z" fill="black"/>
<path d="M294.255 76.4733C293.016 76.3184 291.939 75.9095 291.022 75.2466C290.123 74.5697 289.455 73.7203 289.019 72.6982C288.584 71.6602 288.445 70.5221 288.6 69.2837C288.756 68.0295 289.172 66.9609 289.847 66.0778C290.522 65.1947 291.377 64.5439 292.413 64.1252C293.465 63.7086 294.61 63.5777 295.849 63.7326C296.912 63.8657 297.847 64.1922 298.653 64.7123C299.458 65.2323 300.056 65.9359 300.445 66.823L299.075 67.5224C298.726 66.8338 298.253 66.2989 297.655 65.9178C297.058 65.5367 296.386 65.2995 295.64 65.2061C294.751 65.0949 293.923 65.201 293.157 65.5244C292.393 65.832 291.759 66.3251 291.255 67.0037C290.751 67.6824 290.437 68.5139 290.314 69.4982C290.191 70.4826 290.29 71.3657 290.612 72.1476C290.933 72.9296 291.425 73.5716 292.088 74.0738C292.753 74.5601 293.53 74.8588 294.419 74.97C295.165 75.0634 295.874 74.9989 296.547 74.7767C297.22 74.5545 297.809 74.1607 298.316 73.5951L299.47 74.6103C298.877 75.3584 298.125 75.8932 297.214 76.2146C296.305 76.5201 295.319 76.6064 294.255 76.4733Z" fill="black"/>
<path d="M305.004 77.5461L306.128 66.0328L306.513 66.5286L301.33 66.0228L301.474 64.5418L312.677 65.635L312.533 67.116L307.349 66.6102L307.823 66.1983L306.7 77.7116L305.004 77.5461Z" fill="black"/>
<path d="M315.201 78.4984L316.183 65.9368L321.735 66.371C323.154 66.482 324.25 66.8406 325.021 67.4465C325.808 68.0538 326.16 68.8838 326.078 69.9366C325.998 70.9574 325.545 71.7165 324.72 72.2136C323.896 72.6948 322.846 72.8855 321.57 72.7857L321.944 72.3094C323.443 72.4267 324.522 72.792 325.18 73.4051C325.839 74.0183 326.127 74.8513 326.044 75.9041C325.959 76.9888 325.494 77.803 324.649 78.3468C323.822 78.8758 322.578 79.0755 320.919 78.9457L315.201 78.4984ZM316.957 77.2876L320.952 77.6002C322.021 77.6838 322.84 77.5793 323.408 77.2868C323.994 76.9795 324.317 76.4431 324.377 75.6774C324.437 74.9117 324.233 74.3341 323.766 73.9445C323.299 73.5549 322.531 73.3183 321.462 73.2347L317.299 72.909L316.957 77.2876ZM317.398 71.6409L321.179 71.9366C322.152 72.0127 322.908 71.8873 323.447 71.5603C324.002 71.2346 324.307 70.7209 324.362 70.019C324.417 69.3172 324.195 68.7702 323.696 68.3781C323.213 67.9872 322.485 67.7537 321.512 67.6776L317.732 67.3819L317.398 71.6409Z" fill="black"/>
<path d="M337.699 80.1029L337.875 77.3245L337.832 76.8648L338.126 72.2182C338.194 71.1483 337.943 70.3067 337.372 69.6934C336.818 69.0811 335.95 68.7375 334.768 68.6626C333.954 68.611 333.171 68.6976 332.419 68.9225C331.668 69.1474 331.022 69.4672 330.483 69.8819L329.797 68.5639C330.47 68.0615 331.263 67.6949 332.175 67.4641C333.089 67.2174 334.04 67.1255 335.03 67.1882C336.659 67.2915 337.887 67.7781 338.713 68.6481C339.557 69.5032 339.927 70.7531 339.822 72.3978L339.327 80.2061L337.699 80.1029ZM333.356 79.9478C332.414 79.8881 331.601 79.6843 330.917 79.3364C330.251 78.9735 329.751 78.5089 329.419 77.9427C329.087 77.3606 328.944 76.7102 328.989 75.9917C329.031 75.337 329.22 74.7558 329.557 74.2481C329.91 73.7254 330.449 73.3267 331.172 73.0518C331.911 72.7621 332.88 72.6551 334.078 72.7311L338.413 73.0059L338.333 74.2753L334.045 74.0035C332.832 73.9266 331.972 74.0885 331.465 74.4893C330.975 74.8911 330.709 75.4113 330.669 76.05C330.623 76.7686 330.866 77.3612 331.398 77.8277C331.929 78.2943 332.698 78.5595 333.704 78.6232C334.662 78.684 335.498 78.5205 336.212 78.1329C336.943 77.7304 337.495 77.124 337.867 76.3139L338.175 77.5119C337.803 78.322 337.203 78.9492 336.373 79.3936C335.559 79.839 334.553 80.0238 333.356 79.9478Z" fill="black"/>
</svg>
