<svg width="336" height="90" viewBox="0 0 336 90" fill="none" xmlns="http://www.w3.org/2000/svg">
<path d="M2.832 81.4999V64.6999H15.12V66.2119H4.584V71.7079H10.08C12.064 71.7079 13.568 72.1159 14.592 72.9319C15.632 73.7319 16.152 74.9159 16.152 76.4839C16.152 78.0999 15.592 79.3399 14.472 80.2039C13.368 81.0679 11.776 81.4999 9.696 81.4999H2.832ZM4.584 80.0839H9.672C11.224 80.0839 12.392 79.7879 13.176 79.1959C13.976 78.5879 14.376 77.7079 14.376 76.5559C14.376 74.2679 12.808 73.1239 9.672 73.1239H4.584V80.0839Z" fill="black"/>
<path d="M25.7949 81.6199C24.4829 81.6199 23.3309 81.3479 22.3389 80.8039C21.3469 80.2439 20.5709 79.4839 20.0109 78.5239C19.4509 77.5479 19.1709 76.4359 19.1709 75.1879C19.1709 73.9399 19.4349 72.8359 19.9629 71.8759C20.5069 70.9159 21.2429 70.1639 22.1709 69.6199C23.1149 69.0599 24.1709 68.7799 25.3389 68.7799C26.5229 68.7799 27.5709 69.0519 28.4829 69.5959C29.4109 70.1239 30.1389 70.8759 30.6669 71.8519C31.1949 72.8119 31.4589 73.9239 31.4589 75.1879C31.4589 75.2679 31.4509 75.3559 31.4349 75.4519C31.4349 75.5319 31.4349 75.6199 31.4349 75.7159H20.4669V74.4439H30.5229L29.8509 74.9479C29.8509 74.0359 29.6509 73.2279 29.2509 72.5239C28.8669 71.8039 28.3389 71.2439 27.6669 70.8439C26.9949 70.4439 26.2189 70.2439 25.3389 70.2439C24.4749 70.2439 23.6989 70.4439 23.0109 70.8439C22.3229 71.2439 21.7869 71.8039 21.4029 72.5239C21.0189 73.2439 20.8269 74.0679 20.8269 74.9959V75.2599C20.8269 76.2199 21.0349 77.0679 21.4509 77.8039C21.8829 78.5239 22.4749 79.0919 23.2269 79.5079C23.9949 79.9079 24.8669 80.1079 25.8429 80.1079C26.6109 80.1079 27.3229 79.9719 27.9789 79.6999C28.6509 79.4279 29.2269 79.0119 29.7069 78.4519L30.6669 79.5559C30.1069 80.2279 29.4029 80.7399 28.5549 81.0919C27.7229 81.4439 26.8029 81.6199 25.7949 81.6199Z" fill="black"/>
<path d="M38.7006 81.6439C39.7406 81.6439 40.6766 81.4839 41.5086 81.1639C42.3566 80.8439 43.0286 80.4039 43.5246 79.8439C44.0206 79.2679 44.2686 78.6039 44.2686 77.8519C44.2686 76.8919 43.8606 76.1319 43.0446 75.5719C42.2446 75.0119 41.1246 74.7319 39.6846 74.7319L39.6126 75.1879C40.4286 75.1879 41.1566 75.0599 41.7966 74.8039C42.4366 74.5479 42.9486 74.1879 43.3326 73.7239C43.7166 73.2599 43.9086 72.7159 43.9086 72.0919C43.9086 71.3879 43.6686 70.7879 43.1886 70.2919C42.7086 69.7799 42.0606 69.3879 41.2446 69.1159C40.4446 68.8439 39.5406 68.7239 38.5326 68.7559C37.7966 68.7559 37.0606 68.8599 36.3246 69.0679C35.6046 69.2599 34.8766 69.5479 34.1406 69.9319L34.6206 71.2519C35.2766 70.9159 35.9406 70.6679 36.6126 70.5079C37.2846 70.3319 37.9326 70.2359 38.5566 70.2199C39.2446 70.2199 39.8606 70.2999 40.4046 70.4599C40.9486 70.6199 41.3726 70.8599 41.6766 71.1799C41.9966 71.4999 42.1566 71.8839 42.1566 72.3319C42.1566 72.7479 42.0206 73.1079 41.7486 73.4119C41.4926 73.7159 41.1246 73.9479 40.6446 74.1079C40.1646 74.2679 39.6126 74.3479 38.9886 74.3479H36.9486V75.5959H39.1086C40.1646 75.5959 40.9966 75.7879 41.6046 76.1719C42.2126 76.5399 42.5166 77.0599 42.5166 77.7319C42.5166 78.1959 42.3566 78.6119 42.0366 78.9799C41.7166 79.3479 41.2686 79.6359 40.6926 79.8439C40.1166 80.0519 39.4366 80.1639 38.6526 80.1799C37.8686 80.1799 37.0766 80.0679 36.2766 79.8439C35.4766 79.6039 34.7726 79.2599 34.1646 78.8119L33.6126 80.0839C34.3006 80.6119 35.0926 81.0039 35.9886 81.2599C36.8846 81.5159 37.7886 81.6439 38.7006 81.6439Z" fill="black"/>
<path d="M51.6742 81.4999L57.0022 74.5879L56.9782 75.4279L51.9142 68.8999H53.8342L57.9862 74.2999L57.2662 74.2759L61.4182 68.8999H63.2902L58.1782 75.4999L58.2022 74.5879L63.5782 81.4999H61.6342L57.2422 75.7399L57.9142 75.8359L53.5942 81.4999H51.6742Z" fill="black"/>
<path d="M67.6535 81.4999V68.8999H69.3575V78.9079L77.7815 68.8999H79.2935V81.4999H77.5895V71.4679L69.1895 81.4999H67.6535Z" fill="black"/>
<path d="M84.7751 81.4999V68.8999H86.5031L92.2151 78.5719H91.4951L97.3031 68.8999H98.8871V81.4999H97.3271V70.8439L97.6391 70.9879L92.2151 79.9639H91.4471L85.9751 70.8919L86.3351 70.8199V81.4999H84.7751Z" fill="black"/>
<path d="M102.706 81.4999V68.8999H104.41V78.9079L112.834 68.8999H114.346V81.4999H112.642V71.4679L104.242 81.4999H102.706Z" fill="black"/>
<path d="M119.935 81.4999V68.8999H121.639V78.9079L130.063 68.8999H131.575V81.4999H129.871V71.4679L121.471 81.4999H119.935Z" fill="black"/>
<path d="M136.042 85.0039L137.098 80.5639L137.29 81.5959C136.922 81.5959 136.61 81.4759 136.354 81.2359C136.114 80.9959 135.994 80.6839 135.994 80.2999C135.994 79.9159 136.114 79.6039 136.354 79.3639C136.61 79.1239 136.914 79.0039 137.266 79.0039C137.634 79.0039 137.93 79.1319 138.154 79.3879C138.394 79.6439 138.514 79.9479 138.514 80.2999C138.514 80.4279 138.506 80.5559 138.49 80.6839C138.474 80.8119 138.442 80.9559 138.394 81.1159C138.346 81.2759 138.282 81.4679 138.202 81.6919L137.194 85.0039H136.042Z" fill="black"/>
<path d="M154.032 81.6439C155.072 81.6439 156.008 81.4839 156.84 81.1639C157.688 80.8439 158.36 80.4039 158.856 79.8439C159.352 79.2679 159.6 78.6039 159.6 77.8519C159.6 76.8919 159.192 76.1319 158.376 75.5719C157.576 75.0119 156.456 74.7319 155.016 74.7319L154.944 75.1879C155.76 75.1879 156.488 75.0599 157.128 74.8039C157.768 74.5479 158.28 74.1879 158.664 73.7239C159.048 73.2599 159.24 72.7159 159.24 72.0919C159.24 71.3879 159 70.7879 158.52 70.2919C158.04 69.7799 157.392 69.3879 156.576 69.1159C155.776 68.8439 154.872 68.7239 153.864 68.7559C153.128 68.7559 152.392 68.8599 151.656 69.0679C150.936 69.2599 150.208 69.5479 149.472 69.9319L149.952 71.2519C150.608 70.9159 151.272 70.6679 151.944 70.5079C152.616 70.3319 153.264 70.2359 153.888 70.2199C154.576 70.2199 155.192 70.2999 155.736 70.4599C156.28 70.6199 156.704 70.8599 157.008 71.1799C157.328 71.4999 157.488 71.8839 157.488 72.3319C157.488 72.7479 157.352 73.1079 157.08 73.4119C156.824 73.7159 156.456 73.9479 155.976 74.1079C155.496 74.2679 154.944 74.3479 154.32 74.3479H152.28V75.5959H154.44C155.496 75.5959 156.328 75.7879 156.936 76.1719C157.544 76.5399 157.848 77.0599 157.848 77.7319C157.848 78.1959 157.688 78.6119 157.368 78.9799C157.048 79.3479 156.6 79.6359 156.024 79.8439C155.448 80.0519 154.768 80.1639 153.984 80.1799C153.2 80.1799 152.408 80.0679 151.608 79.8439C150.808 79.6039 150.104 79.2599 149.496 78.8119L148.944 80.0839C149.632 80.6119 150.424 81.0039 151.32 81.2599C152.216 81.5159 153.12 81.6439 154.032 81.6439Z" fill="black"/>
<path d="M171.458 81.4999V78.7159L171.386 78.2599V73.6039C171.386 72.5319 171.082 71.7079 170.474 71.1319C169.882 70.5559 168.994 70.2679 167.81 70.2679C166.994 70.2679 166.218 70.4039 165.482 70.6759C164.746 70.9479 164.122 71.3079 163.61 71.7559L162.842 70.4839C163.482 69.9399 164.25 69.5239 165.146 69.2359C166.042 68.9319 166.986 68.7799 167.978 68.7799C169.61 68.7799 170.866 69.1879 171.746 70.0039C172.642 70.8039 173.09 72.0279 173.09 73.6759V81.4999H171.458ZM167.114 81.6199C166.17 81.6199 165.346 81.4679 164.642 81.1639C163.954 80.8439 163.426 80.4119 163.058 79.8679C162.69 79.3079 162.506 78.6679 162.506 77.9479C162.506 77.2919 162.658 76.6999 162.962 76.1719C163.282 75.6279 163.794 75.1959 164.498 74.8759C165.218 74.5399 166.178 74.3719 167.378 74.3719H171.722V75.6439H167.426C166.21 75.6439 165.362 75.8599 164.882 76.2919C164.418 76.7239 164.186 77.2599 164.186 77.8999C164.186 78.6199 164.466 79.1959 165.026 79.6279C165.586 80.0599 166.37 80.2759 167.378 80.2759C168.338 80.2759 169.162 80.0599 169.85 79.6279C170.554 79.1799 171.066 78.5399 171.386 77.7079L171.77 78.8839C171.45 79.7159 170.89 80.3799 170.09 80.8759C169.306 81.3719 168.314 81.6199 167.114 81.6199Z" fill="black"/>
<path d="M179.868 81.4999V69.9319L180.3 70.3879H175.092V68.8999H186.348V70.3879H181.14L181.572 69.9319V81.4999H179.868Z" fill="black"/>
<path d="M194.399 81.6199C193.183 81.6199 192.087 81.3479 191.111 80.8039C190.151 80.2439 189.391 79.4839 188.831 78.5239C188.271 77.5479 187.991 76.4359 187.991 75.1879C187.991 73.9239 188.271 72.8119 188.831 71.8519C189.391 70.8919 190.151 70.1399 191.111 69.5959C192.071 69.0519 193.167 68.7799 194.399 68.7799C195.647 68.7799 196.751 69.0519 197.711 69.5959C198.687 70.1399 199.447 70.8919 199.991 71.8519C200.551 72.8119 200.831 73.9239 200.831 75.1879C200.831 76.4359 200.551 77.5479 199.991 78.5239C199.447 79.4839 198.687 80.2439 197.711 80.8039C196.735 81.3479 195.631 81.6199 194.399 81.6199ZM194.399 80.1079C195.311 80.1079 196.119 79.9079 196.823 79.5079C197.527 79.0919 198.079 78.5159 198.479 77.7799C198.895 77.0279 199.103 76.1639 199.103 75.1879C199.103 74.1959 198.895 73.3319 198.479 72.5959C198.079 71.8599 197.527 71.2919 196.823 70.8919C196.119 70.4759 195.319 70.2679 194.423 70.2679C193.527 70.2679 192.727 70.4759 192.023 70.8919C191.319 71.2919 190.759 71.8599 190.343 72.5959C189.927 73.3319 189.719 74.1959 189.719 75.1879C189.719 76.1639 189.927 77.0279 190.343 77.7799C190.759 78.5159 191.319 79.0919 192.023 79.5079C192.727 79.9079 193.519 80.1079 194.399 80.1079Z" fill="black"/>
<path d="M217.287 81.5077C216.039 81.5354 214.914 81.2883 213.91 80.7664C212.922 80.2281 212.137 79.4854 211.556 78.538C210.974 77.5746 210.67 76.4691 210.642 75.2214C210.614 73.9577 210.869 72.8398 211.408 71.8676C211.947 70.8955 212.698 70.1266 213.661 69.5611C214.641 68.9953 215.755 68.6985 217.003 68.6709C218.074 68.6471 219.047 68.8336 219.92 69.2304C220.793 69.6271 221.486 70.2359 222.001 71.0567L220.748 71.9487C220.302 71.3184 219.756 70.8584 219.109 70.5687C218.463 70.2789 217.763 70.1424 217.012 70.159C216.116 70.1789 215.313 70.4047 214.602 70.8366C213.891 71.2525 213.336 71.8329 212.936 72.5779C212.537 73.323 212.348 74.1914 212.37 75.1831C212.392 76.1749 212.619 77.0341 213.051 77.7607C213.483 78.4873 214.064 79.0505 214.793 79.4505C215.522 79.8344 216.334 80.0165 217.23 79.9966C217.981 79.98 218.674 79.8126 219.307 79.4945C219.94 79.1764 220.466 78.7006 220.884 78.0672L222.175 78.9028C221.697 79.7296 221.031 80.3685 220.177 80.8195C219.322 81.2546 218.359 81.484 217.287 81.5077Z" fill="black"/>
<path d="M230.365 80.8998L230.303 79.4322C230.416 79.4343 230.522 79.4452 230.621 79.4651C230.734 79.4671 230.831 79.4632 230.91 79.4533C231.418 79.39 231.799 79.149 232.053 78.7304C232.323 78.3098 232.498 77.772 232.578 77.1172C232.658 76.4623 232.68 75.734 232.644 74.9322C232.607 74.1146 232.562 73.2979 232.508 72.4822L232.168 68.0019L241.337 66.8596L242.895 79.3629L241.204 79.5736L239.768 68.0467L240.259 68.4934L233.447 69.342L233.787 68.7676L234.047 72.4114C234.134 73.497 234.176 74.5399 234.171 75.5401C234.183 76.5383 234.108 77.4264 233.947 78.2043C233.802 78.9802 233.541 79.6092 233.166 80.0913C232.789 80.5575 232.267 80.8321 231.6 80.9152C231.41 80.939 231.209 80.9478 230.999 80.9418C230.804 80.9337 230.593 80.9198 230.365 80.8998Z" fill="black"/>
<path d="M249.706 78.3599L246.422 66.1952L248.068 65.7512L249.481 70.9878L253.188 69.9872L253.595 71.4933L249.887 72.4939L251.351 77.9159L249.706 78.3599ZM260.21 75.6491C259.052 75.9618 257.938 75.9806 256.869 75.7056C255.812 75.4109 254.896 74.871 254.12 74.0859C253.341 73.2854 252.788 72.2827 252.463 71.0778C252.134 69.8574 252.107 68.713 252.382 67.6444C252.657 66.5758 253.179 65.6559 253.949 64.8847C254.734 64.1094 255.706 63.5654 256.864 63.2527C258.023 62.94 259.129 62.9233 260.182 63.2025C261.235 63.4817 262.149 64.0139 262.925 64.799C263.7 65.5841 264.252 66.5868 264.582 67.8071C264.907 69.012 264.934 70.1565 264.663 71.2405C264.388 72.3091 263.868 73.2367 263.102 74.0233C262.333 74.7945 261.369 75.3365 260.21 75.6491ZM259.822 74.2125C260.672 73.9832 261.375 73.5781 261.93 72.9972C262.486 72.4163 262.861 71.7185 263.056 70.9037C263.246 70.0734 263.214 69.1872 262.96 68.2449C262.701 67.2872 262.283 66.5051 261.705 65.8988C261.127 65.2924 260.454 64.8858 259.685 64.6789C258.913 64.4565 258.102 64.46 257.252 64.6893C256.418 64.9144 255.715 65.3195 255.144 65.9046C254.584 66.47 254.207 67.1602 254.012 67.975C253.818 68.7898 253.85 69.676 254.108 70.6338C254.363 71.5761 254.781 72.3581 255.363 72.9799C255.941 73.5862 256.616 74.0006 257.389 74.2229C258.177 74.4411 258.988 74.4377 259.822 74.2125Z" fill="black"/>
<path d="M276.757 69.345C275.833 69.7872 274.938 70.0295 274.072 70.0719C273.219 70.1074 272.392 69.9358 271.59 69.557C270.788 69.1783 270.039 68.5965 269.344 67.8117C268.642 67.0125 268.001 66.0068 267.421 64.7946C266.902 63.7122 266.551 62.7186 266.366 61.8137C266.174 60.8944 266.117 60.0525 266.195 59.2881C266.272 58.5237 266.452 57.8255 266.735 57.1934C267.025 56.54 267.393 55.9558 267.838 55.4411C268.291 54.9049 268.79 54.4268 269.334 54.0067L273.872 50.3703L274.816 51.6746L270.529 55.0577C270.26 55.275 269.941 55.5522 269.57 55.8894C269.213 56.2196 268.874 56.6217 268.551 57.0957C268.242 57.5627 268.011 58.1169 267.857 58.7584C267.703 59.3998 267.686 60.1438 267.808 60.9904C267.937 61.8156 268.26 62.7693 268.779 63.8517C268.889 64.0826 268.986 64.2667 269.07 64.4041C269.146 64.5271 269.23 64.6645 269.32 64.8164C269.418 64.9469 269.543 65.153 269.696 65.4347L268.756 65.1931C268.493 64.2368 268.451 63.3165 268.631 62.4322C268.804 61.5334 269.172 60.7275 269.735 60.0143C270.306 59.2798 271.046 58.6949 271.955 58.2596C273.009 57.7553 274.057 57.5371 275.101 57.605C276.138 57.6586 277.08 57.9789 277.929 58.5659C278.792 59.1461 279.48 59.9701 279.991 61.038C280.495 62.0915 280.702 63.1542 280.613 64.2261C280.537 65.2912 280.173 66.2725 279.521 67.1702C278.862 68.0535 277.94 68.7784 276.757 69.345ZM276.319 67.9849C277.127 67.598 277.755 67.0756 278.203 66.4177C278.644 65.7454 278.885 65.0088 278.927 64.208C278.984 63.4003 278.823 62.5996 278.443 61.8059C278.07 61.0266 277.557 60.4202 276.907 59.9869C276.27 59.5466 275.559 59.3018 274.772 59.2526C273.979 59.1889 273.171 59.3539 272.348 59.7478C271.54 60.1347 270.909 60.6499 270.454 61.2933C269.992 61.9223 269.726 62.6263 269.656 63.4051C269.6 64.1771 269.761 64.9599 270.141 65.7536C270.521 66.5473 271.037 67.1788 271.687 67.6479C272.352 68.1102 273.084 68.3803 273.885 68.4585C274.699 68.5297 275.511 68.3718 276.319 67.9849Z" fill="black"/>
<path d="M291.143 60.8539C290.156 61.565 289.108 61.9852 287.998 62.1147C286.892 62.2218 285.831 62.0497 284.816 61.5984C283.791 61.1341 282.913 60.3958 282.183 59.3834C281.444 58.3581 281.021 57.2923 280.914 56.1861C280.807 55.0799 280.984 54.0254 281.444 53.0227C281.905 52.0201 282.635 51.1585 283.634 50.4381C284.647 49.7083 285.701 49.2833 286.798 49.1633C287.908 49.0338 288.964 49.1994 289.967 49.6601C290.983 50.1113 291.86 50.8497 292.599 51.875C293.329 52.8874 293.752 53.9532 293.869 55.0724C293.989 56.1693 293.817 57.2302 293.352 58.2552C292.879 59.2672 292.142 60.1335 291.143 60.8539ZM290.259 59.6274C290.998 59.094 291.537 58.4593 291.874 57.7232C292.202 56.974 292.313 56.184 292.207 55.353C292.105 54.4997 291.768 53.6772 291.197 52.8855C290.617 52.0808 289.943 51.5015 289.175 51.1478C288.421 50.7846 287.641 50.6467 286.836 50.7339C286.021 50.8081 285.251 51.1072 284.524 51.6311C283.797 52.1551 283.27 52.7916 282.942 53.5407C282.605 54.2769 282.483 55.0651 282.576 55.9054C282.668 56.7457 283.005 57.5683 283.585 58.373C284.156 59.1647 284.83 59.7439 285.607 60.1107C286.375 60.4645 287.166 60.6043 287.98 60.53C288.785 60.4428 289.545 60.142 290.259 59.6274Z" fill="black"/>
<path d="M300.909 52.8932L291.832 44.154L295.694 40.143C296.682 39.1172 297.654 38.499 298.612 38.2885C299.581 38.0665 300.446 38.3217 301.207 39.0541C301.944 39.7643 302.243 40.596 302.103 41.5492C301.951 42.4913 301.431 43.4234 300.543 44.3455L300.413 43.7538C301.456 42.6704 302.424 42.0693 303.315 41.9506C304.207 41.8318 305.033 42.1387 305.794 42.8711C306.578 43.6257 306.911 44.5021 306.794 45.5001C306.677 46.4754 306.041 47.5625 304.887 48.7612L300.909 52.8932ZM301.089 50.7681L303.869 47.8809C304.613 47.1086 305.052 46.41 305.187 45.7851C305.322 45.1376 305.113 44.5474 304.56 44.0148C304.006 43.4821 303.431 43.2723 302.833 43.3855C302.236 43.4987 301.565 43.9414 300.822 44.7136L297.925 47.7219L301.089 50.7681ZM297.009 46.8396L299.639 44.108C300.316 43.4049 300.7 42.7413 300.79 42.1172C300.891 41.4816 300.688 40.9197 300.181 40.4314C299.673 39.9431 299.11 39.7671 298.49 39.9033C297.881 40.028 297.239 40.4419 296.562 41.145L293.932 43.8766L297.009 46.8396Z" fill="black"/>
<path d="M308.11 31.8867C309.034 30.6007 310.013 29.822 311.045 29.5508C312.087 29.2664 313.137 29.4973 314.197 30.2432C315.296 31.0169 315.882 31.9772 315.955 33.1243C316.038 34.2584 315.589 35.5077 314.609 36.8723L311.66 41.019L301.357 33.7664L302.338 32.373L305.929 34.901L308.11 31.8867ZM313.493 36.2048C314.179 35.2589 314.496 34.4057 314.444 33.6454C314.388 32.8627 313.975 32.1996 313.203 31.6563C312.431 31.1129 311.698 30.9589 311.004 31.1944C310.297 31.4206 309.596 32.0132 308.901 32.9722L306.969 35.6332L311.562 38.8658L313.493 36.2048Z" fill="black"/>
<path d="M320.511 27.9404L309.17 22.4506L309.912 20.9169L314.794 23.2801L316.468 19.8237L317.872 20.5034L316.199 23.9597L321.254 26.4066L320.511 27.9404ZM325.346 18.2284C324.823 19.3085 324.107 20.1621 323.199 20.7892C322.284 21.3949 321.276 21.7334 320.175 21.8048C319.059 21.8692 317.94 21.6296 316.817 21.0858C315.679 20.5351 314.796 19.8058 314.169 18.8979C313.542 17.99 313.19 16.9927 313.111 15.906C313.04 14.8048 313.265 13.7142 313.788 12.6341C314.311 11.554 315.023 10.7076 315.924 10.0949C316.825 9.48226 317.826 9.14022 318.927 9.06884C320.028 8.99745 321.148 9.23711 322.285 9.78782C323.409 10.3316 324.291 11.0609 324.932 11.9758C325.56 12.8837 325.919 13.8845 326.012 14.9782C326.091 16.0649 325.868 17.1483 325.346 18.2284ZM324.006 17.5801C324.39 16.788 324.544 15.9917 324.469 15.1912C324.395 14.3907 324.113 13.6501 323.625 12.9694C323.122 12.2817 322.432 11.7252 321.553 11.3C320.66 10.8678 319.796 10.6714 318.959 10.7107C318.122 10.7501 317.374 10.9923 316.714 11.4373C316.04 11.8753 315.511 12.4903 315.128 13.2824C314.751 14.0601 314.597 14.8564 314.665 15.6713C314.725 16.4649 314.999 17.202 315.487 17.8827C315.975 18.5634 316.666 19.1199 317.559 19.5521C318.437 19.9773 319.302 20.1737 320.153 20.1413C320.99 20.102 321.746 19.8633 322.42 19.4252C323.101 18.9728 323.63 18.3578 324.006 17.5801Z" fill="black"/>
</svg>
