<svg width="35" height="36" viewBox="0 0 35 36" fill="none" xmlns="http://www.w3.org/2000/svg">
<g clip-path="url(#clip0_1_734)">
<path d="M34.2536 11.5217L34.2539 11.5268C34.412 14.108 34.412 21.8782 34.2539 24.4594L34.2537 24.4629C34.1209 26.9159 33.5233 29.0046 31.6658 30.7255L31.6651 30.7261C29.8009 32.4599 27.5264 33.021 24.8574 33.1381L24.853 33.1383C22.0625 33.285 13.6635 33.285 10.873 33.1383L10.8699 33.1381C8.20059 33.0141 5.93214 32.4532 4.05948 30.7249C2.19512 29.0041 1.59771 26.9161 1.4724 24.4644L1.47242 24.4644L1.47211 24.4594C1.31398 21.8782 1.31398 14.1009 1.47211 11.5197L1.47212 11.5197L1.47232 11.5162C1.60513 9.06207 2.19566 6.97445 4.05948 5.25424C5.93193 3.52607 8.20765 2.96512 10.8687 2.84805L10.8687 2.84807L10.873 2.84785C13.6635 2.70111 22.0625 2.70111 24.853 2.84785L24.8561 2.848C27.5261 2.97203 29.8013 3.53319 31.6658 5.26063L31.6665 5.26127C33.5309 6.98199 34.1283 9.07003 34.2536 11.5217ZM28.0647 30.746L28.0664 30.7454C29.6806 30.1456 30.935 28.9911 31.5847 27.4787C32.071 26.3465 32.2401 24.5057 32.2995 22.7384C32.3427 21.455 32.3284 20.1485 32.3169 19.0971C32.3124 18.6841 32.3083 18.3105 32.3083 17.9931C32.3083 17.6756 32.3124 17.3021 32.3169 16.8892C32.3284 15.8384 32.3427 14.533 32.2995 13.2504C32.2401 11.4837 32.071 9.64336 31.5849 8.50801L31.5841 8.50617C30.9273 6.98863 29.6737 5.8334 28.0652 5.24034L28.0639 5.23986C26.8611 4.80019 24.894 4.64339 22.9853 4.58742C21.5923 4.54657 20.1765 4.55915 19.0379 4.56926C18.6011 4.57314 18.2051 4.57666 17.8668 4.57666C17.5222 4.57666 17.1177 4.57287 16.6712 4.56868C15.5376 4.55804 14.1332 4.54487 12.7514 4.58478C10.8435 4.63988 8.87593 4.79663 7.6689 5.24015L7.66722 5.24077C6.05301 5.8405 4.79855 6.99503 4.1489 8.50745L4.14829 8.50887C3.66649 9.64022 3.49734 11.4801 3.43696 13.2475C3.39278 14.5405 3.4064 15.8563 3.41732 16.9117C3.4215 17.3156 3.42528 17.6813 3.42528 17.9931C3.42528 18.3105 3.4212 18.6841 3.41669 19.097C3.40521 20.1477 3.39094 21.4531 3.4341 22.7358C3.49354 24.5025 3.66264 26.3428 4.14866 27.4781L4.14946 27.48C4.80631 28.9975 6.05986 30.1527 7.66838 30.7458L7.66969 30.7463C8.87247 31.1859 10.8396 31.3427 12.7483 31.3987C14.1414 31.4396 15.5571 31.427 16.6957 31.4169C17.1325 31.413 17.5285 31.4095 17.8668 31.4095C18.2114 31.4095 18.6159 31.4133 19.0624 31.4175C20.196 31.4281 21.6004 31.4413 22.9822 31.4014C24.8901 31.3462 26.8577 31.1895 28.0647 30.746ZM9.64671 17.9931C9.64671 13.8326 13.2795 10.4142 17.8668 10.4142C22.4541 10.4142 26.0869 13.8326 26.0869 17.9931C26.0869 22.1535 22.4541 25.572 17.8668 25.572C13.2795 25.572 9.64671 22.1535 9.64671 17.9931ZM11.6976 17.9931C11.6976 21.2018 14.5086 23.7454 17.8668 23.7454C21.225 23.7454 24.036 21.2018 24.036 17.9931C24.036 14.7848 21.2331 12.2407 17.8668 12.2407C14.5005 12.2407 11.6976 14.7848 11.6976 17.9931ZM28.4775 9.58369C28.4775 10.3188 27.8286 10.9681 26.9436 10.9681C26.0535 10.9681 25.4097 10.3141 25.4097 9.58369C25.4097 8.85448 26.0599 8.19932 26.9436 8.19932C27.8273 8.19932 28.4775 8.85448 28.4775 9.58369Z" stroke="black"/>
</g>
<defs>
<clipPath id="clip0_1_734">
<rect width="34" height="36" fill="white" transform="translate(0.859375)"/>
</clipPath>
</defs>
</svg>
