<svg width="48" height="48" viewBox="0 0 48 48" fill="none" xmlns="http://www.w3.org/2000/svg">
<path d="M2.27079 3.39058L2.27209 3.39028L11.8181 1.18734L2.27079 3.39058ZM2.27079 3.39058C1.72666 3.51538 1.33984 3.99981 1.33984 4.56389C1.33984 27.5564 19.9757 46.1567 42.9327 46.1567C43.4991 46.1567 43.9804 45.7672 44.1063 45.2245L2.27079 3.39058ZM17.2577 13.5662L17.2577 13.5662L11.6949 18.1192L11.092 18.6127L11.423 19.318C14.8256 26.5673 20.7682 32.5953 28.1699 36.0646L28.875 36.3951L29.3682 35.7925L33.9209 30.2301C34.2647 29.8106 34.8359 29.6731 35.3237 29.8821L45.5965 34.2847C45.5977 34.2852 45.5989 34.2857 45.6001 34.2863C46.1471 34.5286 46.4382 35.1178 46.3093 35.6784C46.3093 35.6784 46.3093 35.6784 46.3093 35.6784L44.1065 45.2238L17.2577 13.5662ZM17.2577 13.5662L17.2629 13.5619M17.2577 13.5662L17.2629 13.5619M17.2629 13.5619C17.6729 13.231 17.8161 12.6555 17.6053 12.1637L13.2009 1.88685C13.2007 1.88624 13.2004 1.88562 13.2001 1.885M17.2629 13.5619L13.2001 1.885M13.2001 1.885C12.9685 1.35367 12.3836 1.05757 11.8188 1.1872L13.2001 1.885Z" stroke="black" stroke-width="2"/>
</svg>
