<svg width="412" height="239" viewBox="0 0 412 239" fill="none" xmlns="http://www.w3.org/2000/svg">
<path d="M279.663 27.6345L330.362 10.8539L327.662 41.2765L327.608 41.8873L328.218 41.8178L381.763 35.7101L360.114 65.8065L359.612 66.5044L360.467 66.5957L409.651 71.8426L371.93 97.7337L371.168 98.2564L372.023 98.6082L410.412 114.412L361.486 132.667L360.785 132.928L361.295 133.475L383.91 157.769L330.214 165.846L329.731 165.919L329.792 166.402L333.53 196.113L282.365 192.778L282.037 192.757L281.887 193.049L265.936 224.204L224.434 209.836L224.165 209.743L223.948 209.925L190.35 238.157L164.277 214.76L164.032 214.541L163.734 214.678L117.154 236.057L109.984 206.979L109.867 206.506L109.391 206.61L56.3525 218.237L68.7532 187.479L69.0327 186.786L68.285 186.792L16.0496 187.212L46.225 158.751L46.8967 158.118L45.9982 157.901L1.48576 147.191L45.5288 124.734L46.2949 124.343L45.5757 123.871L14.5619 103.496L66.7517 90.0851L67.3457 89.9324L67.0759 89.3814L53.6389 61.9377L107.001 59.5082L107.392 59.4904L107.468 59.107L113.646 28.1313L160.812 37.1352L161.101 37.1904L161.289 36.9645L186.497 6.73691L220.882 25.9636L221.139 26.1074L221.389 25.9526L262.2 0.707883L279.083 27.4266L279.292 27.7573L279.663 27.6345Z" stroke="black"/>
</svg>
