<svg width="39" height="52" viewBox="0 0 39 52" fill="none" xmlns="http://www.w3.org/2000/svg">
<path d="M29.009 33.2428L19.2605 50.1277L9.51203 33.2428L29.009 33.2428Z" fill="#FFE400" stroke="black"/>
<circle cx="19.2603" cy="19.2603" r="18.7603" fill="#FFE400" stroke="black"/>
<path d="M17.721 17.487C18.6554 17.4782 19.2482 15.8911 19.4757 14.7653C19.4826 14.7319 19.4971 14.7344 19.4971 14.7344C19.4971 14.7344 19.5059 14.7363 19.5047 14.7602C19.4076 15.5396 19.2533 16.4166 19.2476 16.7328C19.23 17.6439 20.2097 17.4939 20.2128 17.3742C20.2134 17.3383 20.0981 17.3251 20.0931 16.7631C20.0918 16.644 20.1101 16.2742 20.1548 15.9516C20.6116 15.9472 20.8668 15.7431 21.1024 15.2422C21.0098 15.9541 20.9934 16.358 20.9789 16.724C20.9644 17.1077 21.1396 17.4435 21.3777 17.5859C21.7161 17.7875 22.0462 17.7466 22.0871 17.6571C22.1281 17.5676 21.7935 17.3811 21.8332 16.3025C21.8465 15.951 22.0657 14.2524 22.0481 13.7686C22.0342 13.3634 21.2404 13.5052 21.2114 13.6293L21.2101 13.6117C21.2101 13.6117 21.2108 13.9954 21.1641 14.2505C21.0602 14.8239 20.8164 15.4892 20.2512 15.3524C20.3218 14.8528 20.3898 14.2745 20.3873 14.0407C20.381 13.3458 19.8902 13.3811 19.6174 13.4624C19.6023 13.4529 19.5815 13.4769 19.5658 13.4769C19.4813 13.4762 18.9244 16.8456 17.7355 16.8324C17.1817 16.8261 17.1294 16.1242 17.1294 16.1242C19.1153 16.106 19.1581 13.3074 17.8376 13.3074C15.9544 13.3067 15.4851 17.5078 17.721 17.487ZM17.9245 13.8183C18.3366 13.8183 17.7639 15.7941 17.132 15.7941C17.1238 14.9643 17.5465 13.8183 17.9245 13.8183ZM28.2765 18.2714C28.8984 18.2783 29.2399 17.8259 29.2399 17.8259C29.2399 17.8259 29.2821 18.3835 29.9379 18.3904C30.2907 18.3949 30.5131 18.0244 30.3966 17.9381C30.2895 17.8581 30.304 18.1447 30.0652 18.1422C29.7445 18.1384 30.8408 16.2408 30.939 15.6757C31.0008 15.3178 30.5509 15.0847 30.4249 15.268C30.2359 14.8661 29.8321 14.7564 29.6563 14.7583C27.5337 14.7785 26.6889 18.2537 28.2765 18.2714ZM29.7533 15.205C30.3556 15.1993 29.0527 17.819 28.4032 17.8253C28.0674 17.8285 28.9229 15.2126 29.7533 15.205ZM9.1369 16.5356C9.18038 16.535 9.65731 18.7584 10.734 18.7584C11.468 18.7584 11.5978 18.3804 11.485 18.2953C11.3722 18.2096 11.3357 18.3419 11.1026 18.3085C10.0927 18.163 9.51807 14.4773 9.48342 13.9097C9.462 13.548 8.6732 13.3162 8.61272 13.8448C8.53964 14.4786 8.42434 16.2874 8.40292 17.2551C8.19753 16.7889 7.58262 14.8308 6.57647 14.2562C6.27972 14.0867 5.93069 14.2808 5.93321 14.5561C5.93573 14.8308 6.62057 15.8678 6.7598 17.4208C6.86628 18.6047 6.88581 21.0416 6.20979 21.0479C5.71711 21.0523 6.04787 18.9991 5.69758 19.0022C5.39264 19.0047 4.89933 19.8187 4.90248 20.169C4.90878 20.8564 5.36114 21.4984 6.08252 21.4984C7.6305 21.4984 7.42449 16.9817 7.48308 16.9811C7.54167 16.9804 7.97324 18.0616 8.21265 18.5826C8.32039 18.8176 8.90757 18.6708 8.92647 18.4163C8.97688 17.7321 9.09406 16.5363 9.1369 16.5356ZM11.4712 17.9223C12.2694 17.9148 12.6877 16.8727 12.6877 16.8727C12.6877 16.8727 12.5756 18.1246 13.2642 18.1082C13.5106 18.1025 13.6637 17.9192 13.7298 17.7466H13.7304C13.7632 17.7686 13.8672 17.8026 13.9384 17.802C14.7971 17.7938 14.8248 14.563 14.8928 14.5624C14.9609 14.5618 14.8802 17.8474 15.967 17.8593C16.2392 17.8618 16.6141 17.596 16.5479 17.504C16.3633 17.2476 16.1668 17.1046 15.9355 16.2257C15.6155 15.0135 15.6785 14.2688 15.4989 13.5789C15.4145 13.2538 14.5432 13.4907 14.5142 13.7503C14.4858 14.0099 14.3706 17.5481 13.8451 17.5418C13.8262 17.5418 13.7909 17.5053 13.7934 17.4681C13.7934 17.4347 13.7922 17.3975 13.7878 17.3566C13.7645 17.0901 13.4948 17.1379 13.5125 17.3339C13.5232 17.4467 13.5956 17.5191 13.5956 17.5191C13.5956 17.5191 13.5591 17.6571 13.4885 17.7592C13.462 17.7844 13.4312 17.8014 13.3921 17.8014C13.0834 17.8045 13.6 15.0274 13.8054 14.4773C13.8848 14.265 13.4356 14.0981 13.2182 14.3778C12.9272 13.7245 12.1982 13.7881 12.1982 13.7881C10.5242 13.8038 9.95657 17.9362 11.4712 17.9223ZM12.3834 14.4339C12.8604 14.4295 12.1648 17.1405 11.7131 17.1449C11.1549 17.1499 11.817 14.4389 12.3834 14.4339ZM25.5958 17.8738C25.6027 17.8392 25.6134 17.727 25.701 17.1839C25.7186 17.0724 25.7999 16.6648 25.8705 16.3189C26.5503 16.4802 26.0412 18.507 27.0448 18.9436C27.6503 19.207 28.119 18.7143 27.8582 18.7162C26.9352 18.725 27.443 16.106 26.4306 16.0373C27.0568 15.7758 27.8053 15.1634 27.9307 14.9001C28.2161 14.3016 27.4959 14.013 27.4405 14.1485C27.1538 14.8516 26.2642 15.7424 25.9587 15.7431C25.9587 15.7431 26.1596 14.5907 26.1716 14.3885C26.2138 13.6577 25.3834 13.9248 25.3444 14.018C25.3053 14.1113 24.7257 17.6829 24.7087 17.8417C24.6892 18.0345 25.5611 18.0464 25.5958 17.8738ZM33.1675 16.3951C33.1675 16.3951 33.0881 15.6851 32.5311 15.6901C31.6982 15.6977 31.0109 16.266 30.704 17.3673C30.5932 17.7673 30.5131 18.3211 30.9466 18.5473C30.9926 18.5681 31.0411 18.5782 31.0921 18.5782C30.7752 18.8667 30.3355 19.1843 29.9323 19.1855C29.4465 19.1868 29.2959 18.7332 29.3425 18.5284C29.3892 18.3237 28.5336 18.2638 28.5386 18.8567C28.5399 18.9732 28.7995 19.682 29.655 19.6738C30.8603 19.6625 32.0706 18.0439 32.0706 18.0439C31.9937 18.3243 31.5584 19.1868 31.5974 19.5358C31.6396 19.9145 32.3031 19.8256 32.3711 19.4313C32.7126 17.4549 33.5165 16.9937 33.6255 16.6409C33.6778 16.4707 33.3716 16.3095 33.1675 16.3951ZM31.5735 17.9305C31.0405 17.9356 31.8664 16.2849 32.4813 16.2792C32.9583 16.2748 32.0592 17.9261 31.5735 17.9305ZM23.276 17.824C25.0017 17.8083 25.231 14.6695 24.107 14.6802C23.4512 14.6865 23.1324 15.2932 23.1324 15.2932C23.1324 15.2932 23.4505 14.2934 23.7681 13.6917C23.7145 13.5455 23.3755 13.4088 23.1393 13.4063C22.4576 13.3981 21.5239 17.8404 23.276 17.824ZM23.9527 15.3279C24.3363 15.3323 23.918 17.2955 23.2678 17.2879C22.9465 17.2847 23.3239 15.3209 23.9527 15.3279ZM15.3502 19.6744L15.3345 19.8105C15.3345 19.8105 15.2948 21.814 15.3055 21.9873C15.3225 22.2695 16.1624 22.1662 16.1038 21.8726C16.0408 21.5582 16.0376 20.9836 16.0546 20.4002C16.7035 20.4651 16.7439 22.245 17.7343 22.4825C18.3378 22.6274 18.6535 22.1007 18.4122 22.1454C17.5459 22.3067 17.5679 19.8477 16.6027 19.9202C16.5693 19.9227 16.5378 19.9265 16.507 19.9315C17.0633 19.6348 17.7538 19.1389 17.7078 18.5209C17.6612 17.899 17.1635 17.8587 17.1735 17.9967C17.2391 18.8712 16.4818 19.5415 16.076 19.8351C16.1063 19.1906 16.146 18.6418 16.1378 18.5656C16.0899 18.1284 15.3194 18.3262 15.3087 18.6135C15.3087 18.6135 14.8015 21.7208 13.7412 21.8109C13.3757 21.8417 13.2453 21.4127 13.2453 21.4127C15.1215 20.8797 15.0699 18.5454 13.8678 18.6355C11.7578 18.793 11.8485 22.6683 13.6958 22.5297C14.7019 22.4548 15.1096 20.8413 15.3502 19.6744ZM13.951 19.0589C14.3661 19.028 13.9377 20.8998 13.171 20.9572C12.9769 19.9101 13.6605 19.081 13.951 19.0589ZM25.8749 20.4487C25.7438 21.0013 25.5164 21.6805 25.5095 22.0471C25.495 22.7515 26.3272 22.8221 26.3556 22.6457C26.3713 22.548 26.2491 22.5732 26.3172 22.0843C26.3625 21.7579 26.9188 19.8956 26.9144 19.4401C26.9106 19.0589 26.2006 19.1635 26.1754 19.2788C26.1754 19.2788 25.6846 20.8431 24.9651 20.6724C25.1201 20.2219 25.2896 19.5251 25.3274 19.2605C25.4238 18.5769 24.6066 18.5259 24.4718 18.7924C24.3395 19.0539 24.107 19.7022 23.7082 20.0058C23.7082 20.0058 23.9451 18.7578 23.31 18.5889C22.646 18.4119 22.3177 19.0217 22.3177 19.0217C22.3177 19.0217 22.3618 18.8044 22.3656 18.7231C22.4015 17.9708 21.4017 18.1561 21.3985 18.3199C21.3973 18.3652 21.5611 19.3374 21.0388 20.9591C20.9789 21.1109 20.8025 21.3176 20.6135 21.3188C20.2097 21.3213 20.7294 19.3487 20.8592 18.8151C20.9543 18.4238 20.4333 18.4591 20.3136 18.5732C20.0314 18.0572 19.4183 18.105 19.4183 18.105C17.8615 18.105 17.1761 21.8852 18.8595 21.8852C19.4706 21.8852 19.8033 20.9818 19.8033 20.9818C19.8033 20.9818 19.9671 21.6105 20.5209 21.6074C20.7023 21.6061 20.7723 21.4851 20.8913 21.3623C20.8913 21.3623 20.6885 22.3943 20.4371 22.5751C20.1857 22.7559 20.6828 23.4483 21.2675 23.1635C21.8603 22.875 21.8036 19.2687 22.8211 19.401C23.1771 19.447 23.0599 20.2471 23.0599 20.2471C22.1054 20.5439 21.6222 21.6483 22.3102 21.7957C23.1046 21.9659 23.6427 20.4966 23.6427 20.4966C24.1366 20.1022 24.5228 19.0545 24.5814 19.0539C24.6381 19.0532 24.6047 19.1553 24.4724 19.5062C24.3804 19.75 23.8934 21.0592 23.838 21.5765C23.7258 22.6293 24.732 22.582 24.7364 22.3974C24.7383 22.3243 24.6085 22.2935 24.6362 21.7201C24.6413 21.6187 24.732 21.3768 24.7988 21.167C25.4351 21.3358 25.66 20.8564 25.8749 20.4487ZM18.8658 21.3018C18.2629 21.3018 18.9704 18.6254 19.4681 18.6254C19.8663 18.6254 19.269 21.3018 18.8658 21.3018ZM22.3165 21.4354C22.1873 21.3182 22.5181 20.9383 22.9459 20.7304C22.9459 20.7304 22.6082 21.7012 22.3165 21.4354ZM12.7129 22.7339C11.8731 22.1498 11.9065 19.6007 11.3401 19.2126C10.6433 18.7351 9.94586 19.922 9.94586 19.922C9.94586 19.922 9.87782 19.3607 9.47208 19.316C9.15013 19.28 8.81937 19.7047 8.88867 19.8527C9.0991 20.3038 9.5754 23.878 9.66676 24.0267C9.79213 24.2308 10.5223 23.866 10.4461 23.3418C10.4064 23.0684 10.0958 21.0385 10.0574 20.7178C9.99311 20.1772 10.3711 19.6669 10.7706 20.0254C11.0875 20.3095 11.0988 22.7402 12.0476 23.2568C12.9045 23.7236 13.1823 22.9172 13.1388 22.8807C13.0954 22.8441 12.8799 22.8498 12.7129 22.7339ZM29.3287 20.4601C29.3287 20.4601 29.2298 19.6826 28.6193 19.6978C27.7057 19.7204 27.1217 20.3511 26.8035 21.5633C26.6889 22.0037 26.6101 22.6123 27.0896 22.8529C27.2275 22.9134 27.3876 22.8819 27.5489 22.8032C27.3107 23.0596 26.9554 23.3129 26.4734 23.3248C25.7287 23.3431 25.5441 22.9859 25.4622 23.0186C25.122 23.156 25.432 23.9297 26.1464 23.9126C27.5381 23.8786 28.3074 22.4018 28.3332 22.3319C28.2539 22.6406 27.8809 23.5384 27.9294 23.9202C27.9823 24.3348 28.6375 24.1766 28.7182 23.7451C29.1208 21.6036 29.6632 21.0643 29.7766 20.6749C29.8315 20.4872 29.5505 20.3624 29.3287 20.4601ZM27.7662 22.1668C27.1822 22.1813 28.0189 20.1822 28.693 20.1659C29.2153 20.1526 28.2986 22.1536 27.7662 22.1668ZM23.9892 23.2385C22.6264 24.5792 15.5059 22.2349 14.3447 23.1301C13.4589 23.8131 14.0146 25.1431 14.3309 24.8319C15.3622 23.8169 22.7354 25.9357 23.9753 24.9402C24.8108 24.2692 24.221 23.0098 23.9892 23.2385Z" fill="black"/>
<path d="M15.5398 24.1924C15.5278 24.193 15.5152 24.193 15.5139 24.1697L15.4906 23.8257L15.4553 23.8282C15.3797 23.8333 15.3728 23.8793 15.3684 23.9165L15.3489 24.0651C15.3444 24.1048 15.3413 24.154 15.306 24.1893C15.2638 24.2327 15.1832 24.2378 15.1806 24.2384C15.1598 24.2397 15.158 24.2302 15.1535 24.222L15.1157 24.1313C15.1126 24.1244 15.1107 24.1105 15.1265 24.1061L15.158 24.0966C15.1939 24.0853 15.1989 24.0695 15.2058 24.011L15.2184 23.907C15.2273 23.8364 15.2537 23.798 15.3192 23.7703V23.7665C15.2518 23.7476 15.2279 23.7029 15.2159 23.6544L15.1958 23.5687C15.1819 23.5082 15.1655 23.4994 15.1365 23.4943L15.1057 23.4893C15.0943 23.4874 15.0887 23.4767 15.0918 23.4647L15.1113 23.3765C15.1145 23.3639 15.1239 23.3608 15.1334 23.3601C15.158 23.3582 15.2021 23.3639 15.2392 23.3834C15.2966 23.4124 15.3104 23.4597 15.3224 23.5088L15.3476 23.6115C15.3659 23.6852 15.3993 23.6997 15.4579 23.6959L15.4824 23.694L15.4616 23.3828C15.4604 23.3595 15.4723 23.3576 15.4843 23.357L15.6015 23.3488C15.6135 23.3482 15.6261 23.3482 15.6273 23.3715L15.6481 23.6827L15.6727 23.6808C15.7313 23.677 15.7622 23.6575 15.7703 23.5825L15.7817 23.4773C15.7867 23.4269 15.7949 23.3784 15.8472 23.3419C15.8812 23.3173 15.9247 23.306 15.9486 23.3041C15.9587 23.3034 15.9682 23.3053 15.9726 23.3173L16.0041 23.4023C16.0085 23.4143 16.0041 23.4257 15.9934 23.4288L15.9631 23.4383C15.9354 23.4477 15.9203 23.4584 15.9146 23.5202L15.9058 23.6077C15.9008 23.6569 15.8831 23.7048 15.8189 23.7325V23.7363C15.8875 23.7552 15.919 23.7898 15.9373 23.8585L15.9638 23.9599C15.9789 24.0166 15.9858 24.0317 16.023 24.038L16.0551 24.0431C16.0715 24.0456 16.0709 24.0595 16.069 24.067L16.0438 24.1622C16.0406 24.171 16.04 24.1811 16.0192 24.1823C16.0167 24.1823 15.936 24.188 15.8882 24.1508C15.8478 24.1206 15.8384 24.0721 15.8289 24.0336L15.7899 23.8894C15.7798 23.8534 15.7672 23.8087 15.6916 23.8138L15.6563 23.8163L15.6796 24.1603C15.6803 24.1722 15.6803 24.1848 15.6569 24.1861L15.5398 24.1924Z" fill="white"/>
<path d="M16.4421 23.9509C16.4313 23.9502 16.4301 23.9452 16.4282 23.9389L16.2505 23.3725C16.2474 23.3612 16.2455 23.3561 16.2455 23.3517C16.2461 23.3416 16.2575 23.3404 16.282 23.3391L16.3923 23.3353C16.4282 23.3334 16.425 23.3385 16.4313 23.3605L16.5088 23.6592C16.524 23.7178 16.5328 23.76 16.5504 23.8368H16.5555C16.5813 23.7474 16.592 23.714 16.6077 23.6648L16.6997 23.3782C16.7041 23.3624 16.706 23.3492 16.7281 23.353L16.8396 23.3687C16.8528 23.3706 16.8648 23.3725 16.8642 23.3851C16.8642 23.3876 16.8629 23.3914 16.8579 23.4059L16.633 24.051C16.6197 24.0895 16.5958 24.1424 16.5573 24.172C16.529 24.1934 16.4855 24.2111 16.4206 24.2073C16.3765 24.2048 16.3318 24.1928 16.2858 24.1689C16.2512 24.1512 16.253 24.1424 16.2587 24.1317L16.3016 24.0422C16.3041 24.0365 16.3104 24.034 16.3142 24.034C16.3192 24.034 16.3249 24.0384 16.3331 24.0435C16.3614 24.0624 16.3853 24.0718 16.4087 24.0737C16.4786 24.0775 16.5013 24.0176 16.5088 23.995L16.5221 23.9553L16.4421 23.9509Z" fill="white"/>
<path d="M17.222 24.2247C17.2207 24.2355 17.2169 24.2487 17.1949 24.2462L17.0783 24.2336C17.0563 24.231 17.0556 24.2178 17.0569 24.2065L17.142 23.4215C17.1445 23.3994 17.1583 23.3988 17.169 23.4L17.3688 23.4215C17.4236 23.4271 17.4986 23.4378 17.5515 23.4756C17.5949 23.5065 17.6416 23.5664 17.6283 23.6848C17.6107 23.8455 17.4935 23.9412 17.3209 23.9223L17.2566 23.9154L17.222 24.2247ZM17.2699 23.7844L17.3077 23.7881C17.3782 23.7957 17.4488 23.7938 17.4614 23.6754C17.4733 23.5632 17.3959 23.5538 17.3492 23.5487L17.2957 23.5431L17.2699 23.7844Z" fill="white"/>
<path d="M18.1929 23.5242C18.2049 23.526 18.2062 23.5336 18.2087 23.5462L18.3416 24.3602C18.3423 24.3652 18.3441 24.369 18.3435 24.3753C18.3416 24.3886 18.3284 24.3879 18.3221 24.3873L18.1873 24.369C18.1728 24.3671 18.169 24.3652 18.1652 24.34L18.1381 24.1365L17.9296 24.1088L17.8533 24.2985C17.8458 24.3174 17.8439 24.323 17.8281 24.3211L17.6984 24.3035C17.6732 24.3004 17.6801 24.284 17.6832 24.277L18.0304 23.521C18.0354 23.5103 18.0379 23.5034 18.0537 23.5059L18.1929 23.5242ZM18.1003 23.8083C18.0965 23.7705 18.094 23.7283 18.0953 23.6432L18.0915 23.6426C18.0858 23.6754 18.0764 23.7195 18.043 23.8001L17.9617 24.0017L18.1217 24.0231L18.1003 23.8083Z" fill="white"/>
<path d="M18.9221 23.6277C18.9814 23.6365 19.0708 23.6522 19.1231 23.7058C19.1553 23.7392 19.1849 23.799 19.1729 23.8816C19.1571 23.9868 19.0866 24.0296 19.0223 24.046C19.0689 24.0655 19.1653 24.1229 19.1433 24.2741C19.113 24.4801 18.941 24.4782 18.8094 24.4587L18.6084 24.4291C18.5863 24.4259 18.5863 24.4121 18.5876 24.4013L18.7023 23.6201C18.7054 23.5981 18.7193 23.5981 18.73 23.5993L18.9221 23.6277ZM18.8119 24.3289C18.8831 24.3396 18.9669 24.3421 18.9826 24.2363C18.9996 24.1191 18.8957 24.1033 18.8484 24.0964L18.8024 24.0895L18.7684 24.322L18.8119 24.3289ZM18.8585 23.9685C18.9165 23.9773 18.9921 23.9761 19.0072 23.874C19.0122 23.8412 19.0148 23.7713 18.9032 23.7549L18.8522 23.7474L18.8207 23.9628L18.8585 23.9685Z" fill="white"/>
<path d="M19.6924 24.0065C19.6873 24.0405 19.6773 24.1023 19.6413 24.2648C19.6155 24.382 19.5821 24.5011 19.4719 24.5395C19.4435 24.549 19.3622 24.5622 19.332 24.5578C19.3282 24.5572 19.3175 24.5559 19.3169 24.5445L19.3024 24.4311C19.3005 24.4185 19.3055 24.4078 19.3181 24.4085L19.3402 24.4091C19.4278 24.4116 19.4605 24.3574 19.4895 24.2402C19.5071 24.1684 19.5368 24.0147 19.5481 23.9397L19.5758 23.7495C19.579 23.7255 19.5985 23.728 19.6048 23.7287L19.9935 23.7854C20.0055 23.7873 20.0175 23.7898 20.0143 23.8131L19.9009 24.5943C19.8978 24.617 19.8852 24.617 19.8732 24.6151L19.7579 24.5981C19.7327 24.5943 19.7346 24.5798 19.7358 24.5704L19.8316 23.9107L19.7094 23.8931L19.6924 24.0065Z" fill="white"/>
<path d="M20.4081 24.5544L20.6608 24.5871C20.6715 24.5884 20.6847 24.5928 20.6816 24.6148L20.6708 24.6974C20.6683 24.7194 20.6545 24.72 20.6431 24.7182L20.25 24.6671C20.2279 24.6646 20.2273 24.6507 20.2292 24.6394L20.3306 23.8563C20.3338 23.8342 20.347 23.8336 20.3584 23.8349L20.7698 23.8884C20.7748 23.889 20.7805 23.8909 20.7836 23.8966C20.7868 23.9016 20.7849 23.9079 20.783 23.9124L20.7471 24.0006C20.7452 24.0062 20.7402 24.0182 20.7219 24.0157L20.4825 23.9848L20.4566 24.1864L20.6608 24.2129C20.6828 24.216 20.6834 24.2293 20.6822 24.2406L20.6715 24.3231C20.6683 24.3452 20.6551 24.3458 20.6438 24.3446L20.4396 24.3181L20.4081 24.5544Z" fill="white"/>
<path d="M21.2427 23.9414C21.3025 23.9471 21.392 23.959 21.4474 24.0094C21.4814 24.0409 21.5136 24.0995 21.5054 24.1827C21.4947 24.2885 21.4266 24.3345 21.363 24.3541C21.4102 24.3711 21.5098 24.424 21.4947 24.5765C21.4739 24.7838 21.3025 24.7901 21.1696 24.7768L20.9673 24.7567C20.9453 24.7548 20.944 24.7409 20.9453 24.7302L21.0234 23.9446C21.0259 23.9225 21.0392 23.9219 21.0505 23.9225L21.2427 23.9414ZM21.1652 24.647C21.237 24.654 21.3208 24.6527 21.3315 24.5469C21.3435 24.429 21.2382 24.4183 21.191 24.4139L21.145 24.4095L21.1217 24.6433L21.1652 24.647ZM21.1954 24.2848C21.254 24.2904 21.3296 24.286 21.3397 24.1833C21.3428 24.1506 21.3422 24.08 21.2307 24.0693L21.1797 24.0643L21.1582 24.281L21.1954 24.2848Z" fill="white"/>
<path d="M22.0745 24.3393C22.1274 24.3406 22.2017 24.3431 22.2635 24.3897C22.3347 24.4439 22.3498 24.5252 22.3485 24.5983C22.3473 24.6569 22.3359 24.7362 22.266 24.7885C22.2313 24.815 22.1696 24.8427 22.0625 24.8402L21.8363 24.8351C21.8143 24.8345 21.8124 24.8213 21.8124 24.81L21.8294 24.0205C21.83 23.9985 21.8433 23.9966 21.8546 23.9966L21.9724 23.9991C21.9945 23.9997 21.9963 24.013 21.9963 24.0243L21.9894 24.3362L22.0745 24.3393ZM22.0354 24.7085C22.1066 24.7098 22.1791 24.6947 22.1809 24.5926C22.1835 24.4735 22.0795 24.4716 22.0304 24.4704L21.985 24.4691L21.98 24.7066L22.0354 24.7085ZM22.4588 24.8503C22.4367 24.8496 22.4348 24.8364 22.4348 24.8251L22.4519 24.0356C22.4519 24.0249 22.455 24.0111 22.4771 24.0117L22.5949 24.0142C22.6056 24.0142 22.6194 24.0174 22.6188 24.0394L22.6018 24.8289C22.6018 24.8396 22.5987 24.8534 22.5766 24.8528L22.4588 24.8503Z" fill="white"/>
<path d="M23.4024 24.775C23.393 24.7788 23.3848 24.7788 23.3791 24.775C23.3779 24.7738 23.3735 24.7706 23.364 24.7574L23.2292 24.5684C23.2059 24.535 23.1945 24.518 23.1819 24.4928L23.1794 24.4934C23.1731 24.5255 23.1637 24.5551 23.1567 24.5747L23.0761 24.8046C23.0755 24.8084 23.0736 24.8116 23.0717 24.8153C23.0692 24.8216 23.066 24.8273 23.0578 24.8286C23.0566 24.8286 23.0528 24.8292 23.0427 24.8286L22.9274 24.8198C22.9173 24.8185 22.9022 24.8185 22.9003 24.8065C22.8997 24.8015 22.9003 24.7965 22.9054 24.7832L23.0729 24.3655L22.8184 24.0618C22.8121 24.0543 22.8052 24.048 22.8039 24.0404C22.802 24.0297 22.8134 24.0266 22.8234 24.0228L22.9406 23.978C22.9501 23.9743 22.9539 23.9736 22.9558 23.973C22.9652 23.9717 22.969 23.9787 22.9734 23.985L23.09 24.1507C23.117 24.1885 23.1303 24.2137 23.1404 24.237L23.1429 24.2364C23.1485 24.1897 23.1567 24.1626 23.163 24.1393L23.2166 23.9579C23.2185 23.9528 23.2191 23.9491 23.2204 23.9434C23.2223 23.9384 23.226 23.9314 23.2342 23.9302C23.2367 23.9295 23.2456 23.9295 23.2493 23.9302L23.364 23.944C23.3754 23.9459 23.388 23.9465 23.3898 23.9573C23.3905 23.9598 23.3892 23.9623 23.3867 23.9699L23.2449 24.3378L23.5171 24.6856C23.5215 24.6912 23.5278 24.6988 23.5285 24.7051C23.5303 24.7158 23.5171 24.7215 23.5083 24.7253L23.4024 24.775Z" fill="white"/>
</svg>
