<svg width="46" height="50" viewBox="0 0 46 50" fill="none" xmlns="http://www.w3.org/2000/svg">
<path d="M8.10748 24.5718L11.1323 22.7103" stroke="black" stroke-width="2" stroke-linecap="round"/>
<path d="M5.0769 16.1054L8.3266 16.9964" stroke="black" stroke-width="2" stroke-linecap="round"/>
<path d="M29.5893 43.7678C29.5893 43.7678 28.2645 41.076 27.3047 40.0555C26.3449 39.035 15.7762 37.9563 14.3112 37.5783C12.8462 37.2003 11.9844 35.0293 13.7373 33.9505C15.4903 32.8717 23.1797 33.3528 22.3969 32.0808C21.6141 30.8089 13.9429 18.2739 13.7315 17.4615C13.2798 15.7253 15.7805 13.7834 17.2057 14.3281C18.6309 14.8728 19.1625 15.9675 19.1625 15.9675C19.1625 15.9675 23.5204 23.0486 24.0914 23.9765C24.6625 24.9045 30.9608 21.1232 33.1053 20.9882C35.3135 20.8492 38.4065 22.6713 39.5202 23.8649C42.7222 27.2969 41.5917 32.4161 42.3075 35.9407" stroke="black" stroke-width="2"/>
<path d="M19.4559 10.0524L20.2782 6.84498" stroke="black" stroke-width="2" stroke-linecap="round"/>
<path d="M23.6182 15.1211L26.2649 13.4922" stroke="black" stroke-width="2" stroke-linecap="round"/>
<path d="M11.1663 8.5191L12.9432 11.4065" stroke="black" stroke-width="2" stroke-linecap="round"/>
</svg>
