<svg width="145" height="172" viewBox="0 0 145 172" fill="none" xmlns="http://www.w3.org/2000/svg">
<path d="M103.802 111.592C98.9489 108.857 90.5521 105.073 87.9035 101.998C86.8106 100.723 87.2455 99.7579 87.669 99.1165C88.0799 98.5221 89.6005 98.1998 90.4097 98.4669C92.2455 99.0343 93.9933 99.9304 95.6454 100.902C99.3237 103.045 102.966 105.228 106.517 107.564C108.401 108.798 108.637 110.547 107.169 111.236C106.307 111.634 105.493 112.045 103.802 111.592Z" fill="#CD4631"/>
<path d="M11.9121 125.847C12.4803 124.666 13.126 124.134 14.0647 123.354C17.7116 120.356 21.457 117.459 25.1554 114.55C25.3764 114.382 25.6271 114.198 25.8824 114.09C27.0354 113.544 28.3435 112.888 29.3316 114.083C30.3134 115.303 29.5385 116.504 28.5981 117.385C24.6857 121.092 20.7327 124.764 16.7391 128.399C16.1341 128.967 15.249 129.358 14.4268 129.516C12.3863 129.9 11.1107 128.275 11.9121 125.847Z" fill="#CD4631"/>
<path d="M70.8021 140.747C70.519 141.804 69.496 142.335 68.8541 142.289C67.9884 142.233 67.3218 141.903 66.3618 140.79C66.0319 140.425 65.967 139.728 65.8643 139.172C65.1444 135.004 64.3947 130.852 63.728 126.673C63.5508 125.644 63.4113 124.474 63.7396 123.53C64.0428 122.681 64.9162 121.581 65.7023 121.465C66.4649 121.342 67.4057 121.493 68.2026 122.839C68.5011 123.322 68.7069 124.056 68.8078 124.712C69.4477 129.086 70.0875 133.46 70.674 137.844C70.7779 138.677 70.7456 139.549 70.8021 140.747Z" fill="#CD4631"/>
<path d="M4.95373 88.4279C3.95555 87.8333 3.38963 87.1281 3.41401 86.3798C3.44176 85.431 4.20866 84.3532 4.95163 83.6464C5.52059 83.1194 6.54315 82.9657 7.3871 82.915C11.6069 82.6617 15.8438 82.4382 20.0853 82.2914C20.7993 82.2563 21.6634 82.4123 22.2407 82.7934C23.1793 83.4224 23.4052 84.3636 22.2958 85.1232C21.6753 85.5609 20.978 86.0031 20.2624 86.1385C16.1092 86.9883 11.9515 87.7615 7.77652 88.5049C7.0139 88.6277 5.92214 89.0397 4.95373 88.4279Z" fill="#CD4631"/>
<path d="M95.2901 69.4532C94.8302 69.1035 94.6106 68.1388 94.7381 67.5691C94.9222 66.788 95.4086 65.9118 96.048 65.4038C99.0367 62.9837 102.13 60.642 105.194 58.3176C105.642 57.9596 106.182 57.7269 106.723 57.4943C107.94 56.9901 109.437 56.6615 110.015 58.0744C110.349 58.8936 110.048 60.675 109.397 61.1298C105.411 63.9871 101.234 66.6171 97.0799 69.2534C96.7399 69.4894 96.0913 69.844 95.2901 69.4532Z" fill="#CD4631"/>
<path d="M21.3866 44.1909C22.5944 44.9423 23.541 45.4475 24.4092 46.0576C26.9325 47.8157 29.4495 49.5973 31.9368 51.3961C32.6297 51.9089 33.3697 52.4343 33.8715 53.0972C34.2232 53.5689 34.4772 54.5931 34.2247 54.8778C33.7983 55.3422 33.1933 55.9099 32.2496 55.5815C31.8568 55.4511 31.3466 55.2892 30.9319 55.0523C28.0124 53.3642 25.0804 51.723 22.2095 49.9472C21.2348 49.3589 20.2509 48.6172 19.5881 47.7099C19.1098 47.0533 18.842 45.7989 19.1825 45.1855C19.4869 44.6129 20.2362 43.8826 21.3866 44.1909Z" fill="#CD4631"/>
<path d="M66.9547 45.9831C66.8557 46.2585 66.7567 46.5339 66.5936 46.767C65.8863 47.8105 65.282 49.0325 63.6935 48.4811C62.0111 47.9045 62.3181 46.477 62.6499 45.3329C63.4626 42.5814 64.4632 39.8803 65.4231 37.1431C65.7875 36.1587 66.1817 35.1572 66.7213 34.2701C67.2672 33.3595 67.9369 32.4569 69.2545 32.9861C70.4783 33.4902 70.6744 34.4486 70.3959 35.5818C70.0688 36.8026 67.8059 43.7452 66.9547 45.9831Z" fill="#CD4631"/>
</svg>
