<svg width="29" height="29" viewBox="0 0 29 29" fill="none" xmlns="http://www.w3.org/2000/svg">
<circle cx="14.5" cy="14.5" r="14.5" fill="black"/>
<path d="M10.56 20V18.608L15.008 14.384C15.3813 14.032 15.6587 13.7227 15.84 13.456C16.0213 13.1893 16.1387 12.944 16.192 12.72C16.256 12.4853 16.288 12.2667 16.288 12.064C16.288 11.552 16.112 11.1573 15.76 10.88C15.408 10.592 14.8907 10.448 14.208 10.448C13.664 10.448 13.168 10.544 12.72 10.736C12.2827 10.928 11.904 11.2213 11.584 11.616L10.128 10.496C10.5653 9.90933 11.152 9.456 11.888 9.136C12.6347 8.80533 13.4667 8.64 14.384 8.64C15.1947 8.64 15.8987 8.77333 16.496 9.04C17.104 9.296 17.568 9.664 17.888 10.144C18.2187 10.624 18.384 11.1947 18.384 11.856C18.384 12.2187 18.336 12.5813 18.24 12.944C18.144 13.296 17.9627 13.6693 17.696 14.064C17.4293 14.4587 17.04 14.9013 16.528 15.392L12.704 19.024L12.272 18.24H18.816V20H10.56Z" fill="white"/>
</svg>
