<svg width="29" height="29" viewBox="0 0 29 29" fill="none" xmlns="http://www.w3.org/2000/svg">
<circle cx="14.5" cy="14.5" r="14.5" fill="black"/>
<path d="M14.224 20.16C13.4347 20.16 12.6613 20.048 11.904 19.824C11.1573 19.5893 10.528 19.2693 10.016 18.864L10.912 17.248C11.3173 17.5787 11.808 17.8453 12.384 18.048C12.96 18.2507 13.5627 18.352 14.192 18.352C14.9387 18.352 15.52 18.2027 15.936 17.904C16.352 17.5947 16.56 17.1787 16.56 16.656C16.56 16.144 16.368 15.7387 15.984 15.44C15.6 15.1413 14.9813 14.992 14.128 14.992H13.104V13.568L16.304 9.76L16.576 10.544H10.56V8.8H18.192V10.192L14.992 14L13.904 13.36H14.528C15.904 13.36 16.9333 13.6693 17.616 14.288C18.3093 14.896 18.656 15.68 18.656 16.64C18.656 17.2693 18.496 17.8507 18.176 18.384C17.856 18.9173 17.3653 19.3493 16.704 19.68C16.0533 20 15.2267 20.16 14.224 20.16Z" fill="white"/>
</svg>
