<svg width="31" height="31" viewBox="0 0 31 31" fill="none" xmlns="http://www.w3.org/2000/svg">
<path d="M18.6913 8.76338L25.4119 5.58811L22.2366 12.3087L22.0012 12.8071L22.5201 12.993L29.5175 15.5L22.5201 18.007L22.0012 18.1929L22.2366 18.6913L25.4119 25.4119L18.6913 22.2366L18.1929 22.0012L18.007 22.5201L15.5 29.5175L12.993 22.5201L12.8071 22.0012L12.3087 22.2366L5.58811 25.4119L8.76338 18.6913L8.99885 18.1929L8.47993 18.007L1.48247 15.5L8.47993 12.993L8.99885 12.8071L8.76338 12.3087L5.58811 5.58811L12.3087 8.76338L12.8071 8.99885L12.993 8.47993L15.5 1.48247L18.007 8.47993L18.1929 8.99885L18.6913 8.76338Z" stroke="black"/>
</svg>
