<svg width="24" height="8" viewBox="0 0 24 8" fill="none" xmlns="http://www.w3.org/2000/svg">
<path d="M5.152 7.8C4.49066 7.01067 3.808 6.328 3.104 5.752C2.4 5.176 1.67466 4.70667 0.927997 4.344L0.927997 3.768C2.4 3.02133 3.808 1.86933 5.152 0.312001L6.272 0.312001C5.93066 1.03733 5.58933 1.67733 5.248 2.232C4.90666 2.76533 4.576 3.21333 4.256 3.576L4.256 4.536C4.576 4.87733 4.90666 5.32533 5.248 5.88C5.58933 6.41333 5.93066 7.05333 6.272 7.8L5.152 7.8ZM4.096 4.728L4.096 3.384L23.072 3.384L23.072 4.728L4.096 4.728Z" fill="white"/>
</svg>
