<svg width="28" height="28" viewBox="0 0 28 28" fill="none" xmlns="http://www.w3.org/2000/svg">
<path d="M5.04023 2.24219C3.49463 2.24219 2.24023 3.49659 2.24023 5.04219V22.9622C2.24023 24.5078 3.49463 25.7622 5.04023 25.7622H22.9602C24.5058 25.7622 25.7602 24.5078 25.7602 22.9622V5.04219C25.7602 3.49659 24.5058 2.24219 22.9602 2.24219H5.04023ZM14.0002 5.04219C16.4754 5.04219 18.4802 7.04699 18.4802 9.52219C18.4802 11.9974 16.4754 14.0022 14.0002 14.0022C11.525 14.0022 9.52023 11.9974 9.52023 9.52219C9.52023 7.04699 11.525 5.04219 14.0002 5.04219ZM14.0002 7.28219C13.4061 7.28219 12.8364 7.51819 12.4163 7.93827C11.9962 8.35835 11.7602 8.9281 11.7602 9.52219C11.7602 10.1163 11.9962 10.686 12.4163 11.1061C12.8364 11.5262 13.4061 11.7622 14.0002 11.7622C14.5943 11.7622 15.1641 11.5262 15.5842 11.1061C16.0042 10.686 16.2402 10.1163 16.2402 9.52219C16.2402 8.9281 16.0042 8.35835 15.5842 7.93827C15.1641 7.51819 14.5943 7.28219 14.0002 7.28219ZM18.4802 14.8367C18.833 14.8367 19.1806 15.0044 19.399 15.318C19.7518 15.822 19.6286 16.5227 19.119 16.8755C18.279 17.4635 17.3546 17.8885 16.3802 18.1573L19.2699 21.0525C19.7123 21.4893 19.7123 22.1951 19.2699 22.6319C19.0515 22.8503 18.7658 22.9622 18.4802 22.9622C18.1946 22.9622 17.9089 22.8503 17.6905 22.6319L14.0002 18.947L10.3099 22.6319C10.0915 22.8503 9.80583 22.9622 9.52023 22.9622C9.23463 22.9622 8.94895 22.8503 8.73055 22.6319C8.28815 22.1951 8.28815 21.4893 8.73055 21.0525L11.6202 18.1573C10.6514 17.8885 9.72695 17.4689 8.88695 16.8809C8.38295 16.5281 8.25415 15.833 8.60695 15.3234C8.82535 15.0098 9.17277 14.8422 9.53117 14.8422C9.74957 14.8422 9.97392 14.909 10.1699 15.0434C11.2955 15.8274 12.6226 16.2422 14.0002 16.2422C15.3834 16.2422 16.7103 15.8276 17.8415 15.038C18.0319 14.9036 18.2562 14.8367 18.4802 14.8367Z" fill="#111111"/>
</svg>
