<svg width="28" height="28" viewBox="0 0 28 28" fill="none" xmlns="http://www.w3.org/2000/svg">
<path d="M5.04023 2.23828C3.49463 2.23828 2.24023 3.49268 2.24023 5.03828V22.9583C2.24023 24.5039 3.49463 25.7583 5.04023 25.7583H22.9602C24.5058 25.7583 25.7602 24.5039 25.7602 22.9583V5.03828C25.7602 3.49268 24.5058 2.23828 22.9602 2.23828H5.04023ZM14.0002 5.03828C16.4754 5.03828 18.4802 7.04308 18.4802 9.51828C18.4802 11.9935 16.4754 13.9983 14.0002 13.9983C11.525 13.9983 9.52023 11.9935 9.52023 9.51828C9.52023 7.04308 11.525 5.03828 14.0002 5.03828ZM14.0002 7.27828C13.4061 7.27828 12.8364 7.51428 12.4163 7.93436C11.9962 8.35444 11.7602 8.9242 11.7602 9.51828C11.7602 10.1124 11.9962 10.6821 12.4163 11.1022C12.8364 11.5223 13.4061 11.7583 14.0002 11.7583C14.5943 11.7583 15.1641 11.5223 15.5842 11.1022C16.0042 10.6821 16.2402 10.1124 16.2402 9.51828C16.2402 8.9242 16.0042 8.35444 15.5842 7.93436C15.1641 7.51428 14.5943 7.27828 14.0002 7.27828ZM18.4802 14.8328C18.833 14.8328 19.1806 15.0005 19.399 15.3141C19.7518 15.8181 19.6286 16.5188 19.119 16.8716C18.279 17.4596 17.3546 17.8846 16.3802 18.1534L19.2699 21.0486C19.7123 21.4854 19.7123 22.1912 19.2699 22.628C19.0515 22.8464 18.7658 22.9583 18.4802 22.9583C18.1946 22.9583 17.9089 22.8464 17.6905 22.628L14.0002 18.9431L10.3099 22.628C10.0915 22.8464 9.80583 22.9583 9.52023 22.9583C9.23463 22.9583 8.94895 22.8464 8.73055 22.628C8.28815 22.1912 8.28815 21.4854 8.73055 21.0486L11.6202 18.1534C10.6514 17.8846 9.72695 17.465 8.88695 16.877C8.38295 16.5242 8.25415 15.8291 8.60695 15.3195C8.82535 15.0059 9.17277 14.8383 9.53117 14.8383C9.74957 14.8383 9.97392 14.9051 10.1699 15.0395C11.2955 15.8235 12.6226 16.2383 14.0002 16.2383C15.3834 16.2383 16.7103 15.8237 17.8415 15.0341C18.0319 14.8997 18.2562 14.8328 18.4802 14.8328Z" fill="white"/>
</svg>
