<svg width="31" height="28" viewBox="0 0 31 28" fill="none" xmlns="http://www.w3.org/2000/svg">
<path d="M25.4205 2.24219H5.58047C3.86927 2.24219 2.48047 3.49659 2.48047 5.04219V22.9622C2.48047 24.5078 3.86927 25.7622 5.58047 25.7622H25.4205C27.1317 25.7622 28.5205 24.5078 28.5205 22.9622V5.04219C28.5205 3.49659 27.1317 2.24219 25.4205 2.24219ZM23.3869 18.4822L21.0743 18.4766C21.0743 18.4766 21.0247 18.4822 20.9441 18.4822C20.7581 18.4822 20.3737 18.4374 19.9211 18.1574C19.1089 17.6478 18.3339 16.3822 17.7201 16.3822C17.6767 16.3822 17.6395 16.3878 17.6023 16.399C17.0691 16.5502 16.9079 17.0318 16.9079 17.6198C16.9079 17.827 16.7467 17.9222 16.3127 17.9222H15.1161C13.7769 17.9222 12.4811 17.8942 11.0241 16.455C8.87887 14.3326 6.87007 10.5582 6.87007 10.5582C6.87007 10.5582 6.75847 10.3398 6.87627 10.211C6.98787 10.0934 7.24827 10.0822 7.34747 10.0822C7.37227 10.0822 7.38467 10.0822 7.38467 10.0822H9.86467C9.86467 10.0822 10.0941 10.1214 10.2615 10.2334C10.4041 10.3286 10.4785 10.5022 10.4785 10.5022C10.4785 10.5022 10.9001 11.2414 11.4271 12.0758C12.3137 13.4534 12.7911 13.9126 13.1321 13.9126C13.1879 13.9126 13.2437 13.9014 13.2995 13.8734C13.8079 13.6214 13.6591 11.583 13.6591 11.583C13.6591 11.583 13.6653 10.8438 13.3987 10.519C13.1941 10.2614 12.8035 10.1886 12.6299 10.1662C12.4935 10.1494 12.7167 9.85819 13.0143 9.72379C13.3987 9.55579 14.0373 9.52219 14.8061 9.52219H15.1781C15.9035 9.53339 15.9221 9.60059 16.2073 9.66219C17.0629 9.84699 16.7715 10.5694 16.7715 12.2998C16.7715 12.8542 16.6599 13.6326 17.1001 13.8958C17.1311 13.9126 17.1745 13.9238 17.2303 13.9238C17.5155 13.9238 18.1293 13.5934 19.1089 12.0982C19.6545 11.247 20.0761 10.4014 20.0761 10.4014C20.0761 10.4014 20.1691 10.2502 20.3117 10.1718C20.4481 10.099 20.4481 10.099 20.6279 10.099H20.6465C20.8449 10.099 22.8165 10.0822 23.2505 10.0822H23.3001C23.7155 10.0822 24.0937 10.0878 24.1619 10.3174C24.2611 10.6646 23.8581 11.2862 22.7979 12.5742C21.0495 14.6854 20.8511 14.5286 22.3019 15.7494C23.6907 16.9142 23.9759 17.4798 24.0255 17.5526C24.6021 18.415 23.3869 18.4822 23.3869 18.4822Z" fill="#111111"/>
</svg>
