<svg width="31" height="28" viewBox="0 0 31 28" fill="none" xmlns="http://www.w3.org/2000/svg">
<path d="M25.4205 2.23828H5.58047C3.86927 2.23828 2.48047 3.49268 2.48047 5.03828V22.9583C2.48047 24.5039 3.86927 25.7583 5.58047 25.7583H25.4205C27.1317 25.7583 28.5205 24.5039 28.5205 22.9583V5.03828C28.5205 3.49268 27.1317 2.23828 25.4205 2.23828ZM23.3869 18.4783L21.0743 18.4727C21.0743 18.4727 21.0247 18.4783 20.9441 18.4783C20.7581 18.4783 20.3737 18.4335 19.9211 18.1535C19.1089 17.6439 18.3339 16.3783 17.7201 16.3783C17.6767 16.3783 17.6395 16.3839 17.6023 16.3951C17.0691 16.5463 16.9079 17.0279 16.9079 17.6159C16.9079 17.8231 16.7467 17.9183 16.3127 17.9183H15.1161C13.7769 17.9183 12.4811 17.8903 11.0241 16.4511C8.87887 14.3287 6.87007 10.5543 6.87007 10.5543C6.87007 10.5543 6.75847 10.3359 6.87627 10.2071C6.98787 10.0895 7.24827 10.0783 7.34747 10.0783C7.37227 10.0783 7.38467 10.0783 7.38467 10.0783H9.86467C9.86467 10.0783 10.0941 10.1175 10.2615 10.2295C10.4041 10.3247 10.4785 10.4983 10.4785 10.4983C10.4785 10.4983 10.9001 11.2375 11.4271 12.0719C12.3137 13.4495 12.7911 13.9087 13.1321 13.9087C13.1879 13.9087 13.2437 13.8975 13.2995 13.8695C13.8079 13.6175 13.6591 11.5791 13.6591 11.5791C13.6591 11.5791 13.6653 10.8399 13.3987 10.5151C13.1941 10.2575 12.8035 10.1847 12.6299 10.1623C12.4935 10.1455 12.7167 9.85428 13.0143 9.71988C13.3987 9.55188 14.0373 9.51828 14.8061 9.51828H15.1781C15.9035 9.52948 15.9221 9.59668 16.2073 9.65828C17.0629 9.84308 16.7715 10.5655 16.7715 12.2959C16.7715 12.8503 16.6599 13.6287 17.1001 13.8919C17.1311 13.9087 17.1745 13.9199 17.2303 13.9199C17.5155 13.9199 18.1293 13.5895 19.1089 12.0943C19.6545 11.2431 20.0761 10.3975 20.0761 10.3975C20.0761 10.3975 20.1691 10.2463 20.3117 10.1679C20.4481 10.0951 20.4481 10.0951 20.6279 10.0951H20.6465C20.8449 10.0951 22.8165 10.0783 23.2505 10.0783H23.3001C23.7155 10.0783 24.0937 10.0839 24.1619 10.3135C24.2611 10.6607 23.8581 11.2823 22.7979 12.5703C21.0495 14.6815 20.8511 14.5247 22.3019 15.7455C23.6907 16.9103 23.9759 17.4759 24.0255 17.5487C24.6021 18.4111 23.3869 18.4783 23.3869 18.4783Z" fill="white"/>
</svg>
