<svg width="36" height="36" viewBox="0 0 36 36" fill="none" xmlns="http://www.w3.org/2000/svg">
<path d="M32.373 9.279C32.028 7.989 31.011 6.972 29.721 6.627C27.381 6 18 6 18 6C18 6 8.619 6 6.279 6.627C4.989 6.972 3.972 7.989 3.627 9.279C3 11.619 3 18 3 18C3 18 3 24.381 3.627 26.721C3.972 28.011 4.989 29.028 6.279 29.373C8.619 30 18 30 18 30C18 30 27.381 30 29.721 29.373C31.0125 29.028 32.028 28.011 32.373 26.721C33 24.381 33 18 33 18C33 18 33 11.619 32.373 9.279ZM15 21.897V14.103C15 13.5255 15.6255 13.1655 16.125 13.4535L22.875 17.3505C23.3745 17.6385 23.3745 18.3615 22.875 18.6495L16.125 22.5465C15.6255 22.836 15 22.4745 15 21.897Z" fill="#111111"/>
</svg>
