<svg width="643" height="461" viewBox="0 0 643 461" fill="none" xmlns="http://www.w3.org/2000/svg">
<path d="M392.086 340.372C305.578 396.097 219.34 434.213 149.857 450.801C115.113 459.096 84.5863 462.001 60.3213 459.051C36.0524 456.101 18.1227 447.306 8.4407 432.276C-1.24133 417.245 -1.83526 397.284 5.51344 373.967C12.8609 350.654 28.1285 324.06 50.0469 295.855C93.8806 239.449 164.244 176.689 250.752 120.964C337.26 65.2384 423.498 27.1222 492.981 10.5341C527.725 2.23952 558.252 -0.665553 582.517 2.2841C606.785 5.23424 624.715 14.0288 634.397 29.0593C644.079 44.0897 644.673 64.0513 637.324 87.3683C629.977 110.681 614.709 137.275 592.791 165.48C548.957 221.887 478.594 284.647 392.086 340.372Z" stroke="black"/>
</svg>
