<svg width="956" height="512" viewBox="0 0 956 512" fill="none" xmlns="http://www.w3.org/2000/svg">
<path d="M549.865 462.156C417.314 503.763 290.08 518.311 191.533 508.216C142.258 503.168 100.18 491.962 68.1995 474.916C36.2216 457.872 14.3697 435.009 5.46763 406.649C-3.43441 378.29 1.43145 347.04 17.9325 314.778C34.435 282.514 62.5602 249.271 100.111 216.969C175.211 152.366 287.935 91.5919 420.485 49.9847C553.035 8.37744 680.269 -6.17105 778.817 3.92442C828.092 8.97225 870.17 20.1788 902.15 37.2241C934.128 54.268 955.98 77.1314 964.882 105.491C973.784 133.851 968.918 165.101 952.417 197.362C935.915 229.626 907.789 262.869 870.239 295.172C795.139 359.775 682.415 420.548 549.865 462.156Z" stroke="black"/>
</svg>
