<svg width="319" height="170" viewBox="0 0 319 170" fill="none" xmlns="http://www.w3.org/2000/svg">
<path d="M181.855 153.041C138.148 166.76 96.2093 171.552 63.7452 168.226C47.5122 166.564 33.673 162.874 23.1703 157.276C12.6703 151.679 5.53545 144.194 2.63169 134.944C-0.272065 125.693 1.3054 115.474 6.72357 104.88C12.1431 94.2847 21.3909 83.3477 33.7615 72.7061C58.5014 51.4242 95.6555 31.3888 139.363 17.6693C183.07 3.94973 225.009 -0.842085 257.473 2.48363C273.706 4.14659 287.545 7.83663 298.048 13.4345C308.548 19.0308 315.682 26.5157 318.586 35.7663C321.49 45.017 319.913 55.2366 314.494 65.8296C309.075 76.4255 299.827 87.3624 287.456 98.004C262.717 119.286 225.562 139.321 181.855 153.041Z" stroke="black"/>
</svg>
