<svg width="738" height="390" viewBox="0 0 738 390" fill="none" xmlns="http://www.w3.org/2000/svg">
<path d="M418.099 351.641C317.274 383.29 220.498 394.354 145.549 386.676C108.073 382.837 76.0792 374.315 51.7682 361.357C27.4599 348.401 10.8633 331.029 4.10325 309.493C-2.65683 287.957 1.03474 264.217 13.5782 239.693C26.123 215.167 47.5072 189.889 76.0663 165.322C133.183 116.189 218.921 69.9621 319.746 38.3134C420.571 6.66468 517.347 -4.39977 592.297 3.27827C629.772 7.11738 661.766 15.6398 686.077 28.5973C710.386 41.5534 726.982 58.9252 733.742 80.4612C740.502 101.997 736.811 125.737 724.267 150.261C711.722 174.788 690.338 200.065 661.779 224.633C604.663 273.766 518.924 319.992 418.099 351.641Z" stroke="black"/>
</svg>
