<svg width="490" height="351" viewBox="0 0 490 351" fill="none" xmlns="http://www.w3.org/2000/svg">
<path d="M298.864 258.738C233.062 301.125 167.47 330.115 114.627 342.73C88.2039 349.039 64.996 351.246 46.5559 349.004C28.1119 346.762 14.5129 340.082 7.17424 328.689C-0.164391 317.296 -0.624006 302.152 4.96086 284.432C10.5446 266.715 22.1502 246.496 38.8197 225.046C72.1556 182.148 125.673 134.413 191.475 92.0258C257.277 49.6386 322.869 20.6486 375.712 8.03327C402.135 1.72503 425.343 -0.482051 443.783 1.75953C462.227 4.00158 475.826 10.682 483.165 22.0746C490.503 33.4671 490.963 48.6114 485.378 66.3319C479.794 84.0487 468.189 104.267 451.519 125.718C418.183 168.615 364.666 216.351 298.864 258.738Z" stroke="black"/>
</svg>
