<svg width="213" height="153" viewBox="0 0 213 153" fill="none" xmlns="http://www.w3.org/2000/svg">
<path d="M129.397 112.543C100.873 130.917 72.4508 143.476 49.5679 148.939C38.1241 151.671 28.0935 152.622 20.1405 151.655C12.1835 150.688 6.38138 147.813 3.26178 142.97C0.142174 138.128 -0.0756753 131.656 2.3337 124.011C4.74191 116.37 9.75476 107.63 16.9741 98.3403C31.4099 79.764 54.5976 59.0782 83.121 40.7046C111.644 22.331 140.067 9.77155 162.95 4.3086C174.393 1.57657 184.424 0.626143 192.377 1.59292C200.334 2.56017 206.136 5.43432 209.256 10.2772C212.375 15.1201 212.593 21.5915 210.184 29.2363C207.776 36.8774 202.763 45.6174 195.543 54.9074C181.108 73.4837 157.92 94.1694 129.397 112.543Z" stroke="black"/>
</svg>
