<svg width="60" height="60" viewBox="0 0 60 60" fill="none" xmlns="http://www.w3.org/2000/svg">
<path fill-rule="evenodd" clip-rule="evenodd" d="M13.2591 11.6867C13.2943 4.01464 13.3177 2.35139 13.4583 2.19912C13.5988 2.01171 14.5124 2 24.3163 2H35.022V7.25915C35.022 10.7965 35.0688 12.6237 35.1508 12.8814C35.1937 13.0062 35.2292 13.1092 35.2899 13.1943C35.5766 13.5959 36.426 13.5959 41.2884 13.5959H46.6179V17.3323V21.0571L46.1025 21.2562C45.2592 21.5725 44.6852 22.0644 44.3455 22.7437C43.959 23.5403 43.9473 24.243 44.3339 25.4846C44.5329 26.1406 44.5798 26.4333 44.4978 26.4919C44.2167 26.656 42.9048 26.8902 42.2255 26.8902C41.675 26.8785 41.4173 26.8199 41.0425 26.5739C40.2108 26.0351 38.9693 25.4612 37.9502 25.1332C37.1772 24.8872 36.6501 24.7936 35.6076 24.7467L34.2606 24.6999L32.2928 25.3558L30.325 26.0235L29.1889 25.5549C28.5681 25.3089 27.4319 24.899 26.6589 24.6647C25.3353 24.243 25.2182 24.2314 24.0235 24.2782C22.2899 24.3601 20.3339 25.0278 18.7408 26.082C18.1904 26.4451 17.4173 26.5388 16.4919 26.3631L16.4212 26.3501C15.9005 26.2541 15.6539 26.2086 15.5736 26.0681C15.5013 25.9416 15.5637 25.738 15.6825 25.3512L15.6955 25.3089C16.0234 24.243 16 23.5051 15.6252 22.7555C15.2738 22.0527 14.8638 21.7013 13.9034 21.2679L13.2358 20.9751L13.2591 11.6867ZM37.1655 11.5461C37.0483 11.511 37.0131 10.5856 37.0131 7.42313V3.347L41.1127 7.44656L45.2123 11.5461L41.265 11.5813C39.0864 11.593 37.2358 11.5813 37.1655 11.5461ZM6.02049 21.1157C5.87994 21.1743 5.71596 21.35 5.64568 21.4905C5.43485 21.959 0 38.8492 0 39.0366C0 39.5754 0.456808 39.798 4.01757 40.9458C7.12153 41.9531 7.5549 42.0586 7.84773 41.9415C8.02342 41.8712 8.22255 41.6837 8.30454 41.5198C8.58565 40.8873 13.9385 24.2196 13.9385 23.9502C13.9385 23.5168 13.5754 23.2475 12.5681 22.9194C12.0644 22.7672 10.4949 22.2636 9.07757 21.8068C7.66032 21.35 6.45388 20.9751 6.38361 20.9868C6.32504 20.9868 6.14934 21.0454 6.02049 21.1157ZM11.2562 24.3601C11.6896 24.8053 11.713 25.3207 11.3031 25.7189C10.4714 26.5622 9.11271 25.4729 9.79212 24.5125C10.1787 23.9502 10.776 23.8917 11.2562 24.3601ZM49.4407 22.2753C51.0806 21.7482 52.6267 21.2445 52.8843 21.1508C53.142 21.0688 53.4114 20.9868 53.4934 20.9868C53.7628 20.9634 54.2079 21.2328 54.3134 21.4905C54.5359 21.959 59.9707 38.8609 59.9707 39.0483C59.9707 39.5754 59.5022 39.798 55.9531 40.9458C52.8492 41.9531 52.4275 42.0702 52.1347 41.9415C51.9473 41.8712 51.7482 41.6955 51.6779 41.5549C51.4202 41.0512 46.0322 24.2547 46.0322 23.9619C46.0322 23.7979 46.1259 23.5754 46.243 23.4583C46.3601 23.3411 47.8008 22.8023 49.4407 22.2753ZM49.9443 25.6486C50.366 25.3207 50.3778 24.6061 49.9561 24.1962C49.347 23.5754 48.3514 24.0205 48.3514 24.899C48.3514 25.754 49.265 26.1874 49.9443 25.6486ZM22.8755 26.4217C21.9268 26.6793 20.8961 27.1361 19.9239 27.6984C19.4319 27.9912 18.7408 28.284 18.3894 28.366C17.675 28.5183 16.4334 28.4481 15.4612 28.1903C15.1098 28.0967 14.817 28.0264 14.8052 28.0381C14.8052 28.0497 13.7862 31.2006 12.5447 35.0307C11.3031 38.8609 10.1787 42.2226 10.0498 42.5037L9.81549 43.0073L10.1201 43.4641C10.2841 43.7101 10.6003 44.0615 10.8345 44.2255C11.1742 44.4832 11.3265 44.53 11.6662 44.4832C12.2167 44.3894 13.142 44.5651 13.7862 44.8931C14.8404 45.4202 15.6955 46.7555 15.6955 47.8682V48.4656L16.3748 48.6061C17.2884 48.7818 18.1904 49.3324 18.6823 50C18.9048 50.3046 19.0922 50.6208 19.0922 50.6911C19.0922 50.8785 19.2797 50.8902 19.3851 50.7262C19.4319 50.656 19.7365 50.4685 20.0644 50.2928C21.6808 49.4729 23.7775 50.0234 24.7145 51.511C24.9019 51.8038 25.0776 52.0967 25.101 52.1669C25.1245 52.2489 25.3118 52.2254 25.6281 52.0967C26.1903 51.8741 27.4553 51.8272 27.959 52.0264C28.9546 52.4011 29.7628 53.3499 29.9853 54.4275C30.0907 54.9429 30.0791 55.1889 29.9268 55.7863C29.9219 55.8052 29.9172 55.8236 29.9125 55.8416C29.9064 55.8646 29.9006 55.8868 29.8949 55.9085L29.8948 55.9088C29.8245 56.1772 29.781 56.3431 29.8247 56.4815C29.8955 56.7055 30.1951 56.8571 30.9799 57.2544H30.98L31.0749 57.3024C31.1091 57.3197 31.1441 57.3376 31.1801 57.3558C32.4217 57.9766 33.0424 58.0352 33.6047 57.5784C34.2489 57.0278 34.3426 56.1259 33.8389 55.4817C33.7101 55.3177 32.8316 54.7789 31.8828 54.2753C29.9736 53.2796 29.5168 52.9165 29.5168 52.3895C29.5168 51.921 29.9853 51.429 30.4421 51.429C30.6647 51.429 31.7541 51.9443 33.4641 52.8579C36.4509 54.451 36.8492 54.5681 37.6808 54.1347C38.9224 53.5139 39.2035 52.0732 38.3016 51.0425C38.0908 50.7965 37.2826 50.2928 36.2284 49.7423C34.2489 48.6998 33.7921 48.3133 33.8975 47.7511C33.9912 47.2943 34.2841 47.0015 34.7291 46.9194C35.022 46.8609 35.5724 47.1186 37.9502 48.3953C40.4216 49.7189 40.9136 49.9414 41.4758 49.9883C42.6003 50.0937 43.4787 49.4261 43.6544 48.3368C43.7365 47.7979 43.4436 47.0015 43.0103 46.6032C42.8346 46.4393 41.429 45.6427 39.8829 44.8229C38.3368 44.0029 37.0015 43.2533 36.9312 43.1479C36.6735 42.8199 36.7438 42.1288 37.0483 41.8477C37.5637 41.3675 37.8331 41.4612 42.0732 43.7218C45.9033 45.7599 46.1259 45.8653 46.7467 45.8653C47.5549 45.8653 48.1522 45.5022 48.4919 44.7994C48.7847 44.2137 48.7847 43.7804 48.5036 43.1713C48.1992 42.5037 47.7423 42.1288 45.6222 40.7467C41.9326 38.3338 39.3792 37.0805 36.0176 36.0263L34.8463 35.6632L29.5754 37.4085C24.7965 38.9898 24.2225 39.1537 23.4261 39.1655C22.3133 39.1888 21.634 38.8609 20.6969 37.8536C19.9825 37.0688 18.9751 35.2299 18.9751 34.6794C18.9751 33.8009 22.2665 30.7555 25.4758 28.6471C26.1903 28.1786 27.0336 27.6632 27.3499 27.4993L27.9356 27.2064L27.5842 27.0659C25.6047 26.2928 24.0703 26.082 22.8755 26.4217ZM24.3046 31.9268C26.612 30.0761 30.0322 28.2138 32.9136 27.2416C34.4363 26.7262 34.5417 26.7145 35.6076 26.7614C37.1537 26.8199 37.4466 26.9371 40.5857 28.5768C41.1127 28.8463 41.2884 28.8814 42.3426 28.8697C43.104 28.8579 43.8301 28.7643 44.3924 28.612C44.8726 28.4832 45.2708 28.3895 45.2826 28.4011C45.2826 28.4011 46.1728 31.1538 47.2621 34.5037C48.3397 37.8536 49.2533 40.6647 49.2885 40.7467C49.3236 40.8404 49.0307 40.6765 48.656 40.3953C46.2079 38.5447 42.6354 36.4831 39.8009 35.2767C38.5008 34.7262 35.2211 33.6252 34.8697 33.6252C34.7409 33.6252 32.2342 34.4099 29.2943 35.3705C26.3543 36.3309 23.836 37.1508 23.6837 37.1977C23.2855 37.3148 22.6999 37.0688 22.2314 36.5769C21.7628 36.0849 21.2006 35.1596 21.2006 34.8785C21.2006 34.6794 22.981 32.9927 24.3046 31.9268ZM11.7716 46.5095C11.1156 46.6501 10.8931 46.8726 9.94436 48.2899C9.2299 49.3558 8.97215 49.836 8.93701 50.1874C8.80823 51.4524 10.1435 52.3778 11.2913 51.8389C11.9356 51.5344 13.5988 49.0278 13.6808 48.2547C13.7862 47.142 12.8375 46.2753 11.7716 46.5095ZM13.7628 52.1903C14.5944 50.9956 14.8287 50.7496 15.2972 50.609C16.3983 50.2811 17.5695 51.265 17.4173 52.4011C17.347 52.9165 15.8712 55.2357 15.3206 55.7042C14.3016 56.5593 12.6501 55.8331 12.6501 54.5213C12.6501 53.8888 12.8023 53.5725 13.7628 52.1903ZM20.8843 52.12C20.4275 52.4129 18.7877 54.7203 18.612 55.3528C18.4363 55.9736 18.6237 56.5827 19.1508 57.0395C19.5139 57.3441 19.6662 57.4027 20.205 57.4027C20.7086 57.4027 20.8961 57.3441 21.1889 57.0981C21.6574 56.7116 23.1567 54.4743 23.2855 53.9707C23.4846 53.2211 23.1215 52.4129 22.4539 52.0849C21.9151 51.8389 21.3411 51.8507 20.8843 52.12ZM25.1947 55.3997C25.5929 54.7906 26.0264 54.205 26.1552 54.0996C26.3075 53.9824 26.612 53.8888 26.8931 53.8888C27.6779 53.8888 28.2518 54.6618 27.9824 55.3763C27.8067 55.8448 26.4832 57.7423 26.2489 57.8712C25.7921 58.1054 25.183 58.0117 24.8199 57.6486C24.2811 57.1098 24.3514 56.6881 25.1947 55.3997ZM27.491 13.7589H29.0764C29.753 13.7589 30.3355 13.6488 30.8239 13.4285C31.3163 13.2084 31.6967 12.8901 31.9649 12.4737C32.2371 12.0573 32.3733 11.559 32.3733 10.9785C32.3733 10.426 32.2412 9.93553 31.9769 9.50716C31.7127 9.07879 31.3343 8.7425 30.8419 8.49829C30.3535 8.25407 29.765 8.13196 29.0764 8.13196H25.6895V12.3536H24.4764V13.7589H25.6895V14.2512H24.4764V15.6565H25.6895V16.8755H27.491V15.6565H29.4067V14.2512H27.491V13.7589ZM27.491 12.3536H29.0344C29.4067 12.3536 29.7029 12.2956 29.9231 12.1794C30.1473 12.0634 30.3095 11.9032 30.4095 11.6991C30.5096 11.4909 30.5597 11.2547 30.5597 10.9904C30.5597 10.7302 30.5057 10.492 30.3975 10.2758C30.2934 10.0556 30.1313 9.87948 29.9111 9.74737C29.6949 9.61125 29.4187 9.54319 29.0824 9.54319H27.491V12.3536Z" fill="black"/>
<path d="M52.8843 21.1405C52.6267 21.2343 51.0806 21.7379 49.4407 22.265C47.8009 22.7921 46.3602 23.3308 46.2431 23.448C46.126 23.5651 46.0322 23.7876 46.0322 23.9517C46.0322 24.2445 51.4202 41.0409 51.6779 41.5447C51.7482 41.6852 51.9473 41.8609 52.1347 41.9312C52.4275 42.06 52.8492 41.9429 55.9531 40.9355C59.5022 39.7877 59.9708 39.5651 59.9708 39.038C59.9708 38.8506 54.5359 21.9487 54.3134 21.4802C54.208 21.2225 53.7628 20.9531 53.4934 20.9765C53.4114 20.9765 53.142 21.0586 52.8843 21.1405ZM49.9561 24.1859C50.3778 24.5958 50.366 25.3104 49.9444 25.6383C49.265 26.1771 48.3514 25.7437 48.3514 24.8887C48.3514 24.0102 49.347 23.5651 49.9561 24.1859Z" fill="#FE0000"/>
<path d="M6.02049 21.1042C5.87994 21.1628 5.71596 21.3385 5.64568 21.4791C5.43485 21.9476 0 38.8378 0 39.0252C0 39.5639 0.456808 39.7866 4.01757 40.9344C7.12153 41.9417 7.5549 42.0471 7.84773 41.93C8.02342 41.8598 8.22255 41.6723 8.30454 41.5084C8.58565 40.8759 13.9385 24.2082 13.9385 23.9388C13.9385 23.5054 13.5754 23.236 12.5681 22.908C12.0644 22.7558 10.4949 22.2521 9.07757 21.7953C7.66032 21.3385 6.45388 20.9637 6.38361 20.9754C6.32504 20.9754 6.14934 21.034 6.02049 21.1042ZM11.2562 24.3487C11.6896 24.7938 11.713 25.3092 11.3031 25.7075C10.4714 26.5508 9.11271 25.4615 9.79212 24.501C10.1787 23.9388 10.776 23.8802 11.2562 24.3487Z" fill="#FE0000"/>
</svg>
