<svg width="60" height="60" viewBox="0 0 60 60" fill="none" xmlns="http://www.w3.org/2000/svg">
<path d="M7.28405 0.29708C7.00098 0.582276 7.00098 0.594159 7.00098 3.03021V5.46627H16.9649C25.4002 5.46627 26.9854 5.49003 27.2458 5.63262C27.4836 5.77522 40.6631 19.5003 40.765 19.726C40.7876 19.7617 40.8215 22.8988 40.8555 26.7015L40.9122 33.6294L42.9275 29.9694L44.9316 26.3212L44.9091 13.4517L44.8751 0.570392L44.558 0.285196L44.241 0H25.8984H7.55579L7.28405 0.29708Z" fill="black"/>
<path d="M1.50952 7.62893C1.38497 7.70023 1.22645 7.85471 1.14719 7.94977C1.03397 8.10426 1.01132 13.7012 1 33.2491V58.3582L1.28306 58.6434L1.55481 58.9405H19.9314C34.1978 58.9286 38.3533 58.9048 38.4891 58.786C38.9081 58.4533 38.9307 58.2156 38.9307 53.8307C38.9307 50.4322 38.8968 49.5409 38.7949 49.5766C37.4814 50.0875 37.0738 50.0757 36.7454 49.529C36.587 49.2794 35.7603 44.2054 35.7378 43.3973C35.7264 43.1597 36.2246 42.1615 37.3342 40.1413L38.9307 37.2299V29.2563V21.2708H32.8165C26.0682 21.2708 26.1701 21.2827 25.9211 20.5459C25.8417 20.2845 25.7965 18.1574 25.7965 13.8319V7.48633H13.7719C4.92894 7.49822 1.67936 7.53387 1.50952 7.62893ZM23.0224 13.2497C23.3055 13.5349 23.3848 14.022 23.2376 14.438C23.0338 14.9727 22.9998 14.9727 14.4852 14.9727H6.44617L6.14046 14.6875C5.90268 14.4736 5.82343 14.3072 5.82343 13.9627C5.82343 13.618 5.90268 13.4516 6.14046 13.2377L6.44617 12.9526H14.5984H22.7507L23.0224 13.2497ZM23.0224 20.9737C23.4187 21.3778 23.3961 21.9006 22.9772 22.3522L22.6488 22.6968H14.6551C9.65049 22.6968 6.57072 22.6492 6.37823 22.5779C6.04988 22.4473 5.72152 21.758 5.83475 21.4253C5.86871 21.3065 6.00459 21.0926 6.12914 20.9381L6.35559 20.6767H14.5531H22.7507L23.0224 20.9737ZM33.8016 28.6621C33.9714 28.8285 34.062 29.0543 34.062 29.3157C34.062 29.8742 33.9035 30.1356 33.4845 30.2902C33.2241 30.3852 29.2612 30.4208 19.8861 30.4208C5.34788 30.4208 6.14046 30.4565 5.89136 29.7078C5.74417 29.292 5.80078 29.0424 6.12914 28.6621L6.35559 28.4007H19.954H33.5411L33.8016 28.6621ZM33.711 36.2436C34.062 36.4337 34.2318 37.016 34.0507 37.4438C33.7676 38.1806 34.4243 38.1449 20.0559 38.1449C11.1451 38.1449 6.80849 38.0974 6.5141 38.0142C5.76681 37.8003 5.57433 36.7784 6.18575 36.2912C6.34426 36.1604 8.99375 36.1367 19.9427 36.1248C28.4233 36.1248 33.5864 36.1723 33.711 36.2436ZM33.5411 43.8964C34.0394 44.1103 34.2545 44.6569 34.062 45.156C33.9827 45.358 33.8242 45.5719 33.711 45.6313C33.5864 45.7026 28.412 45.7501 19.9314 45.7501H6.35559L6.12914 45.4769C5.80078 45.0966 5.74417 44.8589 5.89136 44.4311C6.12914 43.7063 5.4611 43.7419 19.9427 43.7301C30.9256 43.7301 33.2241 43.7538 33.5411 43.8964ZM33.5978 51.6323C33.7789 51.7274 33.9488 51.8938 33.994 51.9888C34.1413 52.3929 34.062 52.9276 33.8129 53.2009L33.5751 53.4742H19.9653H6.35559L6.12914 53.2009C5.80078 52.8325 5.74417 52.583 5.88004 52.1671C6.12914 51.4184 5.32523 51.466 19.9427 51.4541C31.4351 51.4541 33.326 51.4779 33.5978 51.6323Z" fill="black"/>
<path d="M27.7438 14.1053L27.7778 19.1914L32.6239 19.227C35.2847 19.2389 37.4586 19.2151 37.4586 19.1676C37.4586 19.0488 27.9137 9.03125 27.8005 9.03125C27.7552 9.03125 27.7325 11.3128 27.7438 14.1053Z" fill="black"/>
<path d="M53.82 15.1987C53.2086 15.4959 52.6878 16.0781 52.8802 16.2445C53.0727 16.399 56.8884 18.6567 56.9677 18.6567C57.0809 18.6567 57.2734 17.9081 57.2734 17.4803C57.2734 16.8743 56.7979 15.888 56.3563 15.5434C55.5863 14.9373 54.6126 14.8066 53.82 15.1987Z" fill="#FE0000"/>
<path d="M44.8864 30.4449C39.327 40.5457 38.0363 42.9579 38.1608 43.0768C38.342 43.255 42.0898 45.5128 42.1917 45.5128C42.2596 45.5128 55.1674 22.1505 55.8241 20.8433L56.0279 20.4512L53.9219 19.2034C52.7557 18.5023 51.8046 17.9438 51.7819 17.9438C51.7706 17.9438 48.6682 23.5645 44.8864 30.4449Z" fill="#FE0000"/>
<path d="M56.5486 19.5359C56.3222 19.9518 56.141 20.3558 56.141 20.4271C56.141 20.4984 56.3222 20.6529 56.5373 20.7718L56.9336 20.9737L55.2353 24.0634C54.1596 26.0241 53.5369 27.2718 53.5369 27.4857C53.5369 28.2344 54.5559 28.686 55.0994 28.1869C55.2239 28.0799 56.1297 26.5232 57.1035 24.7289C58.4168 22.3284 58.9038 21.354 58.9377 20.9857C59.0057 20.2489 58.7 19.7498 57.8281 19.215C57.4318 18.9773 57.0695 18.7754 57.0242 18.7754C56.9902 18.7754 56.7751 19.1199 56.5486 19.5359Z" fill="#FE0000"/>
<path d="M44.1843 46.1066C43.7994 46.7959 43.3918 47.4613 43.2786 47.6039C43.154 47.7346 42.5652 48.0436 41.9538 48.2932L40.8555 48.7447V50.0994V51.4541H42.5426C44.0598 51.4541 44.2522 51.4303 44.5127 51.2164C44.6825 51.0738 44.8411 50.8005 44.875 50.5866C44.909 50.3727 44.9316 49.0062 44.909 47.5326L44.875 44.8589L44.1843 46.1066Z" fill="black"/>
<path d="M38.1041 46.4274C38.1835 46.9978 38.2854 47.485 38.3079 47.5088C38.3533 47.5682 39.9044 46.9978 40.1649 46.8315C40.2668 46.7602 39.9724 46.5225 39.1911 46.059C38.5684 45.6907 38.0362 45.3936 38.0022 45.3936C37.9683 45.3936 38.0136 45.857 38.1041 46.4274Z" fill="#FE0000"/>
</svg>
