<svg width="14" height="14" viewBox="0 0 14 14" fill="none" xmlns="http://www.w3.org/2000/svg">
<path fill-rule="evenodd" clip-rule="evenodd" d="M7 14C10.866 14 14 10.866 14 7C14 3.13401 10.866 0 7 0C3.13401 0 0 3.13401 0 7C0 10.866 3.13401 14 7 14ZM7.50417 9.24167C6.325 8.6375 5.35833 7.675 4.75833 6.49583L5.675 5.57917C5.79167 5.4625 5.825 5.3 5.77917 5.15417C5.625 4.6875 5.54167 4.1875 5.54167 3.66667C5.54167 3.4375 5.35417 3.25 5.125 3.25H3.66667C3.4375 3.25 3.25 3.4375 3.25 3.66667C3.25 7.57917 6.42083 10.75 10.3333 10.75C10.5625 10.75 10.75 10.5625 10.75 10.3333V8.87917C10.75 8.65 10.5625 8.4625 10.3333 8.4625C9.81667 8.4625 9.3125 8.37917 8.84583 8.225C8.7 8.175 8.53333 8.2125 8.42083 8.325L7.50417 9.24167Z" fill="white"/>
</svg>
