<svg width="14" height="14" viewBox="0 0 14 14" fill="none" xmlns="http://www.w3.org/2000/svg">
<path fill-rule="evenodd" clip-rule="evenodd" d="M7 14C10.866 14 14 10.866 14 7C14 3.13401 10.866 0 7 0C3.13401 0 0 3.13401 0 7C0 10.866 3.13401 14 7 14ZM4.743 3.62215C5.41107 3.17576 6.19651 2.9375 7 2.9375C8.07709 2.93864 9.10975 3.36701 9.87136 4.12863C10.633 4.89025 11.0614 5.92291 11.0625 7C11.0625 7.80349 10.8242 8.58893 10.3778 9.257C9.93145 9.92508 9.29698 10.4458 8.55465 10.7533C7.81233 11.0607 6.99549 11.1412 6.20745 10.9844C5.4194 10.8277 4.69553 10.4408 4.12738 9.87262C3.55923 9.30447 3.17231 8.5806 3.01556 7.79255C2.85881 7.00451 2.93926 6.18767 3.24674 5.44535C3.55422 4.70302 4.07492 4.06855 4.743 3.62215ZM5.09023 9.85818C5.65552 10.2359 6.32013 10.4375 7 10.4375C7.91136 10.4365 8.78511 10.074 9.42954 9.42954C10.074 8.78511 10.4365 7.91136 10.4375 7C10.4375 6.32013 10.2359 5.65552 9.85818 5.09023C9.48046 4.52493 8.9436 4.08434 8.31547 3.82416C7.68735 3.56399 6.99619 3.49591 6.32938 3.62855C5.66257 3.76119 5.05006 4.08858 4.56932 4.56932C4.08858 5.05006 3.76119 5.66257 3.62855 6.32938C3.49591 6.99619 3.56399 7.68735 3.82416 8.31547C4.08434 8.9436 4.52493 9.48046 5.09023 9.85818ZM9.40847 7.22097C9.46708 7.16237 9.5 7.08288 9.5 7C9.5 6.91712 9.46708 6.83763 9.40847 6.77903C9.34987 6.72042 9.27038 6.6875 9.1875 6.6875H7.3125V4.8125C7.3125 4.72962 7.27958 4.65013 7.22097 4.59153C7.16237 4.53292 7.08288 4.5 7 4.5C6.91712 4.5 6.83763 4.53292 6.77903 4.59153C6.72042 4.65013 6.6875 4.72962 6.6875 4.8125V7C6.6875 7.08288 6.72042 7.16237 6.77903 7.22097C6.83763 7.27958 6.91712 7.3125 7 7.3125H9.1875C9.27038 7.3125 9.34987 7.27958 9.40847 7.22097Z" fill="white"/>
</svg>
