<svg width="16" height="16" viewBox="0 0 16 16" fill="none" xmlns="http://www.w3.org/2000/svg">
<path d="M13.9996 12.7909V10.9845C14.007 10.6891 13.9053 10.4014 13.7139 10.176C13.1743 9.5404 11.3236 9.13386 10.59 9.29C10.0182 9.41173 9.61809 9.98586 9.22696 10.3763C7.71642 9.519 6.46572 8.2708 5.6068 6.7632C5.99793 6.37286 6.57325 5.97357 6.69522 5.40285C6.85142 4.67185 6.44542 2.83299 5.81421 2.29123C5.59219 2.10067 5.30831 1.99718 5.0155 2.00006H3.2054C2.51572 2.00071 1.94192 2.6193 2.00471 3.31279C2 9.29 6.66669 14 12.6843 13.9953C13.3815 14.0582 14.0024 13.4815 13.9996 12.7909Z" stroke="white" stroke-linecap="round" stroke-linejoin="round"/>
</svg>
