<svg width="20" height="20" viewBox="0 0 20 20" fill="none" xmlns="http://www.w3.org/2000/svg">
<path d="M8.3283 0C3.73857 0 0 3.73857 0 8.3283C0 12.918 3.73857 16.6566 8.3283 16.6566C10.3242 16.6566 12.1571 15.9478 13.5937 14.7713L18.5662 19.7439C18.7751 19.9615 19.0853 20.0491 19.3772 19.973C19.669 19.897 19.897 19.669 19.973 19.3772C20.0491 19.0853 19.9615 18.7751 19.7439 18.5662L14.7713 13.5937C15.9478 12.1571 16.6566 10.3242 16.6566 8.3283C16.6566 3.73857 12.918 0 8.3283 0ZM8.3283 1.66566C12.0178 1.66566 14.9909 4.63876 14.9909 8.3283C14.9909 12.0178 12.0178 14.9909 8.3283 14.9909C4.63876 14.9909 1.66566 12.0178 1.66566 8.3283C1.66566 4.63876 4.63876 1.66566 8.3283 1.66566Z" fill="white"/>
</svg>
